<svg xmlns="http://www.w3.org/2000/svg" xmlns:xlink="http://www.w3.org/1999/xlink" width="45" height="45" viewBox="0 0 45 45">
  <defs>
    <clipPath id="clip-FUEGO1">
      <rect width="45" height="45"/>
    </clipPath>
  </defs>
  <g id="FUEGO1" clip-path="url(#clip-FUEGO1)">
    <rect width="45" height="45" fill="rgba(255,255,255,0)"/>
    <path id="Trazado_20496" data-name="Trazado 20496" d="M47.522,20.515l0,.356a13.181,13.181,0,0,1-6.766,11.142c-1.175-3.267-4.623-9.386-7.409-8.415-2.533.867-4.944,4.843-6.814,7.306a13.037,13.037,0,0,1-3.51-16.694,13.528,13.528,0,0,1,1.945-2.693c.835-.888,1.871-1.575,2.706-2.465a6.55,6.55,0,0,0,.751-7.333,5.389,5.389,0,0,0-.327-.551c-.044-.067-.4-.489-.222-.5A15.709,15.709,0,0,1,36.8,3.026a20.587,20.587,0,0,1,5.886,5.123,22.524,22.524,0,0,1,2.793,4.49A18.627,18.627,0,0,1,47.522,20.515Z" transform="translate(-11.892 5.843)" fill="#fff3e9"/>
    <path id="Trazado_20496_-_Contorno" data-name="Trazado 20496 - Contorno" d="M40.758,33.513a1.5,1.5,0,0,1-1.411-.992,23.312,23.312,0,0,0-2.626-5.041c-1.289-1.834-2.292-2.485-2.759-2.485a.344.344,0,0,0-.118.02l-.008,0c-1.6.549-3.551,3.263-4.973,5.244-.4.551-.769,1.071-1.132,1.55a1.5,1.5,0,0,1-2.1.287,14.537,14.537,0,0,1-3.917-18.61,14.984,14.984,0,0,1,2.163-2.993l0,0a16.917,16.917,0,0,1,1.476-1.349,14.406,14.406,0,0,0,1.227-1.113,5.06,5.06,0,0,0,.507-5.633l0-.01a3.845,3.845,0,0,0-.217-.363l0,0A1.85,1.85,0,0,1,26.476.058a1.544,1.544,0,0,1,1.338-.884c.24-.011.485-.016.728-.016a17.359,17.359,0,0,1,9.026,2.581,21.96,21.96,0,0,1,6.294,5.481A23.951,23.951,0,0,1,46.836,12a19.818,19.818,0,0,1,2.186,8.511l0,.351q0,.019,0,.038a14.681,14.681,0,0,1-7.546,12.428A1.5,1.5,0,0,1,40.758,33.513Zm-6.8-11.518c1.706,0,3.46,1.265,5.214,3.76a25.959,25.959,0,0,1,2.28,4.018,11.707,11.707,0,0,0,4.569-8.913l0-.336a16.936,16.936,0,0,0-1.9-7.239l-.009-.018a20.948,20.948,0,0,0-2.608-4.188,18.97,18.97,0,0,0-5.454-4.751L36.007,4.3A14.383,14.383,0,0,0,30.27,2.268a8.729,8.729,0,0,1,.405,3.374,7.282,7.282,0,0,1-1.9,4.432l0,0a16.862,16.862,0,0,1-1.485,1.357,14.5,14.5,0,0,0-1.219,1.105,11.979,11.979,0,0,0-1.727,2.392A11.539,11.539,0,0,0,26.289,28.7l.136-.19c1.84-2.564,3.925-5.47,6.433-6.331A3.351,3.351,0,0,1,33.962,21.995Z" transform="translate(-11.892 5.843)" fill="#faf1e7"/>
  </g>
</svg>
