<svg id="Group_35664" data-name="Group 35664" xmlns="http://www.w3.org/2000/svg" xmlns:xlink="http://www.w3.org/1999/xlink" width="82.972" height="65.973" viewBox="0 0 82.972 65.973">
  <defs>
    <clipPath id="clip-path">
      <rect id="Rectangle_2232" data-name="Rectangle 2232" width="82.972" height="65.973" fill="none"/>
    </clipPath>
  </defs>
  <g id="Group_35663" data-name="Group 35663" transform="translate(0 0)" clip-path="url(#clip-path)">
    <path id="Path_16341" data-name="Path 16341" d="M41.617,1.389c-19.784,0-31.07,6.515-36.393,10.864A10.982,10.982,0,0,0,1.391,20.79v6.077A1.661,1.661,0,0,0,2.955,28.61H80.278a1.659,1.659,0,0,0,1.561-1.742V20.79a10.979,10.979,0,0,0-3.832-8.537C72.686,7.9,61.4,1.389,41.617,1.389" transform="translate(-0.128 -0.127)" fill="#192bff"/>
    <path id="Path_16342" data-name="Path 16342" d="M41.617,1.389c-19.784,0-31.07,6.515-36.393,10.864A10.982,10.982,0,0,0,1.391,20.79v6.077A1.661,1.661,0,0,0,2.955,28.61H80.278a1.659,1.659,0,0,0,1.561-1.742V20.79a10.979,10.979,0,0,0-3.832-8.537C72.686,7.9,61.4,1.389,41.617,1.389Z" transform="translate(-0.128 -0.127)" fill="none" stroke="#242ff8" stroke-miterlimit="10" stroke-width="2.777"/>
    <path id="Path_16343" data-name="Path 16343" d="M41.3,69.78c19.626,0,30.819-4.168,36.1-6.943,2.416-1.274,3.8-3.3,3.8-5.459V56.3c0-.612-.691-1.113-1.548-1.113H2.94c-.856,0-1.551.5-1.551,1.113v1.073c0,2.156,1.386,4.185,3.8,5.459,5.281,2.775,16.475,6.943,36.1,6.943" transform="translate(-0.128 -5.068)" fill="#192bff"/>
    <path id="Path_16344" data-name="Path 16344" d="M41.3,69.78c19.626,0,30.819-4.168,36.1-6.943,2.416-1.274,3.8-3.3,3.8-5.459V56.3c0-.612-.691-1.113-1.548-1.113H2.94c-.856,0-1.551.5-1.551,1.113v1.073c0,2.156,1.386,4.185,3.8,5.459C10.473,65.612,21.667,69.78,41.3,69.78Z" transform="translate(-0.128 -5.068)" fill="none" stroke="#242ff8" stroke-miterlimit="10" stroke-width="2.777"/>
    <path id="Path_16345" data-name="Path 16345" d="M75.373,54.172H8.171a5.079,5.079,0,0,1-5.08-5.08v-.668a5.076,5.076,0,0,1,5.08-5.08h67.2a5.079,5.079,0,0,1,5.08,5.08v.668a5.081,5.081,0,0,1-5.08,5.08" transform="translate(-0.284 -3.98)" fill="#fff3e9"/>
    <rect id="Rectangle_2231" data-name="Rectangle 2231" width="77.363" height="10.828" rx="5.414" transform="translate(2.808 39.364)" fill="none" stroke="#242ff8" stroke-miterlimit="10" stroke-width="2.777"/>
    <path id="Path_16346" data-name="Path 16346" d="M75.6,31.272H7.945a5.156,5.156,0,0,0-4.852,5.415A5.155,5.155,0,0,0,7.945,42.1H22.122a6.571,6.571,0,0,1,5.557,2.941,4.217,4.217,0,0,0,7.24,0A6.574,6.574,0,0,1,40.476,42.1c3.309,0,6.17,2.068,8.125,5.044a7.207,7.207,0,0,0,12.357,0c1.953-2.976,4.816-5.044,8.122-5.044H75.6a5.158,5.158,0,0,0,4.856-5.413A5.159,5.159,0,0,0,75.6,31.272" transform="translate(-0.284 -2.871)" fill="#fff3e9"/>
    <path id="Path_16347" data-name="Path 16347" d="M75.6,31.272H7.945a5.156,5.156,0,0,0-4.852,5.415A5.155,5.155,0,0,0,7.945,42.1H22.122a6.571,6.571,0,0,1,5.557,2.941,4.217,4.217,0,0,0,7.24,0A6.574,6.574,0,0,1,40.476,42.1c3.309,0,6.17,2.068,8.125,5.044a7.207,7.207,0,0,0,12.357,0c1.953-2.976,4.816-5.044,8.122-5.044H75.6a5.158,5.158,0,0,0,4.856-5.413A5.159,5.159,0,0,0,75.6,31.272Z" transform="translate(-0.284 -2.871)" fill="none" stroke="#192bff" stroke-miterlimit="10" stroke-width="2.777"/>
    <path id="Path_16348" data-name="Path 16348" d="M21.827,15.768c0,.836-1.357,1.515-3.029,1.515s-3.029-.678-3.029-1.515,1.356-1.514,3.029-1.514,3.029.677,3.029,1.514" transform="translate(-1.448 -1.309)" fill="#fff3e9"/>
    <path id="Path_16349" data-name="Path 16349" d="M39.312,15.768c0,.836-1.357,1.515-3.029,1.515s-3.029-.678-3.029-1.515,1.353-1.514,3.029-1.514,3.029.677,3.029,1.514" transform="translate(-3.054 -1.309)" fill="#fff3e9"/>
    <path id="Path_16350" data-name="Path 16350" d="M56.793,15.768c0,.836-1.357,1.515-3.029,1.515s-3.029-.678-3.029-1.515,1.357-1.514,3.029-1.514,3.029.677,3.029,1.514" transform="translate(-4.659 -1.309)" fill="#fff3e9"/>
    <path id="Path_16351" data-name="Path 16351" d="M74.275,15.768c0,.836-1.353,1.515-3.029,1.515s-3.029-.678-3.029-1.515,1.356-1.514,3.029-1.514,3.029.677,3.029,1.514" transform="translate(-6.264 -1.309)" fill="#fff3e9"/>
    <path id="Path_16352" data-name="Path 16352" d="M30.567,23.1c0,.839-1.353,1.515-3.029,1.515s-3.026-.676-3.026-1.515,1.353-1.511,3.026-1.511,3.029.675,3.029,1.511" transform="translate(-2.251 -1.983)" fill="#fff3e9"/>
    <path id="Path_16353" data-name="Path 16353" d="M48.052,23.1c0,.839-1.357,1.515-3.029,1.515s-3.03-.676-3.03-1.515,1.357-1.511,3.03-1.511,3.029.675,3.029,1.511" transform="translate(-3.856 -1.983)" fill="#fff3e9"/>
    <path id="Path_16354" data-name="Path 16354" d="M65.534,23.1c0,.839-1.357,1.515-3.029,1.515s-3.029-.676-3.029-1.515,1.356-1.511,3.029-1.511,3.029.675,3.029,1.511" transform="translate(-5.461 -1.983)" fill="#fff3e9"/>
    <path id="Path_16355" data-name="Path 16355" d="M30.567,8.43c0,.836-1.353,1.515-3.029,1.515s-3.026-.678-3.026-1.515,1.353-1.514,3.026-1.514,3.029.677,3.029,1.514" transform="translate(-2.251 -0.635)" fill="#fff3e9"/>
    <path id="Path_16356" data-name="Path 16356" d="M48.052,8.43c0,.836-1.357,1.515-3.029,1.515s-3.03-.678-3.03-1.515,1.357-1.514,3.03-1.514,3.029.677,3.029,1.514" transform="translate(-3.856 -0.635)" fill="#fff3e9"/>
    <path id="Path_16357" data-name="Path 16357" d="M65.534,8.43c0,.836-1.357,1.515-3.029,1.515s-3.029-.678-3.029-1.515S60.832,6.916,62.5,6.916s3.029.677,3.029,1.514" transform="translate(-5.461 -0.635)" fill="#fff3e9"/>
    <text id="Sacar_el_color_verde_" data-name="Sacar el color verde 
" transform="translate(-278.908 -17.059)" fill="#ff4438" stroke="rgba(0,0,0,0)" stroke-width="1" font-size="31" font-family="SegoeUI-Semibold, Segoe UI" font-weight="600"><tspan x="0" y="0">Sacar el color verde </tspan><tspan font-family="Bogart-Semibold, Bogart"><tspan x="0" y="35"></tspan></tspan></text>
  </g>
</svg>
