<svg id="Group_35674" data-name="Group 35674" xmlns="http://www.w3.org/2000/svg" xmlns:xlink="http://www.w3.org/1999/xlink" width="101.37" height="62.285" viewBox="0 0 101.37 62.285">
  <defs>
    <clipPath id="clip-path">
      <rect id="Rectangle_2238" data-name="Rectangle 2238" width="101.37" height="62.285" fill="none"/>
    </clipPath>
  </defs>
  <g id="Group_35673" data-name="Group 35673" transform="translate(0 0)" clip-path="url(#clip-path)">
    <path id="Path_16387" data-name="Path 16387" d="M10.3,48.315a13.427,13.427,0,0,1-3.368-.671c-2.917-1.014-5.5-3.605-5.547-6.691-.046-3.183,2.443-5.731,4.323-8.3,3.664-5,5.393-11.075,8.731-16.267C18.134,10.655,23.4,8.35,30.17,9.032c4.139.418,13.4,1.257,17.505.631,4.952-.76,6.075-1.939,11.085-1.85,6.282.112,7.378,3.079,11.695,3.79,3.622.6,6.772-4.626,12.554-.405,4.135,3.015,3.578,10.074,6.081,11.786,1.468,1,2.778,5.018,4.2,6.084,2.565,1.923,6.133,4.25,6.726,7.922,1.291,7.976-3.526,8.461-5.35,11.381a20.031,20.031,0,0,1-4.023,3.049c-.833.371-1.313-5.4-2.186-5.666-11.645-3.513-24.067-3.589-36.179-2.433S28.2,46.834,16.109,48.1a32.022,32.022,0,0,1-5.8.217" transform="translate(-0.127 -0.717)" fill="#e1e640"/>
    <path id="Path_16388" data-name="Path 16388" d="M10.3,48.315a13.427,13.427,0,0,1-3.368-.671c-2.917-1.014-5.5-3.605-5.547-6.691-.046-3.183,2.443-5.731,4.323-8.3,3.664-5,5.393-11.075,8.731-16.267C18.134,10.655,23.4,8.35,30.17,9.032c4.139.418,13.4,1.257,17.505.631,4.952-.76,6.075-1.939,11.085-1.85,6.282.112,7.378,3.079,11.695,3.79,3.622.6,6.772-4.626,12.554-.405,4.135,3.015,3.578,10.074,6.081,11.786,1.468,1,2.778,5.018,4.2,6.084,2.565,1.923,6.133,4.25,6.726,7.922,1.291,7.976-3.526,8.461-5.35,11.381a20.031,20.031,0,0,1-4.023,3.049c-.833.371-1.313-5.4-2.186-5.666-11.645-3.513-24.067-3.589-36.179-2.433S28.2,46.834,16.109,48.1a32.022,32.022,0,0,1-5.8.217" transform="translate(-0.127 -0.717)" fill="#fdf3e9"/>
    <path id="Path_16389" data-name="Path 16389" d="M10.3,48.315a13.427,13.427,0,0,1-3.368-.671c-2.917-1.014-5.5-3.605-5.547-6.691-.046-3.183,2.443-5.731,4.323-8.3,3.664-5,5.393-11.075,8.731-16.267C18.134,10.655,23.4,8.35,30.17,9.032c4.139.418,13.4,1.257,17.505.631,4.952-.76,6.075-1.939,11.085-1.85,6.282.112,7.378,3.079,11.695,3.79,3.622.6,6.772-4.626,12.554-.405,4.135,3.015,3.578,10.074,6.081,11.786,1.468,1,2.778,5.018,4.2,6.084,2.565,1.923,6.133,4.25,6.726,7.922,1.291,7.976-3.526,8.461-5.35,11.381a20.031,20.031,0,0,1-4.023,3.049c-.833.371-1.313-5.4-2.186-5.666-11.645-3.513-24.067-3.589-36.179-2.433S28.2,46.834,16.109,48.1A32.022,32.022,0,0,1,10.3,48.315Z" transform="translate(-0.127 -0.717)" fill="none" stroke="#242ff8" stroke-miterlimit="10" stroke-width="2.777"/>
    <path id="Path_16390" data-name="Path 16390" d="M66.646,14.476A13.082,13.082,0,1,1,53.562,1.389,13.083,13.083,0,0,1,66.646,14.476" transform="translate(-3.717 -0.128)" fill="#faf3e9"/>
    <path id="Path_16391" data-name="Path 16391" d="M66.646,14.476A13.082,13.082,0,1,1,53.562,1.389,13.083,13.083,0,0,1,66.646,14.476" transform="translate(-3.717 -0.128)" fill="#fdf3e9"/>
    <path id="Path_16392" data-name="Path 16392" d="M66.646,14.476A13.082,13.082,0,1,1,53.562,1.389,13.083,13.083,0,0,1,66.646,14.476Z" transform="translate(-3.717 -0.128)" fill="none" stroke="#242ff8" stroke-miterlimit="10" stroke-width="2.777"/>
    <path id="Path_16393" data-name="Path 16393" d="M26.929,30.7A11.167,11.167,0,1,1,15.758,19.533,11.172,11.172,0,0,1,26.929,30.7" transform="translate(-0.422 -1.794)" fill="#e1e640"/>
    <path id="Path_16394" data-name="Path 16394" d="M26.929,30.7A11.167,11.167,0,1,1,15.758,19.533,11.172,11.172,0,0,1,26.929,30.7" transform="translate(-0.422 -1.794)" fill="#fdf3e9"/>
    <path id="Path_16395" data-name="Path 16395" d="M26.929,30.7A11.167,11.167,0,1,1,15.758,19.533,11.172,11.172,0,0,1,26.929,30.7Z" transform="translate(-0.422 -1.794)" fill="none" stroke="#242ff8" stroke-miterlimit="10" stroke-width="2.777"/>
    <path id="Path_16396" data-name="Path 16396" d="M104.283,30.686a9.872,9.872,0,1,1-9.874-9.874,9.872,9.872,0,0,1,9.874,9.874" transform="translate(-7.763 -1.911)" fill="#e1e640"/>
    <path id="Path_16397" data-name="Path 16397" d="M104.283,30.686a9.872,9.872,0,1,1-9.874-9.874,9.872,9.872,0,0,1,9.874,9.874" transform="translate(-7.763 -1.911)" fill="#fdf3e9"/>
    <path id="Path_16398" data-name="Path 16398" d="M104.283,30.686a9.872,9.872,0,1,1-9.874-9.874A9.872,9.872,0,0,1,104.283,30.686Z" transform="translate(-7.763 -1.911)" fill="none" stroke="#242ff8" stroke-miterlimit="10" stroke-width="2.157"/>
    <path id="Path_16399" data-name="Path 16399" d="M91.124,63.648a8.06,8.06,0,0,0,7.888-9.637,48.821,48.821,0,0,0-95.717,0,8.061,8.061,0,0,0,7.888,9.637Z" transform="translate(-0.288 -1.363)" fill="#242ff8"/>
    <line id="Line_556" data-name="Line 556" x1="19.296" y2="19.293" transform="translate(29.917 22.154)" fill="none" stroke="#fdf3e9" stroke-linecap="round" stroke-linejoin="round" stroke-width="2.777"/>
    <line id="Line_557" data-name="Line 557" x1="13.127" y2="13.127" transform="translate(57.784 33.51)" fill="none" stroke="#fdf3e9" stroke-linecap="round" stroke-linejoin="round" stroke-width="2.777"/>
    <line id="Line_558" data-name="Line 558" x1="7.757" y2="7.757" transform="translate(38.109 44.859)" fill="none" stroke="#fdf3e9" stroke-linecap="round" stroke-linejoin="round" stroke-width="2.777"/>
  </g>
</svg>
