<svg xmlns="http://www.w3.org/2000/svg" xmlns:xlink="http://www.w3.org/1999/xlink" width="92.601" height="88.941" viewBox="0 0 92.601 88.941"><defs><clipPath id="a"><rect width="92.601" height="88.941" transform="translate(0 0)" fill="#d1ff03"/></clipPath></defs><g transform="translate(0 0)"><g clip-path="url(#a)"><path d="M63.94,47.868A18.648,18.648,0,1,1,45.292,29.22,18.648,18.648,0,0,1,63.94,47.868" fill="#d1ff03"/><path d="M68.11,20.888c-16.955-4.941-14.145-19.5-35.483-19.5A23.157,23.157,0,0,0,9.813,23.513a23.746,23.746,0,0,0,.312,4.992A24.8,24.8,0,0,1,5.514,47.319a21.325,21.325,0,0,0,14.5,33.762q.719.091,1.425.134a19.985,19.985,0,0,1,9.592,3.023A21.188,21.188,0,0,0,42.44,87.552c14.486,0,13.239-9.85,26.087-12.544A28.762,28.762,0,0,0,91.184,45.829C90.63,33.123,81.077,24.666,68.11,20.888Z" fill="#d1ff03"/><path d="M32.627,0A34.755,34.755,0,0,1,40.7.847a22.406,22.406,0,0,1,5.948,2.3,33.186,33.186,0,0,1,8.025,6.95c3.375,3.654,6.866,7.432,13.828,9.461a44.757,44.757,0,0,1,9.286,3.825A32.819,32.819,0,0,1,85.3,29.04a25.716,25.716,0,0,1,5.142,7.5,25.27,25.27,0,0,1,2.135,9.231,29.419,29.419,0,0,1-1.538,10.812A30.354,30.354,0,0,1,68.812,76.367c-5.443,1.141-8.092,3.572-10.9,6.145C54.47,85.672,50.909,88.94,42.44,88.94a22.607,22.607,0,0,1-12.157-3.531A18.671,18.671,0,0,0,21.355,82.6c-.513-.032-1.023-.08-1.519-.143A22.706,22.706,0,0,1,4.395,46.5,23.5,23.5,0,0,0,8.756,28.74a25.2,25.2,0,0,1-.331-5.285,24.357,24.357,0,0,1,2.207-9.11,24.822,24.822,0,0,1,5.256-7.45A23.9,23.9,0,0,1,32.627,0ZM42.44,86.163c7.388,0,10.265-2.64,13.6-5.7,2.819-2.587,6.015-5.519,12.2-6.817A27.389,27.389,0,0,0,89.8,45.89c-.484-11.1-8.53-19.722-22.075-23.669A27.418,27.418,0,0,1,58.6,17.683a46.127,46.127,0,0,1-5.968-5.7c-4.562-4.938-8.5-9.2-20-9.2-11.3,0-20.914,9.33-21.427,20.8a22.4,22.4,0,0,0,.294,4.7,25.234,25.234,0,0,1-.41,10.429,26.82,26.82,0,0,1-4.451,9.441A19.763,19.763,0,0,0,2.8,60.852,20.091,20.091,0,0,0,20.183,79.7c.44.056.889.1,1.338.126a21.449,21.449,0,0,1,10.252,3.237A19.834,19.834,0,0,0,42.44,86.163Z" fill="#242ff8"/><circle cx="18.648" cy="18.648" r="18.648" transform="translate(26.644 29.22)" fill="#fff3e9"/><path d="M18.648-1.389a20.031,20.031,0,0,1,14.168,34.2A20.037,20.037,0,1,1,10.848.187,19.912,19.912,0,0,1,18.648-1.389Zm0,37.3a17.26,17.26,0,1,0-17.26-17.26A17.279,17.279,0,0,0,18.648,35.908Z" transform="translate(26.644 29.22)" fill="#242ff8"/><path d="M32.976,49.257a1.389,1.389,0,0,1-1.388-1.389,13.7,13.7,0,0,1,13.7-13.7,1.389,1.389,0,1,1,0,2.777A10.939,10.939,0,0,0,34.364,47.868,1.389,1.389,0,0,1,32.976,49.257Z" fill="#192bff"/></g></g></svg>