<svg xmlns="http://www.w3.org/2000/svg" width="1690" height="140.464" viewBox="0 0 1690 140.464">
  <path id="Path_16335" data-name="Path 16335" d="M0,133.124c13.2,0,13.2,7.34,26.405,7.34s13.2-7.34,26.4-7.34,13.2,7.34,26.4,7.34,13.2-7.34,26.4-7.34,13.2,7.34,26.4,7.34,13.2-7.34,26.4-7.34,13.2,7.34,26.4,7.34,13.2-7.34,26.4-7.34,13.2,7.34,26.4,7.34,13.2-7.34,26.406-7.34,13.2,7.34,26.4,7.34,13.2-7.34,26.4-7.34,13.2,7.34,26.405,7.34,13.2-7.34,26.4-7.34,13.2,7.34,26.407,7.34,13.2-7.34,26.4-7.34,13.2,7.34,26.407,7.34,13.2-7.34,26.4-7.34,13.2,7.34,26.406,7.34,13.2-7.34,26.4-7.34,13.2,7.34,26.407,7.34,13.2-7.34,26.4-7.34,13.2,7.34,26.407,7.34,13.2-7.34,26.405-7.34,13.2,7.34,26.4,7.34,13.2-7.34,26.406-7.34,13.2,7.34,26.406,7.34,13.2-7.34,26.405-7.34,13.2,7.34,26.408,7.34,13.2-7.34,26.406-7.34,13.2,7.34,26.4,7.34,13.2-7.34,26.406-7.34,13.2,7.34,26.406,7.34,13.2-7.34,26.4-7.34,13.2,7.34,26.407,7.34,13.2-7.34,26.4-7.34,13.2,7.34,26.407,7.34,13.2-7.34,26.4-7.34,13.2,7.34,26.4,7.34,13.2-7.34,26.4-7.34,13.2,7.34,26.4,7.34,13.2-7.34,26.406-7.34,13.2,7.34,26.409,7.34,13.2-7.34,26.406-7.34,13.2,7.34,26.405,7.34,13.2-7.34,26.405-7.34,13.2,7.34,26.407,7.34,13.2-7.34,26.407-7.34,13.2,7.34,26.409,7.34,13.2-7.34,26.408-7.34,13.2,7.34,26.409,7.34,13.2-7.34,26.408-7.34,13.2,7.34,26.409,7.34,13.2-7.34,26.409-7.34,13.2,7.34,26.409,7.34,13.2-7.34,26.405-7.34,13.2,7.34,26.408,7.34,13.2-7.34,26.409-7.34,13.206,7.34,26.411,7.34,13.206-7.34,26.412-7.34,13.206,7.34,26.411,7.34,13.207-7.34,26.412-7.34,13.208,7.34,26.417,7.34,13.208-7.34,26.417-7.34V0H0Z" fill="#192bff"/>
</svg>
