<svg xmlns="http://www.w3.org/2000/svg" xmlns:xlink="http://www.w3.org/1999/xlink" width="92" height="56.528" viewBox="0 0 92 56.528"><defs><clipPath id="a"><rect width="92" height="56.528" fill="none"/></clipPath></defs><g clip-path="url(#a)"><path d="M9.48,44.571a12.186,12.186,0,0,1-3.057-.609c-2.647-.921-5-3.272-5.034-6.072-.042-2.889,2.217-5.2,3.923-7.529,3.326-4.536,4.894-10.051,7.924-14.764,3.35-5.2,8.133-7.3,14.273-6.678,3.756.379,12.158,1.141,15.887.573,4.494-.69,5.513-1.76,10.06-1.679,5.7.1,6.7,2.794,10.614,3.439,3.287.541,6.146-4.2,11.393-.368,3.753,2.736,3.247,9.143,5.519,10.7,1.332.908,2.521,4.554,3.815,5.521,2.328,1.745,5.566,3.857,6.1,7.19,1.171,7.239-3.2,7.678-4.856,10.329A18.179,18.179,0,0,1,82.4,47.389c-.756.337-1.192-4.9-1.984-5.142-10.568-3.188-21.842-3.257-32.835-2.208s-21.851,3.188-32.829,4.335a29.062,29.062,0,0,1-5.268.2" transform="translate(-0.244 -1.373)" fill="#e1e640"/><path d="M9.48,44.571a12.186,12.186,0,0,1-3.057-.609c-2.647-.921-5-3.272-5.034-6.072-.042-2.889,2.217-5.2,3.923-7.529,3.326-4.536,4.894-10.051,7.924-14.764,3.35-5.2,8.133-7.3,14.273-6.678,3.756.379,12.158,1.141,15.887.573,4.494-.69,5.513-1.76,10.06-1.679,5.7.1,6.7,2.794,10.614,3.439,3.287.541,6.146-4.2,11.393-.368,3.753,2.736,3.247,9.143,5.519,10.7,1.332.908,2.521,4.554,3.815,5.521,2.328,1.745,5.566,3.857,6.1,7.19,1.171,7.239-3.2,7.678-4.856,10.329A18.179,18.179,0,0,1,82.4,47.389c-.756.337-1.192-4.9-1.984-5.142-10.568-3.188-21.842-3.257-32.835-2.208s-21.851,3.188-32.829,4.335a29.062,29.062,0,0,1-5.268.2" transform="translate(-0.244 -1.373)" fill="#d1ff03"/><path d="M82.326,48.793c-1.244,0-1.671-1.3-1.812-1.728-.172-.524-.328-1.192-.478-1.838-.123-.528-.313-1.343-.466-1.782a71.2,71.2,0,0,0-20.2-2.623c-3.628,0-7.443.2-11.665.6-5.713.547-11.5,1.405-17.1,2.235-5.136.761-10.447,1.549-15.713,2.1a37.969,37.969,0,0,1-4,.258c-.538,0-1.037-.019-1.526-.058a13.478,13.478,0,0,1-3.4-.681,9.771,9.771,0,0,1-4.086-2.729A7.164,7.164,0,0,1,0,37.909C-.041,35.028,1.738,32.73,3.308,30.7c.311-.4.6-.781.885-1.163a45.105,45.105,0,0,0,4.266-7.792,57.642,57.642,0,0,1,3.61-6.9A15.15,15.15,0,0,1,25.476,7.425c.7,0,1.433.038,2.173.112,4.986.5,9.179.769,12.127.769a24.072,24.072,0,0,0,3.411-.188,34.052,34.052,0,0,0,3.891-.846,20.015,20.015,0,0,1,5.9-.853c.163,0,.332,0,.5,0a13.976,13.976,0,0,1,7.358,2.088A10.143,10.143,0,0,0,64.3,9.883a1.95,1.95,0,0,0,.315.025,6.743,6.743,0,0,0,2.441-.76A10.565,10.565,0,0,1,71.4,7.988a8.171,8.171,0,0,1,4.884,1.776c2.489,1.815,3.356,4.856,4.052,7.3.4,1.393.847,2.973,1.432,3.373a9.445,9.445,0,0,1,2.4,3.295,9.933,9.933,0,0,0,1.465,2.261q.3.225.616.457a25.98,25.98,0,0,1,3.585,3.01,8.709,8.709,0,0,1,2.442,4.613,10.445,10.445,0,0,1-.627,6.425A10.039,10.039,0,0,1,88.8,43.772a7.413,7.413,0,0,0-1.575,1.586c-.114.183-.383.615-2.081,1.873a17.921,17.921,0,0,1-2.182,1.426A1.55,1.55,0,0,1,82.326,48.793ZM59.374,38.045a73.471,73.471,0,0,1,21.439,2.872c1.153.348,1.461,1.674,1.929,3.68.054.231.121.52.192.805a17.057,17.057,0,0,0,1.961-1.556,9.8,9.8,0,0,1,2.121-2.2c1.734-1.453,3.231-2.707,2.516-7.128-.4-2.485-2.81-4.263-4.935-5.832-.216-.159-.427-.315-.631-.468a9.876,9.876,0,0,1-2.238-3.153A9.777,9.777,0,0,0,80.2,22.729c-1.414-.967-1.959-2.88-2.536-4.9-.61-2.14-1.3-4.566-3.018-5.818A5.521,5.521,0,0,0,71.4,10.765a8.15,8.15,0,0,0-3.231.926,8.878,8.878,0,0,1-3.556.994,4.734,4.734,0,0,1-.766-.062A12.7,12.7,0,0,1,59.5,10.945,11.309,11.309,0,0,0,53.432,9.2c-.153,0-.306,0-.453,0a17.49,17.49,0,0,0-5.191.761,36.89,36.89,0,0,1-4.182.906,26.306,26.306,0,0,1-3.831.22c-3.84,0-8.866-.426-12.406-.783-.648-.065-1.285-.1-1.894-.1A12.371,12.371,0,0,0,14.4,16.348a54.718,54.718,0,0,0-3.429,6.573,47.884,47.884,0,0,1-4.543,8.26c-.3.411-.62.823-.928,1.221-1.416,1.829-2.754,3.557-2.726,5.467.032,2.316,2.149,4.1,4.1,4.781a10.748,10.748,0,0,0,2.708.536c.418.033.845.049,1.309.049a35.543,35.543,0,0,0,3.707-.243c5.206-.544,10.487-1.327,15.594-2.084,5.635-.835,11.462-1.7,17.247-2.253C51.755,38.245,55.657,38.045,59.374,38.045Z" transform="translate(-0.244 -1.373)" fill="#242ff8"/><path d="M64.227,13.266A11.873,11.873,0,1,1,52.352,1.389,11.874,11.874,0,0,1,64.227,13.266" transform="translate(-7.116 -0.244)" fill="#faf3e9"/><path d="M64.227,13.266A11.873,11.873,0,1,1,52.352,1.389,11.874,11.874,0,0,1,64.227,13.266" transform="translate(-7.116 -0.244)" fill="#d1ff03"/><path d="M52.352,26.529A13.265,13.265,0,0,1,42.977,3.887a13.261,13.261,0,0,1,22.639,9.379A13.262,13.262,0,0,1,52.352,26.529Zm0-23.752A10.487,10.487,0,1,0,62.839,13.266,10.5,10.5,0,0,0,52.352,2.777Z" transform="translate(-7.116 -0.244)" fill="#242ff8"/><path d="M24.864,29.668A10.135,10.135,0,1,1,14.726,19.533,10.139,10.139,0,0,1,24.864,29.668" transform="translate(-0.808 -3.434)" fill="#e1e640"/><path d="M24.864,29.668A10.135,10.135,0,1,1,14.726,19.533,10.139,10.139,0,0,1,24.864,29.668" transform="translate(-0.808 -3.434)" fill="#d1ff03"/><path d="M14.726,18.145A11.522,11.522,0,1,1,6.579,21.52,11.538,11.538,0,0,1,14.726,18.145Zm0,20.27a8.747,8.747,0,1,0-8.744-8.747A8.758,8.758,0,0,0,14.726,38.415Z" transform="translate(-0.808 -3.434)" fill="#242ff8"/><path d="M102.458,29.773A8.959,8.959,0,1,1,93.5,20.812a8.96,8.96,0,0,1,8.961,8.961" transform="translate(-14.86 -3.658)" fill="#e1e640"/><path d="M102.458,29.773A8.959,8.959,0,1,1,93.5,20.812a8.96,8.96,0,0,1,8.961,8.961" transform="translate(-14.86 -3.658)" fill="#d1ff03"/><path d="M93.5,39.809a10.038,10.038,0,1,1,10.039-10.036A10.048,10.048,0,0,1,93.5,39.809Zm0-17.919a7.881,7.881,0,1,0,7.882,7.882A7.89,7.89,0,0,0,93.5,21.89Z" transform="translate(-14.86 -3.658)" fill="#242ff8"/><path d="M82.99,59.136A7.315,7.315,0,0,0,90.15,50.39a44.308,44.308,0,0,0-86.869,0,7.316,7.316,0,0,0,7.159,8.746Z" transform="translate(-0.551 -2.608)" fill="#242ff8"/><path d="M0,18.9a1.384,1.384,0,0,1-.982-.407,1.389,1.389,0,0,1,0-1.964L16.531-.982a1.388,1.388,0,0,1,1.964,0,1.389,1.389,0,0,1,0,1.964L.982,18.492A1.384,1.384,0,0,1,0,18.9Z" transform="translate(27.151 20.106)" fill="#e1e640"/><path d="M0,13.3A1.384,1.384,0,0,1-.982,12.9a1.388,1.388,0,0,1,0-1.964L10.932-.982a1.388,1.388,0,0,1,1.964,0,1.388,1.388,0,0,1,0,1.964L.982,12.9A1.384,1.384,0,0,1,0,13.3Z" transform="translate(52.443 30.412)" fill="#e1e640"/><path d="M0,8.428a1.384,1.384,0,0,1-.982-.407,1.388,1.388,0,0,1,0-1.964l7.04-7.04a1.388,1.388,0,0,1,1.964,0,1.389,1.389,0,0,1,0,1.964L.982,8.022A1.384,1.384,0,0,1,0,8.428Z" transform="translate(34.586 40.713)" fill="#e1e640"/></g></svg>