<svg xmlns="http://www.w3.org/2000/svg" xmlns:xlink="http://www.w3.org/1999/xlink" width="91.361" height="72.644" viewBox="0 0 91.361 72.644"><defs><clipPath id="a"><rect width="91.361" height="72.644" fill="none"/></clipPath></defs><g transform="translate(0 0)" clip-path="url(#a)"><path d="M45.684,1.389C23.9,1.389,11.473,8.563,5.611,13.352a12.092,12.092,0,0,0-4.22,9.4v6.692a1.829,1.829,0,0,0,1.722,1.918H88.254a1.826,1.826,0,0,0,1.719-1.918V22.752a12.089,12.089,0,0,0-4.22-9.4C79.895,8.563,67.468,1.389,45.684,1.389" transform="translate(0 0)" fill="#d1ff03"/><path d="M45.684,0A77.318,77.318,0,0,1,72.166,4.27a49.783,49.783,0,0,1,14.466,8.007,12.62,12.62,0,0,1,3.505,4.637,14.428,14.428,0,0,1,1.224,5.838v6.692a3.215,3.215,0,0,1-3.107,3.306H3.113A3.217,3.217,0,0,1,0,29.444V22.752a14.427,14.427,0,0,1,1.225-5.838,12.628,12.628,0,0,1,3.506-4.638A49.837,49.837,0,0,1,19.2,4.27,77.324,77.324,0,0,1,45.684,0Zm42.57,29.973c.135,0,.33-.206.33-.529V22.752a10.741,10.741,0,0,0-3.709-8.324C79.552,10.076,67.384,2.778,45.684,2.778s-33.869,7.3-39.195,11.65a10.744,10.744,0,0,0-3.71,8.325v6.692c0,.323.2.529.333.529Z" transform="translate(0 0)" fill="#d1ff03"/><path d="M45.33,71.255c21.61,0,33.935-4.589,39.754-7.645,2.66-1.4,4.183-3.637,4.183-6.011V56.417c0-.674-.761-1.225-1.7-1.225H3.1c-.943,0-1.708.551-1.708,1.225V57.6c0,2.374,1.526,4.608,4.187,6.011,5.815,3.056,18.141,7.645,39.754,7.645" transform="translate(0 0)" fill="#d1ff03"/><path d="M45.33,72.644A115.129,115.129,0,0,1,19.211,69.93,61.585,61.585,0,0,1,4.93,64.839C1.843,63.211,0,60.505,0,57.6V56.417A2.855,2.855,0,0,1,3.1,53.8H87.563a2.852,2.852,0,0,1,3.093,2.613V57.6a7.3,7.3,0,0,1-1.341,4.16,10.008,10.008,0,0,1-3.583,3.079A60.794,60.794,0,0,1,71.446,69.93,115.114,115.114,0,0,1,45.33,72.644ZM2.777,56.638V57.6c0,1.857,1.288,3.645,3.446,4.783,5.318,2.795,17.472,7.485,39.106,7.485s33.785-4.69,39.108-7.486c2.153-1.136,3.44-2.924,3.44-4.782v-.962a.834.834,0,0,0-.316-.056H3.1A.839.839,0,0,0,2.777,56.638Z" transform="translate(0 0)" fill="#d1ff03"/><path d="M82.682,55.267h-74a5.592,5.592,0,0,1-5.594-5.594v-.735a5.589,5.589,0,0,1,5.594-5.594h74a5.592,5.592,0,0,1,5.594,5.594v.735a5.6,5.6,0,0,1-5.594,5.594" transform="translate(0 0)" fill="#192bff"/><path d="M5.594-1.389h74a6.99,6.99,0,0,1,6.982,6.983v.735a6.99,6.99,0,0,1-6.982,6.983h-74A6.99,6.99,0,0,1-1.388,6.329V5.594A6.99,6.99,0,0,1,5.594-1.389Zm74,11.923A4.21,4.21,0,0,0,83.8,6.329V5.594a4.21,4.21,0,0,0-4.205-4.206h-74A4.21,4.21,0,0,0,1.389,5.594v.735a4.21,4.21,0,0,0,4.205,4.206Z" transform="translate(3.091 43.344)" fill="#d1ff03"/><path d="M82.93,31.272H8.436c-2.951,0-5.343,2.668-5.343,5.963s2.392,5.96,5.343,5.96h15.61a7.236,7.236,0,0,1,6.119,3.238,4.643,4.643,0,0,0,7.972,0,7.238,7.238,0,0,1,6.119-3.238c3.644,0,6.794,2.277,8.947,5.554a7.935,7.935,0,0,0,13.606,0c2.15-3.277,5.3-5.554,8.943-5.554H82.93c2.951,0,5.347-2.668,5.347-5.96s-2.4-5.963-5.347-5.963" transform="translate(0 0)" fill="#192bff"/><path d="M8.436,29.884H82.93c3.714,0,6.736,3.3,6.736,7.351s-3.022,7.348-6.736,7.348H75.752c-2.891,0-5.728,1.8-7.782,4.927a10.254,10.254,0,0,1-3.4,3.241,9.058,9.058,0,0,1-9.135,0,10.233,10.233,0,0,1-3.394-3.24c-1.209-1.84-3.829-4.928-7.787-4.928A5.858,5.858,0,0,0,39.3,47.191a6.03,6.03,0,0,1-10.3,0,5.857,5.857,0,0,0-4.957-2.609H8.436a6.417,6.417,0,0,1-4.812-2.207,7.849,7.849,0,0,1,0-10.285A6.416,6.416,0,0,1,8.436,29.884ZM82.93,41.806c2.183,0,3.959-2.051,3.959-4.571S85.113,32.66,82.93,32.66H8.436c-2.181,0-3.955,2.052-3.955,4.575s1.774,4.571,3.955,4.571h15.61a8.623,8.623,0,0,1,7.283,3.869,3.258,3.258,0,0,0,5.647,0,8.623,8.623,0,0,1,7.28-3.865,10.522,10.522,0,0,1,5.787,1.771,14.938,14.938,0,0,1,4.32,4.409,6.55,6.55,0,0,0,11.286,0,14.911,14.911,0,0,1,4.318-4.408,10.518,10.518,0,0,1,5.785-1.771Z" transform="translate(0 0)" fill="#d1ff03"/><path d="M22.439,15.921c0,.921-1.494,1.668-3.335,1.668s-3.335-.747-3.335-1.668,1.493-1.667,3.335-1.667,3.335.746,3.335,1.667" transform="translate(0 0)" fill="#192bff"/><path d="M39.924,15.921c0,.921-1.494,1.668-3.335,1.668s-3.335-.747-3.335-1.668,1.49-1.667,3.335-1.667,3.335.746,3.335,1.667" transform="translate(0 0)" fill="#192bff"/><path d="M57.4,15.921c0,.921-1.494,1.668-3.335,1.668s-3.335-.747-3.335-1.668,1.494-1.667,3.335-1.667S57.4,15,57.4,15.921" transform="translate(0 0)" fill="#192bff"/><path d="M74.887,15.921c0,.921-1.49,1.668-3.335,1.668s-3.335-.747-3.335-1.668,1.493-1.667,3.335-1.667,3.335.746,3.335,1.667" transform="translate(0 0)" fill="#192bff"/><path d="M31.179,23.257c0,.924-1.49,1.668-3.335,1.668s-3.332-.744-3.332-1.668,1.49-1.664,3.332-1.664,3.335.743,3.335,1.664" transform="translate(0 0)" fill="#192bff"/><path d="M48.665,23.257c0,.924-1.494,1.668-3.335,1.668s-3.336-.744-3.336-1.668,1.494-1.664,3.336-1.664,3.335.743,3.335,1.664" transform="translate(0 0)" fill="#192bff"/><path d="M66.146,23.257c0,.924-1.494,1.668-3.335,1.668s-3.335-.744-3.335-1.668,1.493-1.664,3.335-1.664,3.335.743,3.335,1.664" transform="translate(0 0)" fill="#192bff"/><path d="M31.179,8.583c0,.921-1.49,1.668-3.335,1.668S24.512,9.5,24.512,8.583,26,6.916,27.844,6.916s3.335.746,3.335,1.667" transform="translate(0 0)" fill="#192bff"/><path d="M48.665,8.583c0,.921-1.494,1.668-3.335,1.668S41.994,9.5,41.994,8.583s1.494-1.667,3.336-1.667,3.335.746,3.335,1.667" transform="translate(0 0)" fill="#192bff"/><path d="M66.146,8.583c0,.921-1.494,1.668-3.335,1.668S59.476,9.5,59.476,8.583s1.493-1.667,3.335-1.667,3.335.746,3.335,1.667" transform="translate(0 0)" fill="#192bff"/></g></svg>