<svg xmlns="http://www.w3.org/2000/svg" xmlns:xlink="http://www.w3.org/1999/xlink" width="150" height="66.649" viewBox="0 0 150 66.649">
  <defs>
    <clipPath id="clip-path">
      <rect id="Rectangle_2228" data-name="Rectangle 2228" width="150" height="66.649" fill="none"/>
    </clipPath>
  </defs>
  <g id="Group_35661" data-name="Group 35661" transform="translate(0 0)">
    <g id="Group_35660" data-name="Group 35660" transform="translate(0 0)" clip-path="url(#clip-path)">
      <path id="Path_16336" data-name="Path 16336" d="M66.941,63.789a41.29,41.29,0,0,1-6.056,3.854,12.85,12.85,0,0,1-10.118.68,12.672,12.672,0,0,1-8.333-14.491,7.858,7.858,0,0,1,3.862-5.4,33.783,33.783,0,0,1,5.187-2.356c4-1.528,8.08-2.825,12.2-4,2.39-.686,3.1-1.65,3.062-4.1a12.961,12.961,0,0,0-.343-2.685,7.7,7.7,0,0,0-8.767-6A5.519,5.519,0,0,0,53.038,33.6c-.4,1.812-.718,3.641-1.125,5.448-.493,2.19-2.12,2.715-3.754,1.211a31.564,31.564,0,0,1-4.44-4.824c-1.325-1.859-1.124-3.216.735-4.479,5.027-3.423,10.325-6.443,16.368-7.471,8.471-1.44,17.549,2.965,17.867,14.413.16,5.754-.366,11.5-.546,17.257a8.77,8.77,0,0,0,.163,2.555,6.952,6.952,0,0,0,3.737,4.622c.722.361,1.494.622,2.222.97,1.561.746,1.716,2.236.285,3.23a13.628,13.628,0,0,1-9.086,2.288,14.911,14.911,0,0,1-1.976-.281,8.875,8.875,0,0,1-6.547-4.748m-.385-14.048c0-.475.026-.95.04-1.425.076-2.631.074-2.637-2.427-1.669a38.247,38.247,0,0,0-6.558,3.1A5.578,5.578,0,0,0,54.8,53.513,6.749,6.749,0,0,0,62.479,61.5a4.307,4.307,0,0,0,3.977-4.492c.016-1.566.092-6.41.1-7.264" transform="translate(-4.393 -2.419)" fill="#faf1e7"/>
      <path id="Path_16337" data-name="Path 16337" d="M6.9,32.379c0-2.434-.734-3.323-3.114-3.832-.6-.131-1.215-.227-1.809-.4A2.518,2.518,0,0,1,.012,25.391a2.535,2.535,0,0,1,2.428-2.375,28.721,28.721,0,0,1,3.567-.022c.813.04,1.153-.245,1.37-1.039.563-2.062,1.165-4.118,1.888-6.129a9.834,9.834,0,0,1,6.793-6.382c2.17-.646,3.712.519,3.658,2.781-.076,3.138-.215,6.274-.327,9.413-.048,1.323-.052,1.335,1.284,1.339,2.855.008,5.708,0,8.563,0,.332,0,.667-.013,1,.005a2.518,2.518,0,0,1,2.627,2.3,2.436,2.436,0,0,1-2.326,2.565c-1.316.2-2.639.339-3.962.483a7.79,7.79,0,0,0-7.251,7.654c-.114,6.181-.1,12.365-.052,18.549.028,3.152,1.233,4.443,4.339,5.028a12.344,12.344,0,0,0,6.039-.585c.361-.115.712-.279,1.079-.365a2.184,2.184,0,0,1,2.7,2.846,3.966,3.966,0,0,1-1.091,1.648,15.263,15.263,0,0,1-9.263,4.318,20.179,20.179,0,0,1-7.788-.432c-5.363-1.441-8.046-4.666-8.267-10.362C6.855,52.5,6.907,36.327,6.9,32.379" transform="translate(0 -0.965)" fill="#faf1e7"/>
      <path id="Path_16338" data-name="Path 16338" d="M112.472,31.452a3.946,3.946,0,0,0,1.035-1.135,20.552,20.552,0,0,1,6.11-5.5A11.234,11.234,0,0,1,128,23.509a6.682,6.682,0,0,1,1.464.547,2.477,2.477,0,0,1,1.391,2.847,41.969,41.969,0,0,1-3.705,10.606c-.847,1.666-2.4,1.726-3.467.188a33.905,33.905,0,0,1-2.123-3.875c-.868-1.7-1.99-2.168-3.754-1.458a7.947,7.947,0,0,0-5.071,6.549,10.823,10.823,0,0,0-.082,1.707q-.009,8.992,0,17.983c0,2.316.434,2.874,2.69,3.511,1.647.466,3.3.919,4.941,1.4,1.41.415,2.04,1.249,1.887,2.442-.146,1.163-1,1.828-2.476,1.83q-11.348.019-22.693,0c-1.42,0-2.272-.574-2.533-1.621-.29-1.157.173-2,1.512-2.727a14.071,14.071,0,0,1,1.653-.844c1.82-.686,2.422-1.99,2.416-3.892-.018-6.089.094-12.176.157-18.266.012-1.237.025-2.473.028-3.71a6,6,0,0,0-3.287-5.6c-.084-.047-.167-.092-.25-.136a2.335,2.335,0,0,1-1.4-2.428,2.378,2.378,0,0,1,1.822-2.14c2.392-.8,4.822-1.459,7.277-2.035,1.343-.313,2.688-.617,4.048-.838,2.107-.339,3.156.455,3.459,2.548.128.892.214,1.8.311,2.691.086.832.16,1.666.254,2.657" transform="translate(-9.831 -2.416)" fill="#faf1e7"/>
      <path id="Path_16339" data-name="Path 16339" d="M158.208,59.093a3.08,3.08,0,0,0,2.37,3.272,23.911,23.911,0,0,1,2.4.9,2.415,2.415,0,0,1,1.576,2.719,2.33,2.33,0,0,1-2.491,1.9q-9.7-.087-19.408-.013A2.177,2.177,0,0,1,140.31,66.2,2.277,2.277,0,0,1,141.6,63.48c.749-.413,1.524-.782,2.29-1.157a2.718,2.718,0,0,0,1.658-2.6q.284-11.769.185-23.54a6.311,6.311,0,0,0-3.43-5.706,3.382,3.382,0,0,1-1.512-1.245,2.294,2.294,0,0,1,1.533-3.367c1.974-.523,3.978-.95,5.982-1.341a58.6,58.6,0,0,1,6.626-.993c2.086-.163,3.138.808,3.144,2.884.012,5.469,0,27.253.13,32.675" transform="translate(-14.606 -2.45)" fill="#faf1e7"/>
      <path id="Path_16340" data-name="Path 16340" d="M151.125,15.4a1.822,1.822,0,0,1-1.181-.439,21.7,21.7,0,0,1-5.288-5.741,1.928,1.928,0,0,1,.026-2.272,25.989,25.989,0,0,1,6.145-6.5A1.871,1.871,0,0,1,153.315.5a21.547,21.547,0,0,1,5.172,5.844,2.053,2.053,0,0,1-.1,2.3,24.639,24.639,0,0,1-6.065,6.374,1.784,1.784,0,0,1-1.2.385" transform="translate(-15.03 0)" fill="#faf1e7"/>
    </g>
  </g>
</svg>
