<svg xmlns="http://www.w3.org/2000/svg" xmlns:xlink="http://www.w3.org/1999/xlink" width="138.573" height="139.834" viewBox="0 0 138.573 139.834"><defs><clipPath id="a"><rect width="138.573" height="139.834" fill="#192bff"/></clipPath></defs><g clip-path="url(#a)"><path d="M97.15,42.3a2.445,2.445,0,0,0-.779-2.647,8.956,8.956,0,0,0-1.853-1.269c-1.749-.831-3.539-1.573-5.307-2.361a10.408,10.408,0,0,1-1.2-.637.528.528,0,0,1-.2-.408,6.978,6.978,0,0,1,.716-2.934,5.215,5.215,0,0,0,.328-.719.735.735,0,0,0-.554-1.072,2.624,2.624,0,0,0-2.981,1.341A24.053,24.053,0,0,0,84.3,34.551c-.156.511-.629.476-1.035.718a2.991,2.991,0,0,0-1.046,1.119c-1.067,1.9-1.118,4.562-1.3,6.69-.2,2.34-.271,4.689-.4,7.033-.195,3.512-.333,7.028-.249,10.545,0,.1-.01.205-.02.383,0,.056-3.454-.387-3.8-.45-5.45-.972-10.674-3.149-16.235-3.479a24.281,24.281,0,0,0-14.628,3.552c-.483.315-.965.635-1.45.953-.1-.082-.186-.157-.276-.232a3.914,3.914,0,0,0-5.386.6,6.622,6.622,0,0,0-1.486,4.3c-.048,2.442.954,5.722,3.736,6.19.663.112,1.017-.338.8-.961-.107-.308-.228-.613-.328-.925a4.254,4.254,0,0,1-.172-1.069,4.395,4.395,0,0,1,.06-1.05c.148.52.278,1.049.474,1.551s.422.969.655,1.445q.646,1.32,1.3,2.636a16.684,16.684,0,0,1,1.845,10.438c-.452,2.658-1.734,5.077-2.071,7.773a6.956,6.956,0,0,0,.554,4.236,4.893,4.893,0,0,1,.493,1.3c.262,1.37.517,2.744.684,4.128.235,1.933.388,3.876.58,5.813a2.193,2.193,0,0,0,.357,1.3c.734.873,1.472,1.744,2.241,2.587a1.211,1.211,0,0,0,.678.307,14.358,14.358,0,0,0,3.987-.076.465.465,0,0,0,.4-.7,2.824,2.824,0,0,0-.432-.731c-.826-1.009-1.671-2-2.5-3a4.273,4.273,0,0,1-.785-1.054,18.6,18.6,0,0,1-.926-4.555c-.159-1.322-.253-2.653-.363-3.982a9.956,9.956,0,0,1,.1-3.408,8.488,8.488,0,0,1,.818-2.353q1.33-2.184,2.613-4.394a43.069,43.069,0,0,0,3.222-6.291,18,18,0,0,0,1.253-4.734c.034-.363.07-.729.106-1.094.029,0,.06,0,.089-.009.069.1.139.208.206.313.483.746.916,1.53,1.456,2.233,4.013,5.221,9.557,6.552,15.419,8.708,2.184.8,2.15,5.08,2.328,6.968a51.447,51.447,0,0,1,.014,8.5c-.084,1.14-.2,2.279-.305,3.418a18.862,18.862,0,0,1-.233,2.017,1.29,1.29,0,0,0,.174.985,2.967,2.967,0,0,0,.209.319c.656.805,1.31,1.611,1.979,2.4a1.117,1.117,0,0,0,.483.337,3.593,3.593,0,0,0,.9.174c1.141.069,2.281.13,3.425.167.571.018.726-.264.464-.772a2.694,2.694,0,0,0-.212-.354c-.807-1.114-1.58-2.256-2.44-3.329a2.109,2.109,0,0,1-.427-1.619c.418-5.369.78-10.748,1.371-16.1a6.445,6.445,0,0,1,1.758-3.446c.9-1.163,1.774-2.34,2.619-3.539a58.848,58.848,0,0,0,4.566-7.51,27.283,27.283,0,0,0,3.009-10.295,32.065,32.065,0,0,0-1.157-9.88c-.769-3.071-1.939-6.122-1.793-9.338.01-.225.049-.354.3-.379q1.436-.147,2.87-.31c.925-.106,1.853-.195,2.77-.342a1,1,0,0,0,.88-1.017c.015-.19-.009-.382,0-.571A4.983,4.983,0,0,1,97.15,42.3M89.366,54.9a.566.566,0,0,1,0-1.131.566.566,0,0,1,0,1.131m-.793-16.578a.515.515,0,0,1,.057,0l.039,0,.009,0,.028.007.073.022.008,0,.025.008.032.016a1.934,1.934,0,0,1,.6.551h0l0,.007c.005.01.01.018.014.028l0,.009a.183.183,0,0,1,.011.026l0,.011a.161.161,0,0,1,0,.029l0,.008v.076l0,.015-.005.021,0,.01a.236.236,0,0,1-.013.034l0,0a.287.287,0,0,1-.147.144h0l-.017.007-.014,0h0a4.59,4.59,0,0,1-.476.108c-.1.02-.2.035-.3.05l-.019,0-.016,0a3.671,3.671,0,0,1-.372.034.044.044,0,0,1-.016,0h0c-.012,0-.023,0-.035,0h-.006a.075.075,0,0,1-.016,0,.115.115,0,0,1-.028-.006l-.019-.007-.085-.026-.01,0-.015-.006-.01,0-.02-.01-.007,0c-.108-.064-.527-.356-.6-.606l0-.009a.277.277,0,0,1,0-.143l0-.012v-.005a.29.29,0,0,1,.161-.192l.008,0,.026-.01h0c.091-.028.212-.057.344-.086h.009a4.809,4.809,0,0,1,.8-.1m-1.3-6.825a.228.228,0,1,1,.322.323,6.471,6.471,0,0,0-1.061,2.544.227.227,0,0,1-.455,0A6.745,6.745,0,0,1,87.273,31.5M85.811,52.68l.018-.112a.234.234,0,0,1,.082-.137l.008-.005a1.744,1.744,0,0,1,.268-.169l.025-.013c.015-.006.028-.015.044-.022l.057-.026.013,0c.065-.03.131-.056.2-.08a.062.062,0,0,0,.019-.007c.008,0,.016,0,.022-.007a1.034,1.034,0,0,1,.366-.06.219.219,0,0,1,.12.048l.015.01.043.034a.2.2,0,0,1,.055.062,2.891,2.891,0,0,1,.347.98.217.217,0,0,1,0,.045c0,.015,0,.029-.007.044l-.025.1a.223.223,0,0,1-.086.126,2.178,2.178,0,0,1-.427.242l-.019.008,0,0a2.067,2.067,0,0,1-.51.147l-.026,0a.235.235,0,0,1-.146-.054l-.08-.067a.205.205,0,0,1-.048-.057,2.89,2.89,0,0,1-.306-.8,1.092,1.092,0,0,1-.021-.2.164.164,0,0,1,0-.038m-1.9-1.763a.566.566,0,0,1,0,1.131.566.566,0,0,1,0-1.131M76.835,65.853a3.2,3.2,0,0,1,1.006-.844.24.24,0,0,1,.033-.015.443.443,0,0,1,.279-.018l.013.005a.169.169,0,0,1,.024.008h0L78.2,65a.175.175,0,0,1,.024.011.076.076,0,0,1,.018.009l.019.009a.085.085,0,0,1,.014.009l.019.014.006.006a.269.269,0,0,1,.027.02c.04.036.083.078.128.125a4.663,4.663,0,0,1,.655.87c.027.05.055.1.079.15l.006.009a.455.455,0,0,1,.037.117c0,.015,0,.032,0,.047v.023l0,.008v0a.437.437,0,0,1-.095.3,2.279,2.279,0,0,1-.162.185,3.645,3.645,0,0,1-.69.578c-.048.032-.1.059-.144.085a.447.447,0,0,1-.2.051l-.037,0a.41.41,0,0,1-.127-.029l-.025-.01-.022-.01a.432.432,0,0,1-.114-.077c-.041-.038-.092-.089-.147-.148l0,0h0a4.307,4.307,0,0,1-.583-.777,1.5,1.5,0,0,1-.109-.24.053.053,0,0,1,0-.018l-.007-.022c0-.014-.006-.028-.008-.043v0l-.009-.065a.457.457,0,0,1,0-.128.42.42,0,0,1,.082-.193m-.607,5.11c.068-.089.146-.18.23-.273a5.865,5.865,0,0,1,.863-.762.269.269,0,0,1,.027-.02l.024-.017a2.641,2.641,0,0,1,.48-.276l.029-.011a.57.57,0,0,1,.342-.007l.038.011.014.007a.622.622,0,0,1,.136.077c.011.01.023.018.033.026l.036.034a7.018,7.018,0,0,1,1.331,1.779.583.583,0,0,1,.037.1l0,.014a.081.081,0,0,1,0,.019.416.416,0,0,1,.015.1l0,.057v.06a.588.588,0,0,1-.12.325,5.986,5.986,0,0,1-1.065,1.014l-.054.041-.005,0a3.63,3.63,0,0,1-.449.282c-.02.01-.042.019-.063.028a.563.563,0,0,1-.2.035.553.553,0,0,1-.216-.041l-.041-.016a.577.577,0,0,1-.175-.111A7.44,7.44,0,0,1,76.5,72.24a2.951,2.951,0,0,1-.337-.644.42.42,0,0,1-.022-.093l0-.017-.014-.107a.479.479,0,0,1,0-.107v0c0-.014,0-.029,0-.043v-.012a.565.565,0,0,1,.1-.235.1.1,0,0,1,.01-.015m.092,5.116c0-.011,0-.022.007-.033l0-.007a.379.379,0,0,1,.048-.114v0c0-.008.01-.014.014-.022l.009-.013a3.09,3.09,0,0,1,.326-.353l.015-.016a.109.109,0,0,0,.019-.018,2.662,2.662,0,0,1,.679-.474A.468.468,0,0,1,77.523,75a.441.441,0,0,1,.235.021l.027.011a.475.475,0,0,1,.114.074,4.4,4.4,0,0,1,.822,1.068c.014.025.026.051.04.074a.538.538,0,0,1,.028.07l0,.015,0,.014a.636.636,0,0,1,.013.074v.05a.446.446,0,0,1-.01.105l0,.007a.3.3,0,0,1-.007.032.449.449,0,0,1-.074.138,3.472,3.472,0,0,1-.433.448,3.09,3.09,0,0,1-.532.385.258.258,0,0,1-.033.017.425.425,0,0,1-.2.052.461.461,0,0,1-.154-.029l-.012,0-.025-.01-.02-.009a.428.428,0,0,1-.084-.051.142.142,0,0,1-.03-.025l-.01-.009a4,4,0,0,1-.8-1.085.62.62,0,0,1-.031-.077v0a.306.306,0,0,1-.011-.036c0-.013,0-.027,0-.041l-.006-.04,0-.027a.343.343,0,0,1,0-.044.485.485,0,0,1,0-.085m-4.306-5.938,1.963-1.757L72.7,66.633a1.1,1.1,0,0,1,.135-1.442c.336-.317,1.179-1.105,1.746-1.578a.867.867,0,0,1,1.112,1.331c-.371.308-.876.767-1.258,1.123l1.284,1.761a1.091,1.091,0,0,1-.154,1.462l-2.04,1.827,1.219,2.616a1.092,1.092,0,0,1-.431,1.4l-2.7,1.611a.867.867,0,1,1-.888-1.49l2.206-1.316L71.752,71.42a1.088,1.088,0,0,1,.262-1.279m-6.37-7.986a3.191,3.191,0,0,1,1.007-.869l.017-.008a.25.25,0,0,1,.038-.015.437.437,0,0,1,.279,0,.519.519,0,0,1,.1.05l.009.006.01.008a.1.1,0,0,1,.021.017c.017.013.033.029.051.045a4.524,4.524,0,0,1,.833,1.086.464.464,0,0,1,.041.115V62.6l0,.019,0,.026v.009l0,.026c0,.013,0,.026,0,.04a.434.434,0,0,1-.09.257v0a3.7,3.7,0,0,1-.911.825l-.007,0-.066.037a.428.428,0,0,1-.209.054.461.461,0,0,1-.159-.029l-.023-.01-.03-.012-.009,0-.009-.006c-.008,0-.018-.009-.026-.015l-.015-.01a.033.033,0,0,1-.017-.012.064.064,0,0,1-.013-.01l-.018-.014a4.357,4.357,0,0,1-.77-.955,1.544,1.544,0,0,1-.094-.2l0-.014-.008-.029,0-.022,0-.018,0-.016-.007-.05a.459.459,0,0,1,.014-.2.434.434,0,0,1,.063-.123m-.619,5.009a2.61,2.61,0,0,1,.231-.261,3.609,3.609,0,0,1,.465-.4l.014-.009c.018-.014.038-.028.057-.041l.025-.015.047-.031.026-.015c.015-.007.028-.016.042-.024l.014-.007a.983.983,0,0,1,.118-.058.278.278,0,0,1,.037-.014.457.457,0,0,1,.276.008l0,0a.278.278,0,0,1,.067.033l.006,0a.074.074,0,0,1,.015.008l.02.013,0,0,.029.023c.063.058.134.128.207.21a4.535,4.535,0,0,1,.658.937.413.413,0,0,1,.039.12l0,.006v.013l0,.032v.047a.431.431,0,0,1-.091.285,3.582,3.582,0,0,1-1,.851.435.435,0,0,1-.2.05.451.451,0,0,1-.164-.032l-.026-.011-.018-.008-.019-.01-.01-.005a.2.2,0,0,1-.025-.014.419.419,0,0,1-.064-.049,4.161,4.161,0,0,1-.791-1.041c-.019-.045-.038-.088-.052-.128h0a.414.414,0,0,1-.019-.082l-.008-.067,0-.043A.438.438,0,0,1,65,67.209a.5.5,0,0,1,.029-.045m-.772,4.89a3.127,3.127,0,0,1,1.136-.727.431.431,0,0,1,.293.025.088.088,0,0,1,.02.009.029.029,0,0,1,.012.007.435.435,0,0,1,.092.065h0a.319.319,0,0,0,.025.027c.015.018.032.036.045.055l.04.049,0,0a4.063,4.063,0,0,1,.281.416.246.246,0,0,1,.017.027c.008.014.016.027.023.041s.026.045.039.067v0a4.277,4.277,0,0,1,.2.413l.009.022c.007.018.016.039.023.058l.034.085a.463.463,0,0,1,.025.178l0,.025v.01a.431.431,0,0,1-.129.284,3.493,3.493,0,0,1-.456.372,3.083,3.083,0,0,1-.636.35c-.018.007-.037.012-.058.018a.616.616,0,0,1-.1.009.4.4,0,0,1-.212-.055l-.018-.008-.006,0-.011-.007a.448.448,0,0,1-.112-.093c-.023-.029-.054-.066-.084-.106a4.512,4.512,0,0,1-.534-.909,1.517,1.517,0,0,1-.078-.251c0-.012,0-.026-.006-.04h0c0-.015,0-.026,0-.037v-.007l0-.031v-.035a.235.235,0,0,1,0-.037c0-.012,0-.026,0-.038a.442.442,0,0,1,.088-.2l.006-.007.022-.025m-14.233-10h0a3.17,3.17,0,0,1,1.036-.861.449.449,0,0,1,.319,0,.2.2,0,0,1,.03.014l.007,0a.333.333,0,0,1,.1.068,3.169,3.169,0,0,1,.341.362,4.282,4.282,0,0,1,.523.782.408.408,0,0,1,.046.173h0l0,.034v.047a.428.428,0,0,1-.091.247v0l-.014.016a3.728,3.728,0,0,1-.554.544,2.685,2.685,0,0,1-.412.278.083.083,0,0,0-.017.011.415.415,0,0,1-.2.05h0a.255.255,0,0,1-.039,0h0a.429.429,0,0,1-.121-.03l-.026-.009-.029-.016-.007,0,0,0a.1.1,0,0,1-.03-.017.419.419,0,0,1-.063-.048,3.755,3.755,0,0,1-.844-1.17c0-.009,0-.018-.007-.026l-.005-.014,0-.017c0-.009,0-.018-.006-.026l0-.018-.007-.049a.443.443,0,0,1,.082-.319v0m-.547,3.685a2.74,2.74,0,0,1,.418-.222.523.523,0,0,1,.1-.031.679.679,0,0,1,.329.005c.021,0,.041.012.062.019l.038.017a.624.624,0,0,1,.177.114,8.762,8.762,0,0,1,1.233,1.448,8.032,8.032,0,0,1,.552.918c.007.012.012.026.018.038a.125.125,0,0,1,.01.027.117.117,0,0,1,.009.024.21.21,0,0,1,.012.042c0,.013.007.026.01.039s0,.019.005.029a.181.181,0,0,1,0,.023c0,.015,0,.032.005.046l0,.034,0,.038v0a.872.872,0,0,1,0,.1.065.065,0,0,0,0,.02l0,.011a.83.83,0,0,1-.024.11.639.639,0,0,1-.113.214,7.561,7.561,0,0,1-1.9,1.665c-.048.029-.1.055-.146.081a.653.653,0,0,1-.31.077.682.682,0,0,1-.258-.051l-.052-.02a.112.112,0,0,1-.029-.014.581.581,0,0,1-.133-.08l-.008-.007a.287.287,0,0,1-.039-.032l-.115-.11a9.24,9.24,0,0,1-1.436-1.871,3.077,3.077,0,0,1-.182-.411.452.452,0,0,1-.023-.1.2.2,0,0,1-.006-.026l-.019-.143a.667.667,0,0,1,.129-.5,7.166,7.166,0,0,1,1.691-1.529m-1.8,11.87a.273.273,0,0,1,.154-.305l3.417-1.455a.276.276,0,0,1,.371.357,62.335,62.335,0,0,1-3.5,7.142.275.275,0,0,1-.5-.2,16.8,16.8,0,0,0,.063-5.537m2.98-3.486v.005a.69.69,0,0,1-.042.063,3.6,3.6,0,0,1-1,.849.706.706,0,0,1-.065.028.468.468,0,0,1-.138.022.537.537,0,0,1-.112-.014.056.056,0,0,1-.015,0h0l-.035-.013-.025-.011-.029-.012-.008,0-.011-.007a.119.119,0,0,1-.022-.012.512.512,0,0,1-.065-.05,4.285,4.285,0,0,1-.451-.509l0,0c-.007-.009-.013-.018-.02-.026a2.513,2.513,0,0,1-.369-.631v-.007a.127.127,0,0,1-.007-.024l0-.012v-.014a.147.147,0,0,1-.006-.027l0-.026-.006-.038v-.027a.431.431,0,0,1,.041-.225l0,0a.522.522,0,0,1,.044-.068,3.451,3.451,0,0,1,.818-.743l.017-.011.006,0a1.332,1.332,0,0,1,.2-.1.353.353,0,0,1,.076-.022.429.429,0,0,1,.192,0l.008,0,.011,0,.027.007a.428.428,0,0,1,.083.041.348.348,0,0,1,.06.045l.054.048a.317.317,0,0,0,.041.041l0,.006a3.952,3.952,0,0,1,.33.379.143.143,0,0,1,.019.024c.011.013.019.026.03.039l.044.06,0,.006a4.294,4.294,0,0,1,.25.384.278.278,0,0,1,.022.037l.019.036a.746.746,0,0,1,.044.083.427.427,0,0,1,.046.151l0,.022v.012l0,.022c0,.013,0,.027,0,.041a.432.432,0,0,1-.052.19m-4.969-2.266a.464.464,0,0,1-.166.031.48.48,0,0,1-.449-.314,9.531,9.531,0,0,1-.662-3.892,6.235,6.235,0,0,1,.768-2.676,5.4,5.4,0,0,1,1.875-2,.479.479,0,0,1,.468.835,4.607,4.607,0,0,0-1.531,1.675,6.761,6.761,0,0,0-.02,5.725.478.478,0,0,1-.283.615m1.171,19.825a.566.566,0,0,1,0-1.131.566.566,0,0,1,0,1.131M49,88.709l-.043.062a.225.225,0,0,1-.059.056,1.376,1.376,0,0,1-.165.1l-.023.011h0a2.308,2.308,0,0,1-.233.109,2.75,2.75,0,0,1-.538.169.255.255,0,0,1-.09,0l-.1-.021a.229.229,0,0,1-.129-.079l0,0a2.327,2.327,0,0,1-.439-.939A.226.226,0,0,1,47.219,88l.025-.035.037-.048a.209.209,0,0,1,.055-.052,2.5,2.5,0,0,1,.977-.371.242.242,0,0,1,.038,0l.113.015a.118.118,0,0,1,.042.011.2.2,0,0,1,.1.064,1.943,1.943,0,0,1,.439,1,.214.214,0,0,1-.042.122m.461-2.6a.567.567,0,0,1,0-1.133.567.567,0,0,1,0,1.133m5.117-10.866c-1.139,4.165-1.584,4.942-2.469,6.492-.191.33-.4.708-.651,1.161a.408.408,0,0,1-.359.214.42.42,0,0,1-.2-.049.41.41,0,0,1-.165-.556c.25-.462.467-.843.658-1.178.852-1.489,1.278-2.237,2.391-6.3a.411.411,0,0,1,.792.218m3.454-8.679a.646.646,0,0,1-.184.747l-1,.95.461,1.242a.644.644,0,0,1-.151.685l-.938.931.549,1.286a.409.409,0,0,1-.216.538.418.418,0,0,1-.161.033.411.411,0,0,1-.377-.248L55.5,71.508l-.97.912a.411.411,0,0,1-.562-.6l1.019-.959-.5-1.252a.643.643,0,0,1,.157-.706l.982-.936-.411-1.259a.654.654,0,0,1,.126-.626l.889-1.025-.659-1.245a.645.645,0,0,1,.043-.674l.715-1.025-.8-1.144A.41.41,0,1,1,56.2,60.5l.762,1.09.763-1.09a.41.41,0,1,1,.673.469l-.8,1.149.753,1.2a.644.644,0,0,1-.028.729l-.845,1.142Zm.447,7.971c-.022-.03-.044-.063-.063-.093a1.544,1.544,0,0,1-.2-1.29,73.407,73.407,0,0,0,2.474-11.235,1.655,1.655,0,0,1,1.949-1.465,1.625,1.625,0,0,1,1.384,1.58v.034a40.668,40.668,0,0,1-2.563,12.1,1.7,1.7,0,0,1-2.979.372m6.188,3.816a3.671,3.671,0,0,1-1.058.551l-.115.031-.02,0a.4.4,0,0,1-.085.01.432.432,0,0,1-.254-.084l0,0h0l-.02-.013-.016-.014a.347.347,0,0,1-.045-.04h0A.355.355,0,0,1,63,78.735a3.742,3.742,0,0,1-.536-1.34v-.011c0-.017,0-.037,0-.057l0-.017V77.3l.006-.053c0-.011,0-.023.006-.034a.431.431,0,0,1,.046-.129l0-.007a.276.276,0,0,1,.017-.029l.018-.024.008-.009a.241.241,0,0,1,.021-.024l.009-.009a.051.051,0,0,1,.013-.012l.017-.015a3.468,3.468,0,0,1,.667-.4l.007,0c.026-.012.05-.024.078-.034l.037-.016.044-.019.059-.021.023-.008a.7.7,0,0,1,.069-.023l.012,0a.7.7,0,0,1,.07-.022h.006l.059-.016.015,0,.033-.005a.22.22,0,0,1,.037-.007h0a.244.244,0,0,1,.038,0h0l.02,0,.008,0a.3.3,0,0,1,.052,0l.011,0c.017,0,.032,0,.047.009l.011,0a.437.437,0,0,1,.052.02l.011.005a.469.469,0,0,1,.05.029h0v0c.009,0,.017.012.025.016l.008.007c.018.017.036.033.053.051l.006.008.006.007c.007.008.012.017.018.025a1.751,1.751,0,0,1,.111.184,4.524,4.524,0,0,1,.45,1.136.063.063,0,0,1,0,.023.411.411,0,0,1,.005.116c0,.013,0,.027-.005.042l0,.033,0,.01a.434.434,0,0,1-.16.255m3.158,1.061-2.492,1.45a.417.417,0,0,1-.208.056.411.411,0,0,1-.205-.766l2.37-1.378-.929-3.164a.635.635,0,0,1,.285-.727l2.56-1.528-1.35-2.9a.635.635,0,0,1,.152-.745l2.27-2.033L68.759,65.6a.636.636,0,0,1,.079-.84c.332-.313,1.167-1.094,1.724-1.561a.411.411,0,1,1,.527.63c-.484.406-1.194,1.064-1.571,1.418l1.523,2.087a.637.637,0,0,1-.089.852l-2.294,2.053,1.363,2.924a.637.637,0,0,1-.252.818l-2.581,1.54.931,3.166a.635.635,0,0,1-.293.731m10.04,9.407a.4.4,0,0,1-.126.019.41.41,0,0,1-.39-.285c-1.1-3.433-1.249-3.488-1.892-3.721-.808-.3-6.8-2.157-6.856-2.176a.41.41,0,1,1,.243-.784c.247.077,6.067,1.888,6.894,2.188a1.844,1.844,0,0,1,1.174.964,19.531,19.531,0,0,1,1.218,3.279.409.409,0,0,1-.265.516m2.909-2.832a1.077,1.077,0,0,1-1.276.353,1.119,1.119,0,0,1-.634-.766l-.619-2.52a1.24,1.24,0,0,0-.755-.52l-6.706-1.671c-.179-.04-.362-.071-.54-.118-.4-.106-.161-.592-.016-.815a1.4,1.4,0,0,1,1.028-.718c.037,0,.073-.006.108-.006h7.708a1.241,1.241,0,0,1,1.23,1.084l.745,4.75a1.248,1.248,0,0,1-.273.947m7.644-11.323a33.31,33.31,0,0,1-4.951,8.052.229.229,0,0,1-.409-.123c-.876-12.512-2.283-15.389-2.773-18.788a.228.228,0,0,1,.381-.2c1.5,1.4,5.933,5.663,7.753,10.9a.223.223,0,0,1,0,.155m.96-3.635a.377.377,0,0,1-.145.028.411.411,0,0,1-.384-.266,14.77,14.77,0,0,0-2.968-4.868,16.163,16.163,0,0,0-3.4-2.792.41.41,0,1,1,.435-.694,15.925,15.925,0,0,1,6.7,8.065.406.406,0,0,1-.239.527m1.08-3.431a.229.229,0,0,1-.441.014c-1.285-4.1-6.222-6.348-7.1-6.72a.229.229,0,0,1-.139-.2l-.1-3.971a.228.228,0,0,1,.315-.217c6.027,2.477,7.568,4.029,7.813,4.376a.235.235,0,0,1,.038.1,22.82,22.82,0,0,1-.381,6.626m.487-9.761a.41.41,0,0,1-.19.775.383.383,0,0,1-.185-.045l-7.553-3.877a.411.411,0,1,1,.374-.731Z" fill="#192bff"/><path d="M16.866,83.113a2.744,2.744,0,0,1,.049.94.427.427,0,0,1-.387.345.433.433,0,0,1-.354-.118,1.814,1.814,0,0,1-.369-.449,4.717,4.717,0,0,0-.591-1.117.963.963,0,0,0-.586-.358,3.094,3.094,0,0,0-.941.05L3.756,84.1a2.656,2.656,0,0,0-.661.18.583.583,0,0,0-.287.284.906.906,0,0,0-.025.506L3,86.329a1.179,1.179,0,0,0,.345.711,1.757,1.757,0,0,0,.8.354q.535.122,1.859.3l.206.032a3.44,3.44,0,0,1,.911.3.669.669,0,0,1,.34.488.489.489,0,0,1-.258.58,2.273,2.273,0,0,1-1.058.147q-.728-.021-1.821-.147A13.754,13.754,0,0,1,2.855,88.9,3.178,3.178,0,0,1,2,88.631a.522.522,0,0,1-.3-.361.89.89,0,0,1,0-.278c.013-.1.027-.188.044-.266a3.2,3.2,0,0,0,.119-.544,2.429,2.429,0,0,0-.041-.7l-1.092-6.4a3.028,3.028,0,0,0-.208-.757,3.853,3.853,0,0,0-.3-.519,1.179,1.179,0,0,1-.212-.455.509.509,0,0,1,.108-.409,2.431,2.431,0,0,1,.664-.492q.518-.3,1.427-.723,1.051-.516,1.719-.786a2.138,2.138,0,0,1,1.012-.217.492.492,0,0,1,.413.466.7.7,0,0,1-.158.573,2.908,2.908,0,0,1-.756.609l-.288.139q-1.109.567-1.571.86a1.731,1.731,0,0,0-.626.587,1.1,1.1,0,0,0-.087.728l.218,1.279a1.031,1.031,0,0,0,.2.5.52.52,0,0,0,.354.173,2.977,2.977,0,0,0,.692-.062L13.172,79.9a3.547,3.547,0,0,0,1-.282.921.921,0,0,0,.435-.521,4.972,4.972,0,0,0,.176-1.258,2.388,2.388,0,0,1,.194-.556.428.428,0,0,1,.32-.223.451.451,0,0,1,.442.17,1.823,1.823,0,0,1,.285.821q.126.738.239,1.4c.076.441.14.865.2,1.272.065.39.132.782.2,1.171s.136.8.207,1.215" fill="#192bff"/><path d="M15.7,72.834a5.994,5.994,0,0,1-.09,1.011,1.027,1.027,0,0,1-.211.49.427.427,0,0,1-.333.135.517.517,0,0,1-.474-.407,1.964,1.964,0,0,0-.321-.845.867.867,0,0,0-.509-.309,6.244,6.244,0,0,0-.989-.079l-5.19-.125a1.8,1.8,0,0,0-.706.081q-.224.094-.232.468l-.006.265c0,.087,0,.168-.006.241a1.264,1.264,0,0,1-.079.493.238.238,0,0,1-.244.137.41.41,0,0,1-.392-.174,2.383,2.383,0,0,1-.25-.568q-.144-.443-.277-.886c-.087-.3-.158-.576-.21-.841a4.032,4.032,0,0,1-.153-.973.832.832,0,0,1,.156-.536.634.634,0,0,1,.5-.151l1.144.026c.235.006.352-.02.354-.079,0-.028-.072-.082-.216-.159a5.4,5.4,0,0,1-1.405-1.091,2.663,2.663,0,0,1-.569-1.928,2.164,2.164,0,0,1,.723-1.688A2.721,2.721,0,0,1,7.6,64.783a2.1,2.1,0,0,1,1.223.381,1.158,1.158,0,0,1,.482,1.024,1.019,1.019,0,0,1-.292.709.854.854,0,0,1-.788.211,1.9,1.9,0,0,0-.624-.091.878.878,0,0,0-.6.238,1.094,1.094,0,0,0-.274.808,1.638,1.638,0,0,0,.4,1.087A3.067,3.067,0,0,0,8.321,70a4.751,4.751,0,0,0,1.807.362l2.683.065a5.508,5.508,0,0,0,1-.042.878.878,0,0,0,.525-.295,2.291,2.291,0,0,0,.372-.827.726.726,0,0,1,.194-.3.424.424,0,0,1,.3-.1.475.475,0,0,1,.327.127.873.873,0,0,1,.187.48,5.952,5.952,0,0,1,.041,1.012c-.024.4-.04.789-.051,1.177s-.012.78-.006,1.176" fill="#192bff"/><path d="M20.355,62.445a3.327,3.327,0,0,1-.574,1.312,1.851,1.851,0,0,1-.863.66,1.7,1.7,0,0,1-.949.051,1.16,1.16,0,0,1-.666-.391.793.793,0,0,1-.138-.72.857.857,0,0,1,.378-.566,2.712,2.712,0,0,1,.838-.3.486.486,0,0,0,.179.007c.062-.009.14-.017.233-.026a1,1,0,0,0,.438-.238.859.859,0,0,0,.264-.458,1.112,1.112,0,0,0-.2-.96,4.905,4.905,0,0,0-1.1-.963,3.5,3.5,0,0,1-.374-.245q-.174-.129-.391-.26c-.145-.087-.285-.168-.418-.243-.752.127-1.5.261-2.248.4s-1.5.268-2.247.4q-1.112.217-2.242.419t-2.258.393a2.714,2.714,0,0,0-.634.2A1.217,1.217,0,0,0,7,61.214a2.2,2.2,0,0,0-.3.54c0,.014-.007.029-.01.043a.891.891,0,0,1-.3.3.465.465,0,0,1-.348.043.456.456,0,0,1-.408-.433,4.845,4.845,0,0,1,.17-1.18q.206-.787.359-1.451c.1-.445.209-.939.32-1.486a2.476,2.476,0,0,1,.353-.944.458.458,0,0,1,.486-.148.376.376,0,0,1,.216.14,1.2,1.2,0,0,1,.16.285c-.017.012-.024.021-.019.031s.015.021.026.039-.007.028-.01.042-.007.029-.01.043a2.186,2.186,0,0,0,.084.809.419.419,0,0,0,.282.291,1.491,1.491,0,0,0,.534-.011l1.434-.245c.47-.081.94-.163,1.412-.251.5-.064.985-.136,1.461-.215s.949-.153,1.418-.225c.108-.006.168-.041.183-.1s-.033-.123-.14-.179q-.625-.416-1.229-.837t-1.25-.843c-.26-.179-.526-.365-.8-.555s-.545-.377-.819-.563-.547-.365-.821-.551a.821.821,0,0,0-.451-.194.428.428,0,0,0-.333.218,2.572,2.572,0,0,0-.3.653.373.373,0,0,0-.079.1.361.361,0,0,1-.078.1.687.687,0,0,1-.2.145.508.508,0,0,1-.635-.282,1.59,1.59,0,0,1,.048-.744,4.4,4.4,0,0,0,.13-.514c.028-.158.057-.3.088-.431.074-.254.138-.517.193-.791s.122-.574.2-.9a1.093,1.093,0,0,1,.26-.537.4.4,0,0,1,.428-.094.378.378,0,0,1,.274.131,1.282,1.282,0,0,1,.145.305.2.2,0,0,0,0,.09q.01.049.018.117a2.794,2.794,0,0,0-.028.66A.667.667,0,0,0,9.288,52a2.559,2.559,0,0,0,.457.365c.025.021.05.042.076.062a.755.755,0,0,0,.1.068q.871.632,1.708,1.207l.881.633c.278.2.568.394.87.585l.941.669c.317.222.638.447.962.671l1.9,1.343a18.62,18.62,0,0,1,2.158,1.752,3.815,3.815,0,0,1,.974,1.455,2.959,2.959,0,0,1,.04,1.635" fill="#192bff"/><path d="M23.919,42.232a3.255,3.255,0,0,1-1.935,1.63,3.654,3.654,0,0,1-2.742-.638l-4.809-2.845a.57.57,0,0,0-.338-.1.385.385,0,0,0-.273.221l-.424.72a.54.54,0,0,1-.254.234.343.343,0,0,1-.323-.038.79.79,0,0,1-.37-.41.621.621,0,0,1,.039-.5l.37-.625a.229.229,0,0,0,.025-.279,1.363,1.363,0,0,0-.308-.322c-.1-.094-.185-.17-.26-.231s-.152-.125-.233-.189a6.087,6.087,0,0,1-.811-.812,1.025,1.025,0,0,1-.238-.677,2.2,2.2,0,0,1,.363-.937.653.653,0,0,1,.212-.231.375.375,0,0,1,.276-.055,1.042,1.042,0,0,1,.34.138l1.553.918a1.04,1.04,0,0,0,.306.129.393.393,0,0,0,.238-.012.355.355,0,0,0,.169-.156l1.5-2.537a.62.62,0,0,1,.231-.259c.071-.035.189,0,.353.092a.691.691,0,0,1,.347.41.626.626,0,0,1-.085.487l-1.343,2.272a.547.547,0,0,0-.081.374.448.448,0,0,0,.24.308l4.488,2.654a2.6,2.6,0,0,0,1.683.459,1.556,1.556,0,0,0,1.132-.813,2.275,2.275,0,0,0,.292-1.054,2.41,2.41,0,0,0-.286-1.243.484.484,0,0,1,.008-.4.333.333,0,0,1,.278-.167.373.373,0,0,1,.325.14,4.2,4.2,0,0,1,.811,1.374,2.951,2.951,0,0,1,.109,1.457,4.395,4.395,0,0,1-.575,1.514" fill="#192bff"/><path d="M26.857,37.257a5.947,5.947,0,0,1-.72.7,1.008,1.008,0,0,1-.485.242.423.423,0,0,1-.342-.114.494.494,0,0,1-.094-.619,1.948,1.948,0,0,0,.306-.849.862.862,0,0,0-.185-.567,6.273,6.273,0,0,0-.7-.7L17.157,28.6a1.623,1.623,0,0,0-.548-.361.6.6,0,0,0-.522.168,1.5,1.5,0,0,0-.261.356,3.865,3.865,0,0,1-.434.35c-.091.056-.19.036-.3-.063a.348.348,0,0,1-.181-.356,2.447,2.447,0,0,1,.165-.578l.03-.032q.179-.431.368-.852c.126-.282.255-.54.389-.776a3.431,3.431,0,0,1,.5-.852.815.815,0,0,1,.474-.312.692.692,0,0,1,.487.232l4.346,3.919a3.2,3.2,0,0,0,.333.271c.07.043.115.054.134.031s.015-.125-.045-.278a5.674,5.674,0,0,1-.228-1.094,3.669,3.669,0,0,1,.157-1.34,3.965,3.965,0,0,1,.924-1.567,4.06,4.06,0,0,1,1.48-1.05,3.171,3.171,0,0,1,1.822-.163,4.009,4.009,0,0,1,1.922,1.037l2.909,2.623a5.7,5.7,0,0,0,.94.731.77.77,0,0,0,.606.1,3.132,3.132,0,0,0,.763-.437,1,1,0,0,1,.4-.082.506.506,0,0,1,.318.138.44.44,0,0,1,.134.477,2.867,2.867,0,0,1-.624.889l-.973,1.078q-.443.489-.972,1.078a2.768,2.768,0,0,1-.754.654.429.429,0,0,1-.509-.074.51.51,0,0,1-.172-.318.857.857,0,0,1,.086-.442,1.324,1.324,0,0,0,.28-.621.8.8,0,0,0-.181-.474,6.488,6.488,0,0,0-.692-.743.771.771,0,0,1-.171-.139,1.914,1.914,0,0,0-.156-.156l-2.5-2.222a2.54,2.54,0,0,0-1.8-.8,2.26,2.26,0,0,0-1.576.83,2.609,2.609,0,0,0-.594,1.183,2.773,2.773,0,0,0,.127,1.55,4.046,4.046,0,0,0,1.175,1.637l1.993,1.8a5.405,5.405,0,0,0,.788.622.872.872,0,0,0,.59.118,2.111,2.111,0,0,0,.806-.4.891.891,0,0,1,.36-.089.427.427,0,0,1,.3.117.474.474,0,0,1,.164.311.847.847,0,0,1-.163.475,5.637,5.637,0,0,1-.621.787q-.416.429-.812.869t-.779.9" fill="#192bff"/><path d="M39.254,25.686a5.067,5.067,0,0,1-2.691,1.032,4.817,4.817,0,0,1-2.647-.591,6.554,6.554,0,0,1-2.186-1.959,5.122,5.122,0,0,1-1.016-2.648,5.208,5.208,0,0,1,.484-2.664,5.327,5.327,0,0,1,1.714-2.077,4.556,4.556,0,0,1,2.157-.9,3.946,3.946,0,0,1,2.028.266,3.37,3.37,0,0,1,1.47,1.12,2.652,2.652,0,0,1,.489.991,1.315,1.315,0,0,1-.112.858,2.289,2.289,0,0,1-.75.817L34.4,22.715a.3.3,0,0,0-.147.23.437.437,0,0,0,.1.267l.025.035a3.291,3.291,0,0,0,1.156.97,3.206,3.206,0,0,0,1.629.353,2.988,2.988,0,0,0,1.684-.6,3.671,3.671,0,0,0,1.228-1.436,4.074,4.074,0,0,0,.381-1.664l0-.031a.426.426,0,0,1,.146-.323.37.37,0,0,1,.411-.054.445.445,0,0,1,.241.314,4.263,4.263,0,0,1,.083,1.666,4.517,4.517,0,0,1-.632,1.713,5.3,5.3,0,0,1-1.454,1.533M36.686,19.8a1.219,1.219,0,0,0,.335-.324.441.441,0,0,0,.045-.332,1.342,1.342,0,0,0-.235-.455,3.163,3.163,0,0,0-.994-.9,2.308,2.308,0,0,0-3.228,1.152,2.653,2.653,0,0,0-.155,1.337,3.936,3.936,0,0,0,.559,1.538.549.549,0,0,0,.355.245.556.556,0,0,0,.414-.123Z" fill="#192bff"/><path d="M59.691,16.576a.906.906,0,0,1-.286.042.762.762,0,0,1-.243-.04,2.2,2.2,0,0,0-.542-.039,3.422,3.422,0,0,0-.777.171L52.379,18.4l-.736.228L51.1,18.8c-.2.059-.414.129-.652.2a1.691,1.691,0,0,1-.736.112c-.155-.029-.264-.148-.331-.357a.513.513,0,0,1,.034-.381,1.182,1.182,0,0,1,.29-.364,3.109,3.109,0,0,0,.765-.652.891.891,0,0,0,.174-.595,4.244,4.244,0,0,0-.2-.915L47.671,6.889A4.417,4.417,0,0,0,47.314,6a.83.83,0,0,0-.475-.384,3.458,3.458,0,0,0-1-.095.873.873,0,0,1-.442-.129.538.538,0,0,1-.243-.3.459.459,0,0,1,.058-.48,1.709,1.709,0,0,1,.683-.326L50.27,2.93a2.419,2.419,0,0,1,.862-.149.432.432,0,0,1,.372.345.456.456,0,0,1-.064.388,1.516,1.516,0,0,1-.364.388,4.238,4.238,0,0,0-.923.7.927.927,0,0,0-.246.619,3.365,3.365,0,0,0,.18.922l2.963,9.584a2,2,0,0,0,.313.674.494.494,0,0,0,.371.2,2.083,2.083,0,0,0,.587-.113l3.09-.954a1.722,1.722,0,0,0,.832-.512,2.1,2.1,0,0,0,.391-1.041,11.407,11.407,0,0,0,.039-2.109,1.055,1.055,0,0,1,.17-.569.7.7,0,0,1,.358-.261.466.466,0,0,1,.532.123,2.027,2.027,0,0,1,.311.929,12.772,12.772,0,0,1,.123,1.849c0,.66-.006,1.186-.032,1.577a2.217,2.217,0,0,1-.146.794.5.5,0,0,1-.3.264" fill="#192bff"/><path d="M63.536,15.738a5.983,5.983,0,0,1-1,.061,1.063,1.063,0,0,1-.527-.132.431.431,0,0,1-.184-.31.516.516,0,0,1,.331-.53,1.983,1.983,0,0,0,.787-.444.875.875,0,0,0,.229-.55,6.07,6.07,0,0,0-.072-.99L61.819,2.8a1.85,1.85,0,0,0-.186-.672c-.085-.146-.252-.2-.5-.171a1.021,1.021,0,0,1-.261.045,1.056,1.056,0,0,0-.261.044,1.274,1.274,0,0,1-.467-.006A.262.262,0,0,1,59.96,1.8a.409.409,0,0,1,.114-.414,2.416,2.416,0,0,1,.523-.333q.418-.186.836-.395a7.52,7.52,0,0,1,.8-.346,3.972,3.972,0,0,1,.939-.3.816.816,0,0,1,.563.074.687.687,0,0,1,.218.493l1.523,11.937a5.5,5.5,0,0,0,.193.984.869.869,0,0,0,.371.474,2.245,2.245,0,0,0,.874.242.726.726,0,0,1,.329.148.426.426,0,0,1,.147.281.467.467,0,0,1-.079.342.842.842,0,0,1-.433.255,5.642,5.642,0,0,1-.984.192q-.592.052-1.181.128c-.393.051-.785.108-1.176.174" fill="#192bff"/><path d="M71.617,15.248a3.532,3.532,0,0,1-2.545-.909,2.91,2.91,0,0,1-.765-2.193,2.8,2.8,0,0,1,1.321-2.333,6.24,6.24,0,0,1,3.5-.877c.146.005.294.007.44,0s.286-.008.419-.019a2.6,2.6,0,0,0,.976-.21.552.552,0,0,0,.258-.5l.017-.505a2.151,2.151,0,0,0-.543-1.592,2.181,2.181,0,0,0-1.606-.658,1.973,1.973,0,0,0-1.424.449,1.728,1.728,0,0,0-.551,1.357,1.2,1.2,0,0,1-.43.68,1.281,1.281,0,0,1-.809.2.817.817,0,0,1-.576-.24.836.836,0,0,1-.21-.645,2.4,2.4,0,0,1,.634-1.543A3.9,3.9,0,0,1,71.36,4.664a6.109,6.109,0,0,1,2.288-.333,5.113,5.113,0,0,1,2.2.5,3.039,3.039,0,0,1,1.312,1.277A4.129,4.129,0,0,1,77.6,8.049l-.093,4.158a1.936,1.936,0,0,0,.239,1.107.909.909,0,0,0,.636.394l.132.006a.576.576,0,0,0,.333-.078.71.71,0,0,0,.228-.234c.045-.042.094-.084.147-.127a.22.22,0,0,1,.146-.061c.233.008.345.164.336.473a1.458,1.458,0,0,1-.28.783,2.075,2.075,0,0,1-.747.648,2.053,2.053,0,0,1-1.053.24,2.133,2.133,0,0,1-1.361-.463,1.966,1.966,0,0,1-.606-1.318.208.208,0,0,0-.051-.135c-.035-.045-.066-.068-.1-.069s-.113.085-.251.256a4.083,4.083,0,0,1-1.249,1.18,4.318,4.318,0,0,1-2.392.439m.991-1.354a2.275,2.275,0,0,0,2.234-1.335,3.4,3.4,0,0,0,.3-1.443l0-.55a1.19,1.19,0,0,0-.073-.421.4.4,0,0,0-.259-.2,2.746,2.746,0,0,0-.657-.076L73.9,9.864l-.275-.008a3.343,3.343,0,0,0-2.14.478,1.813,1.813,0,0,0-.719,1.452,2.142,2.142,0,0,0,.446,1.523,1.832,1.832,0,0,0,1.4.585" fill="#192bff"/><path d="M81.827,15.473a7.219,7.219,0,0,1-.955-.369.975.975,0,0,1-.416-.32.457.457,0,0,1,.156-.586.86.86,0,0,1,.364-.089,1.847,1.847,0,0,0,.89-.07.894.894,0,0,0,.436-.412,6.608,6.608,0,0,0,.362-.935l1.6-4.9a1.518,1.518,0,0,0,.1-.672.626.626,0,0,0-.375-.411.826.826,0,0,1-.224-.062c-.073-.032-.146-.059-.215-.082a2.624,2.624,0,0,1-.482-.191c-.084-.051-.1-.146-.057-.285a.4.4,0,0,1,.255-.321,2.668,2.668,0,0,1,.6-.095c.152,0,.293.012.421.022s.237.015.331.015A11.431,11.431,0,0,1,85.856,5.7a3.339,3.339,0,0,1,.846.137.764.764,0,0,1,.447.3.661.661,0,0,1,0,.542l-.246.754a4.492,4.492,0,0,0-.142.508c-.018.1-.006.161.037.175.013,0,.066-.04.158-.134A7.158,7.158,0,0,1,87.8,7.3a3.193,3.193,0,0,1,1.221-.446,3.61,3.61,0,0,1,1.758.18,2.911,2.911,0,0,1,1.492,1.03,3.272,3.272,0,0,1,.593,1.8.647.647,0,0,0,.033.184.135.135,0,0,0,.088.086c.028.009.067,0,.117-.042a.914.914,0,0,0,.153-.148,5.539,5.539,0,0,1,.889-.67,3.3,3.3,0,0,1,1.2-.394,3.572,3.572,0,0,1,1.665.184A3.388,3.388,0,0,1,99.1,10.7a4.136,4.136,0,0,1-.025,3.127L97.85,17.64a8.925,8.925,0,0,0-.292,1.04.8.8,0,0,0,.07.532,1.235,1.235,0,0,0,.562.438.227.227,0,0,0,.033.045.083.083,0,0,0,.038.023.991.991,0,0,1,.175.277.475.475,0,0,1-.018.307.458.458,0,0,1-.363.3,1.224,1.224,0,0,1-.665-.055l-1.58-.514q-.846-.277-1.579-.514a1.716,1.716,0,0,1-.481-.228.626.626,0,0,1-.225-.269.457.457,0,0,1,0-.314.49.49,0,0,1,.193-.272.767.767,0,0,1,.368-.1,1.426,1.426,0,0,0,.706-.071.9.9,0,0,0,.39-.381,4.257,4.257,0,0,0,.323-.774l.074-.232,1.09-3.415a3.089,3.089,0,0,0,.074-2,1.772,1.772,0,0,0-1.18-1.067,2.091,2.091,0,0,0-1.151-.017,2.582,2.582,0,0,0-1.2.721,3.966,3.966,0,0,0-.9,1.593l-.92,2.824a7.07,7.07,0,0,0-.265.988,1.1,1.1,0,0,0,.081.641,1.528,1.528,0,0,0,.638.6.615.615,0,0,1,.147.221.4.4,0,0,1-.006.265.436.436,0,0,1-.314.325,1.266,1.266,0,0,1-.644-.082q-.843-.321-1.64-.581t-1.624-.482a1.373,1.373,0,0,1-.618-.34.524.524,0,0,1,.4-.822,1.353,1.353,0,0,0,.806-.095,1.011,1.011,0,0,0,.414-.454,8.428,8.428,0,0,0,.349-.929l1.009-3.1a3.649,3.649,0,0,0,.193-2.3,1.782,1.782,0,0,0-1.2-1.084,2.039,2.039,0,0,0-1.131-.009,2.577,2.577,0,0,0-1.226.781,4.54,4.54,0,0,0-.965,1.756l-.846,2.592a6.723,6.723,0,0,0-.261.98.956.956,0,0,0,.084.6,1.477,1.477,0,0,0,.6.531.511.511,0,0,1,.186.28.585.585,0,0,1-.015.331.4.4,0,0,1-.183.241.755.755,0,0,1-.431.045,4.329,4.329,0,0,1-.868-.214q-.558-.2-1.133-.392t-1.1-.337" fill="#192bff"/><path d="M101.3,23.678a3.531,3.531,0,0,1-1.674-2.122,2.911,2.911,0,0,1,.515-2.265,2.806,2.806,0,0,1,2.358-1.277,6.255,6.255,0,0,1,3.427,1.112c.121.082.246.161.371.238s.249.143.366.2a2.607,2.607,0,0,0,.938.339.553.553,0,0,0,.484-.285l.282-.419a2.153,2.153,0,0,0,.385-1.636,2.177,2.177,0,0,0-1.013-1.411,1.97,1.97,0,0,0-1.444-.375,1.73,1.73,0,0,0-1.189.858,1.192,1.192,0,0,1-.724.349,1.285,1.285,0,0,1-.8-.258.808.808,0,0,1-.361-.507.843.843,0,0,1,.164-.659,2.4,2.4,0,0,1,1.356-.971,3.872,3.872,0,0,1,1.952-.024,6.1,6.1,0,0,1,2.117.931,5.12,5.12,0,0,1,1.6,1.59,3.036,3.036,0,0,1,.434,1.778,4.127,4.127,0,0,1-.654,1.88l-2.284,3.475a1.932,1.932,0,0,0-.386,1.066.925.925,0,0,0,.33.673l.11.073a.572.572,0,0,0,.322.111.715.715,0,0,0,.318-.077c.062-.012.125-.022.193-.03a.225.225,0,0,1,.155.025c.194.13.206.324.034.58a1.46,1.46,0,0,1-.652.515,2.088,2.088,0,0,1-.977.152,2.047,2.047,0,0,1-1.02-.355,2.126,2.126,0,0,1-.909-1.114,1.972,1.972,0,0,1,.187-1.439.2.2,0,0,0,.027-.14c-.006-.058-.02-.095-.045-.111s-.14.011-.347.085a4.111,4.111,0,0,1-1.686.337,4.332,4.332,0,0,1-2.261-.9m1.559-.622a2.28,2.28,0,0,0,2.6.053,3.408,3.408,0,0,0,1.02-1.064l.289-.468a1.2,1.2,0,0,0,.16-.4.391.391,0,0,0-.115-.3,2.834,2.834,0,0,0-.517-.413c-.061-.042-.13-.089-.211-.141s-.154-.1-.227-.154a3.323,3.323,0,0,0-2.068-.728,1.8,1.8,0,0,0-1.38.848,2.142,2.142,0,0,0-.43,1.527,1.829,1.829,0,0,0,.876,1.239" fill="#192bff"/><path d="M116.871,38.179a8.149,8.149,0,0,1-1.2-2.043,9.094,9.094,0,0,1-.412-1.616c-.017-.1-.036-.183-.057-.259a.656.656,0,0,0-.109-.22c-.027-.036-.077-.048-.153-.039a1.214,1.214,0,0,0-.261.074,1.141,1.141,0,0,1-.4.137.383.383,0,0,1-.317-.147.538.538,0,0,1,.047-.489,6.727,6.727,0,0,1,.655-1c.065-.085.127-.172.188-.263a2.79,2.79,0,0,1,.222-.291,17.812,17.812,0,0,1,1.4-1.621,2.552,2.552,0,0,1,.928-.667.469.469,0,0,1,.559.159.54.54,0,0,1,.121.361,1.358,1.358,0,0,1-.219.536q-.207.347-.643.976a3.968,3.968,0,0,0-.75,1.5,3.332,3.332,0,0,0,.031,1.639,5.265,5.265,0,0,0,.933,1.815,3.433,3.433,0,0,0,1.989,1.412,2.561,2.561,0,0,0,2.159-.531,2.35,2.35,0,0,0,1.014-1.857,8.316,8.316,0,0,0-.63-2.99,9.783,9.783,0,0,1-.568-2.6,4.346,4.346,0,0,1,.336-2.066,4.175,4.175,0,0,1,1.358-1.62,3.666,3.666,0,0,1,2.012-.763,3.734,3.734,0,0,1,2.06.478,5.55,5.55,0,0,1,1.747,1.564,6.2,6.2,0,0,1,.982,1.753,7.226,7.226,0,0,1,.312,1.483c.027.108.052.2.077.287a.62.62,0,0,0,.09.193.16.16,0,0,0,.165.055.691.691,0,0,0,.231-.077,1.1,1.1,0,0,1,.394-.17.26.26,0,0,1,.275.109.427.427,0,0,1,.039.383,3.186,3.186,0,0,1-.344.7A12.483,12.483,0,0,1,130.4,33.5a15.658,15.658,0,0,1-1.128,1.338,2.236,2.236,0,0,1-.8.6.493.493,0,0,1-.564-.238.533.533,0,0,1-.118-.324,1.253,1.253,0,0,1,.175-.5c.116-.223.278-.515.486-.872a3.7,3.7,0,0,0,.616-1.6,3.608,3.608,0,0,0-.117-1.479,3.927,3.927,0,0,0-.6-1.211,3.544,3.544,0,0,0-1.105-1,2.315,2.315,0,0,0-1.206-.306,1.9,1.9,0,0,0-1.094.393A2.294,2.294,0,0,0,124,30.012a6.505,6.505,0,0,0,.613,2.84.419.419,0,0,0,.033.1.433.433,0,0,1,.033.1,10.288,10.288,0,0,1,.722,2.783,4.662,4.662,0,0,1-.278,2.2,4.021,4.021,0,0,1-1.377,1.7,4.252,4.252,0,0,1-2.368.893,4.484,4.484,0,0,1-2.437-.6,6.614,6.614,0,0,1-2.074-1.855" fill="#192bff"/><path d="M121.858,46.317a3.533,3.533,0,0,1-.315-2.686,2.913,2.913,0,0,1,1.627-1.658,2.8,2.8,0,0,1,2.677.15,6.233,6.233,0,0,1,2.336,2.744c.059.133.124.265.191.4s.135.252.2.367a2.618,2.618,0,0,0,.621.781.556.556,0,0,0,.561.01l.461-.209a2.063,2.063,0,0,0,1.063-2.924,1.971,1.971,0,0,0-1.033-1.076,1.724,1.724,0,0,0-1.462.108,1.2,1.2,0,0,1-.8-.084,1.269,1.269,0,0,1-.542-.635.812.812,0,0,1-.041-.622.839.839,0,0,1,.485-.475,2.392,2.392,0,0,1,1.663-.116,3.914,3.914,0,0,1,1.677,1,6.152,6.152,0,0,1,1.312,1.9,5.118,5.118,0,0,1,.525,2.192,3.036,3.036,0,0,1-.563,1.741,4.126,4.126,0,0,1-1.542,1.258L127.2,50.246a1.926,1.926,0,0,0-.888.7.918.918,0,0,0-.072.747l.054.119a.575.575,0,0,0,.217.264.715.715,0,0,0,.312.1c.058.022.118.046.179.075a.23.23,0,0,1,.119.1c.1.214.005.384-.275.512a1.465,1.465,0,0,1-.825.1,2.09,2.09,0,0,1-.912-.383,2.051,2.051,0,0,1-.683-.837,2.13,2.13,0,0,1-.188-1.426,1.972,1.972,0,0,1,.914-1.128.214.214,0,0,0,.1-.1.145.145,0,0,0,.02-.118c-.013-.027-.126-.063-.341-.11a4.1,4.1,0,0,1-1.612-.6,4.32,4.32,0,0,1-1.453-1.948m1.652.286a2.285,2.285,0,0,0,2.188,1.412,3.428,3.428,0,0,0,1.426-.372l.491-.248a1.165,1.165,0,0,0,.345-.253.39.39,0,0,0,.062-.316,2.769,2.769,0,0,0-.224-.624c-.03-.068-.065-.144-.1-.231l-.115-.251a3.323,3.323,0,0,0-1.379-1.7,1.807,1.807,0,0,0-1.62,0,2.147,2.147,0,0,0-1.167,1.073,1.832,1.832,0,0,0,.1,1.515" fill="#192bff"/><path d="M126.156,58.153a3.769,3.769,0,0,1,.038-1.876,3,3,0,0,1,1.072-1.512,5.349,5.349,0,0,1,2.216-.945l3.981-.85a1.66,1.66,0,0,0,.666-.254.488.488,0,0,0,.114-.519c-.019-.086-.037-.172-.056-.259s-.035-.164-.051-.236a1.254,1.254,0,0,1-.033-.476.284.284,0,0,1,.2-.212.454.454,0,0,1,.427.1,2.325,2.325,0,0,1,.375.5q.243.4.475.8t.4.748a4,4,0,0,1,.379.932.811.811,0,0,1-.027.556.628.628,0,0,1-.449.265l-5.53,1.181a3.418,3.418,0,0,0-2.013,1,2.024,2.024,0,0,0-.32,1.767,2.291,2.291,0,0,0,.636,1.135,2.746,2.746,0,0,0,1.344.715,4.533,4.533,0,0,0,1.982-.041l2.991-.639a1.652,1.652,0,0,0,.666-.255.486.486,0,0,0,.114-.518c-.019-.086-.036-.173-.055-.259s-.035-.165-.051-.238a1.213,1.213,0,0,1-.034-.475.285.285,0,0,1,.2-.212.451.451,0,0,1,.426.1,2.436,2.436,0,0,1,.371.471l.479.82c.154.266.285.516.4.748a4.3,4.3,0,0,1,.379.931.823.823,0,0,1-.027.558.636.636,0,0,1-.45.265l-7.336,1.565a1.837,1.837,0,0,0-.658.242.46.46,0,0,0-.128.511,1.21,1.21,0,0,1,.07.266,1,1,0,0,0,.062.246,1.194,1.194,0,0,1,.032.464.257.257,0,0,1-.225.207.411.411,0,0,1-.422-.079,2.415,2.415,0,0,1-.376-.494c-.146-.268-.3-.535-.463-.8a7.179,7.179,0,0,1-.411-.766,4.007,4.007,0,0,1-.374-.91.809.809,0,0,1,.025-.569.683.683,0,0,1,.473-.257l1.119-.24a1.15,1.15,0,0,0,.254-.077c.054-.025.076-.06.067-.1a.8.8,0,0,0-.248-.106,4.664,4.664,0,0,1-1.618-.835,3.463,3.463,0,0,1-1.072-2.076" fill="#192bff"/><path d="M127.64,71.3a5.238,5.238,0,0,1,.707-2.784,4.8,4.8,0,0,1,1.965-1.821,6.065,6.065,0,0,1,2.792-.646,5.716,5.716,0,0,1,2.817.686,5.035,5.035,0,0,1,1.952,1.864,4.967,4.967,0,0,1,.7,2.561,5.3,5.3,0,0,1-.4,2.059,4.087,4.087,0,0,1-1.14,1.6,2.5,2.5,0,0,1-1.637.62,1.085,1.085,0,0,1-.705-.228.767.767,0,0,1-.287-.627,1.126,1.126,0,0,1,.261-.793,1.714,1.714,0,0,1,.791-.443,2.622,2.622,0,0,0,1.461-.663,2.074,2.074,0,0,0,.557-1.585,2.141,2.141,0,0,0-.432-1.276,3.039,3.039,0,0,0-1.224-.954,4.5,4.5,0,0,0-1.87-.358,7.032,7.032,0,0,0-2.387.393,3.664,3.664,0,0,0-1.68,1.169,2.976,2.976,0,0,0-.61,1.905,3.611,3.611,0,0,0,.433,1.77,4.051,4.051,0,0,0,1.092,1.284.929.929,0,0,1,.189.2.3.3,0,0,1,.054.154.352.352,0,0,1-.185.354.567.567,0,0,1-.407.021,4.219,4.219,0,0,1-2.426-2.391,5.343,5.343,0,0,1-.38-2.067" fill="#192bff"/><path d="M126.637,81.822a5.074,5.074,0,0,1,1.242-2.6,4.826,4.826,0,0,1,2.328-1.391,6.562,6.562,0,0,1,2.935-.083,5.1,5.1,0,0,1,2.558,1.224,5.183,5.183,0,0,1,1.483,2.264,5.32,5.32,0,0,1,.184,2.686,4.562,4.562,0,0,1-.944,2.141,4,4,0,0,1-1.654,1.2,3.387,3.387,0,0,1-1.838.2,2.663,2.663,0,0,1-1.037-.382,1.33,1.33,0,0,1-.508-.7,2.306,2.306,0,0,1-.019-1.112l.836-4.633a.3.3,0,0,0-.051-.267.425.425,0,0,0-.256-.125l-.043-.009a3.312,3.312,0,0,0-1.5.09,3.2,3.2,0,0,0-1.425.867,2.991,2.991,0,0,0-.81,1.6,3.69,3.69,0,0,0,.1,1.886,4.086,4.086,0,0,0,.869,1.469l.018.027a.421.421,0,0,1,.117.334.369.369,0,0,1-.261.321.445.445,0,0,1-.391-.062,4.277,4.277,0,0,1-1.207-1.153,4.487,4.487,0,0,1-.719-1.677,5.284,5.284,0,0,1,0-2.113m5.912,2.505a1.249,1.249,0,0,0-.019.466.434.434,0,0,0,.2.27,1.282,1.282,0,0,0,.484.169,3.109,3.109,0,0,0,1.336-.033,2.155,2.155,0,0,0,1.666-1.806,2.258,2.258,0,0,0-.114-1.251,2.665,2.665,0,0,0-.807-1.078,3.992,3.992,0,0,0-1.466-.73.5.5,0,0,0-.64.44Z" fill="#192bff"/><path d="M10.661,94.408a.445.445,0,0,1,.174-.217.384.384,0,0,1,.334-.008l4.173,1.5a.53.53,0,0,1,.306.284.521.521,0,0,1,0,.417l-1.7,4.084q-.109.376-.506.224l-4.14-1.5a.493.493,0,0,1-.343-.275.526.526,0,0,1,.019-.419Z" fill="#192bff"/><path d="M17.472,113.077a5.834,5.834,0,0,1-.577-.821,1.028,1.028,0,0,1-.164-.518.43.43,0,0,1,.168-.319.474.474,0,0,1,.626.005,1.807,1.807,0,0,0,.772.45.861.861,0,0,0,.6-.1,6.311,6.311,0,0,0,.813-.585l4.676-3.771a.5.5,0,0,0,.221-.39.56.56,0,0,0-.125-.366l-.649-.8a.326.326,0,0,1-.073-.267.414.414,0,0,1,.16-.256.758.758,0,0,1,.506-.2.469.469,0,0,1,.361.148l.841,1.043a1.88,1.88,0,0,0,.289-.289l.279-.337q.235-.3.541-.662a4.96,4.96,0,0,1,.664-.649,2.461,2.461,0,0,1,1.389-.555,2.986,2.986,0,0,1,1.575.34,4.533,4.533,0,0,1,1.493,1.256,4.9,4.9,0,0,1,.884,1.6,3.006,3.006,0,0,1,.1,1.575,2.134,2.134,0,0,1-.763,1.225.915.915,0,0,1-.626.207.817.817,0,0,1-.613-.34.953.953,0,0,1-.249-.676,1.521,1.521,0,0,1,.305-.726,1.625,1.625,0,0,0,.523-1.016,1.445,1.445,0,0,0-.363-1.064,1.546,1.546,0,0,0-1.09-.632,1.641,1.641,0,0,0-1.185.4,3.348,3.348,0,0,0-.662.7q-.269.386-.516.814a2.241,2.241,0,0,1-.2.416,1.2,1.2,0,0,1-.25.287l1.45,1.8a.636.636,0,0,1,.156.3c.012.085-.04.174-.153.265a.856.856,0,0,1-.516.2.475.475,0,0,1-.412-.161l-.967-1.2a.69.69,0,0,0-.393-.277.559.559,0,0,0-.44.157l-4.639,3.742a5.525,5.525,0,0,0-.738.681.93.93,0,0,0-.217.571,1.97,1.97,0,0,0,.259.865.811.811,0,0,1,.041.348.4.4,0,0,1-.156.281.458.458,0,0,1-.333.112.846.846,0,0,1-.443-.235,5.61,5.61,0,0,1-.681-.736Z" fill="#192bff"/><path d="M24.164,120.608a6.019,6.019,0,0,1-.715-.72,1.029,1.029,0,0,1-.239-.475.429.429,0,0,1,.111-.342.513.513,0,0,1,.616-.1,1.983,1.983,0,0,0,.853.3.87.87,0,0,0,.565-.192,6.233,6.233,0,0,0,.7-.7l3.436-3.893a1.853,1.853,0,0,0,.392-.594q.071-.231-.21-.478c-.066-.058-.131-.117-.2-.174s-.127-.112-.182-.162a1.265,1.265,0,0,1-.328-.375.241.241,0,0,1,.053-.276.407.407,0,0,1,.386-.188,2.312,2.312,0,0,1,.6.173c.287.118.571.237.855.359s.543.249.781.38a4.039,4.039,0,0,1,.842.509.8.8,0,0,1,.308.464.628.628,0,0,1-.2.48l-.757.858c-.155.175-.211.282-.166.322.021.02.109,0,.261-.063a5.388,5.388,0,0,1,1.737-.374,2.658,2.658,0,0,1,1.843.805,2.159,2.159,0,0,1,.827,1.64,2.716,2.716,0,0,1-.784,1.8,2.1,2.1,0,0,1-1.079.69,1.159,1.159,0,0,1-1.094-.289,1.018,1.018,0,0,1-.354-.679.85.85,0,0,1,.344-.739,1.916,1.916,0,0,0,.472-.419.874.874,0,0,0,.2-.613,1.092,1.092,0,0,0-.443-.728,1.635,1.635,0,0,0-1.091-.391,3.06,3.06,0,0,0-1.42.36,4.765,4.765,0,0,0-1.44,1.15l-1.776,2.012a5.36,5.36,0,0,0-.613.795.867.867,0,0,0-.111.592,2.281,2.281,0,0,0,.394.816.721.721,0,0,1,.107.344.422.422,0,0,1-.115.295.46.46,0,0,1-.308.168.873.873,0,0,1-.486-.165,5.857,5.857,0,0,1-.8-.619q-.431-.411-.869-.795t-.9-.763" fill="#192bff"/><path d="M37.75,130.864a5.965,5.965,0,0,1-2.191-2.063,5.067,5.067,0,0,1-.757-2.688,5.947,5.947,0,0,1,2.805-4.909,5.056,5.056,0,0,1,2.7-.712,6.384,6.384,0,0,1,5.063,2.892,5,5,0,0,1,.748,2.683,6.071,6.071,0,0,1-2.816,4.926,4.908,4.908,0,0,1-2.685.709,5.984,5.984,0,0,1-2.866-.838m.557-.975a2.558,2.558,0,0,0,1.622.356,3.146,3.146,0,0,0,1.618-.772,6.89,6.89,0,0,0,1.5-1.892,7.007,7.007,0,0,0,.874-2.238,3.122,3.122,0,0,0-.157-1.787,2.58,2.58,0,0,0-1.134-1.231,2.606,2.606,0,0,0-1.655-.363,3.173,3.173,0,0,0-1.629.767,7.952,7.952,0,0,0-2.357,4.126,3.172,3.172,0,0,0,.167,1.793,2.6,2.6,0,0,0,1.152,1.241" fill="#192bff"/><path d="M47.961,135.9a7.4,7.4,0,0,1-.98-.3.965.965,0,0,1-.44-.289.459.459,0,0,1,.111-.6.883.883,0,0,1,.358-.117,1.864,1.864,0,0,0,.882-.135.9.9,0,0,0,.4-.445,6.6,6.6,0,0,0,.29-.96l1.221-5a1.505,1.505,0,0,0,.051-.678.625.625,0,0,0-.4-.382.773.773,0,0,1-.226-.044c-.077-.026-.15-.048-.221-.066a2.508,2.508,0,0,1-.494-.155c-.089-.043-.115-.136-.08-.279a.4.4,0,0,1,.23-.341,2.806,2.806,0,0,1,.589-.138c.153-.008.293-.011.422-.011s.238,0,.331-.009a11.35,11.35,0,0,1,1.237-.1,3.368,3.368,0,0,1,.853.071.79.79,0,0,1,.47.261.668.668,0,0,1,.037.543l-.188.769a4.317,4.317,0,0,0-.1.519c-.01.1.007.16.049.17.014,0,.064-.045.149-.145a6.967,6.967,0,0,1,.793-.746,3.161,3.161,0,0,1,1.184-.538,3.615,3.615,0,0,1,1.766.046,2.913,2.913,0,0,1,1.567.915,3.275,3.275,0,0,1,.727,1.751.644.644,0,0,0,.046.181.139.139,0,0,0,.095.08c.028.006.066-.01.113-.052a.858.858,0,0,0,.142-.158,5.6,5.6,0,0,1,.836-.736,3.328,3.328,0,0,1,1.17-.484,3.588,3.588,0,0,1,1.674.057,3.384,3.384,0,0,1,2.2,1.477,4.121,4.121,0,0,1,.213,3.121l-.928,3.9a8.715,8.715,0,0,0-.213,1.057.794.794,0,0,0,.109.526,1.239,1.239,0,0,0,.6.394.186.186,0,0,0,.035.042.086.086,0,0,0,.04.021.982.982,0,0,1,.2.263.474.474,0,0,1,0,.306.457.457,0,0,1-.339.326,1.25,1.25,0,0,1-.668-.005c-.5-.122-1.035-.254-1.613-.393L60.635,139a1.7,1.7,0,0,1-.5-.19.627.627,0,0,1-.244-.252.446.446,0,0,1-.026-.312.481.481,0,0,1,.171-.286.774.774,0,0,1,.36-.128,1.442,1.442,0,0,0,.7-.124.9.9,0,0,0,.36-.41,4.132,4.132,0,0,0,.263-.8l.057-.236.83-3.489a3.083,3.083,0,0,0-.079-2,1.765,1.765,0,0,0-1.256-.974,2.081,2.081,0,0,0-1.15.069,2.581,2.581,0,0,0-1.138.81,3.952,3.952,0,0,0-.777,1.657l-.705,2.884a7.015,7.015,0,0,0-.188,1.007,1.114,1.114,0,0,0,.128.632,1.538,1.538,0,0,0,.681.551.605.605,0,0,1,.165.209.41.41,0,0,1,.015.264.441.441,0,0,1-.289.349,1.274,1.274,0,0,1-.65-.034q-.865-.256-1.677-.455t-1.656-.359a1.333,1.333,0,0,1-.642-.292.521.521,0,0,1,.332-.848,1.356,1.356,0,0,0,.8-.156,1.017,1.017,0,0,0,.379-.485,8.551,8.551,0,0,0,.277-.951l.773-3.163a3.685,3.685,0,0,0,.019-2.306,1.783,1.783,0,0,0-1.276-.99,2.057,2.057,0,0,0-1.127.074,2.582,2.582,0,0,0-1.164.872,4.531,4.531,0,0,0-.831,1.824l-.646,2.65a6.852,6.852,0,0,0-.188,1,.964.964,0,0,0,.129.585,1.469,1.469,0,0,0,.641.485.507.507,0,0,1,.207.266.6.6,0,0,1,.01.331.412.412,0,0,1-.164.254.759.759,0,0,1-.427.077,4.476,4.476,0,0,1-.882-.146c-.381-.109-.767-.21-1.159-.307s-.768-.18-1.127-.252" fill="#192bff"/><path d="M78.677,139.483a1.732,1.732,0,0,1-.745.023.453.453,0,0,1-.284-.4.5.5,0,0,1,.079-.371,1.179,1.179,0,0,1,.332-.328,3.189,3.189,0,0,0,.841-.554.9.9,0,0,0,.244-.569,4.3,4.3,0,0,0-.09-.934L77.428,127.3a8.19,8.19,0,0,0-.289-1.234.794.794,0,0,0-.423-.493,2.577,2.577,0,0,0-.981-.116.9.9,0,0,1-.431-.157.508.508,0,0,1-.194-.333.436.436,0,0,1,.1-.41,1.319,1.319,0,0,1,.65-.24q1.992-.357,3.431-.683c.331-.059.653-.12.962-.184s.63-.124.962-.184a8.056,8.056,0,0,1,5.042.391,4.2,4.2,0,0,1,2.309,3.208,4.045,4.045,0,0,1-.974,3.661,7.645,7.645,0,0,1-4.377,2.014l-1.452.262c-.345.061-.553.151-.621.268a1.162,1.162,0,0,0-.009.694l.354,1.971a3.486,3.486,0,0,0,.292,1.008.878.878,0,0,0,.51.412,5.138,5.138,0,0,0,1.225.16,1.254,1.254,0,0,1,.514.187.611.611,0,0,1,.241.415.451.451,0,0,1-.049.345.752.752,0,0,1-.328.227,4.176,4.176,0,0,1-.626.19l-1.9.34q-.784.12-1.489.246l-1.2.215m4.221-8.11a3.863,3.863,0,0,0,2.525-1.315,2.959,2.959,0,0,0,.5-2.4,3.635,3.635,0,0,0-1.6-2.608,4.386,4.386,0,0,0-3.176-.446l-.736.132a.888.888,0,0,0-.633.337,1.2,1.2,0,0,0-.055.814l.926,5.154a.822.822,0,0,0,.248.515.9.9,0,0,0,.681.056Z" fill="#192bff"/><path d="M98.453,134.465a5.082,5.082,0,0,1-2.858.375,4.836,4.836,0,0,1-2.436-1.194,6.583,6.583,0,0,1-1.668-2.416,5.123,5.123,0,0,1-.367-2.813,5.209,5.209,0,0,1,1.093-2.477,5.332,5.332,0,0,1,2.151-1.617,4.567,4.567,0,0,1,2.311-.375,4.012,4.012,0,0,1,1.911.733,3.355,3.355,0,0,1,1.164,1.434,2.637,2.637,0,0,1,.245,1.077,1.335,1.335,0,0,1-.308.807,2.3,2.3,0,0,1-.922.62l-4.341,1.822a.3.3,0,0,0-.2.189.455.455,0,0,0,.035.284l.016.04a3.3,3.3,0,0,0,.9,1.212,3.192,3.192,0,0,0,1.5.724,2.978,2.978,0,0,0,1.778-.19,3.661,3.661,0,0,0,1.528-1.11,4.06,4.06,0,0,0,.76-1.529l.012-.028a.422.422,0,0,1,.218-.281.369.369,0,0,1,.411.044.447.447,0,0,1,.162.362,4.307,4.307,0,0,1-.31,1.64,4.526,4.526,0,0,1-1.014,1.516,5.325,5.325,0,0,1-1.773,1.151m-1.12-6.322a1.217,1.217,0,0,0,.4-.239.427.427,0,0,0,.121-.312,1.322,1.322,0,0,0-.122-.5,3.131,3.131,0,0,0-.754-1.1,2.313,2.313,0,0,0-3.411.365,2.659,2.659,0,0,0-.463,1.264,3.945,3.945,0,0,0,.184,1.627.5.5,0,0,0,.72.3Z" fill="#192bff"/><path d="M106.874,130.152a5.777,5.777,0,0,1-.882.5,1.026,1.026,0,0,1-.521.107.429.429,0,0,1-.3-.2.517.517,0,0,1,.064-.622,1.963,1.963,0,0,0,.513-.745.858.858,0,0,0-.036-.593,6.165,6.165,0,0,0-.5-.859l-2.851-4.34a1.862,1.862,0,0,0-.468-.534c-.135-.086-.308-.06-.516.076-.073.049-.148.1-.222.145l-.2.133a1.272,1.272,0,0,1-.45.216.241.241,0,0,1-.252-.123.405.405,0,0,1-.079-.422,2.374,2.374,0,0,1,.323-.529c.19-.246.38-.49.573-.731s.384-.458.573-.652a3.991,3.991,0,0,1,.711-.679.825.825,0,0,1,.529-.176.63.63,0,0,1,.41.323l.629.956q.194.3.266.247c.024-.017.027-.105.007-.269a5.421,5.421,0,0,1,.1-1.774,2.658,2.658,0,0,1,1.263-1.567,2.154,2.154,0,0,1,1.8-.366,2.713,2.713,0,0,1,1.532,1.231,2.11,2.11,0,0,1,.383,1.223,1.16,1.16,0,0,1-.568.979,1.012,1.012,0,0,1-.749.162.85.85,0,0,1-.621-.525,1.96,1.96,0,0,0-.28-.568.887.887,0,0,0-.538-.358,1.1,1.1,0,0,0-.819.237,1.64,1.64,0,0,0-.666.95,3.085,3.085,0,0,0-.025,1.464,4.785,4.785,0,0,0,.729,1.694l1.475,2.242a5.307,5.307,0,0,0,.6.8.881.881,0,0,0,.541.264,2.283,2.283,0,0,0,.891-.165.707.707,0,0,1,.36-.013.423.423,0,0,1,.255.188.462.462,0,0,1,.08.342.86.86,0,0,1-.286.425,5.883,5.883,0,0,1-.809.611c-.339.205-.672.415-1,.627s-.649.436-.973.666" fill="#192bff"/><path d="M120.155,119.92a3.771,3.771,0,0,1-1.58,1.013,2.984,2.984,0,0,1-1.852-.049,5.314,5.314,0,0,1-2.019-1.314l-2.923-2.831a1.656,1.656,0,0,0-.583-.411c-.156-.05-.319.015-.493.194l-.185.19c-.061.062-.117.121-.169.173a1.184,1.184,0,0,1-.376.294.284.284,0,0,1-.289-.05.451.451,0,0,1-.153-.41,2.284,2.284,0,0,1,.2-.586c.131-.283.264-.562.4-.84s.268-.523.4-.745a4.024,4.024,0,0,1,.56-.833.827.827,0,0,1,.479-.288.63.63,0,0,1,.47.226l4.06,3.935a3.424,3.424,0,0,0,1.954,1.113,2.029,2.029,0,0,0,1.647-.718,2.29,2.29,0,0,0,.588-1.16,2.736,2.736,0,0,0-.156-1.516A4.493,4.493,0,0,0,119,113.684l-2.2-2.128a1.673,1.673,0,0,0-.582-.411.487.487,0,0,0-.5.195c-.061.063-.123.125-.183.189s-.117.121-.168.174A1.235,1.235,0,0,1,115,112a.281.281,0,0,1-.288-.05.456.456,0,0,1-.156-.41,2.521,2.521,0,0,1,.186-.571l.415-.854q.2-.416.4-.745a4.3,4.3,0,0,1,.564-.834.818.818,0,0,1,.477-.288.627.627,0,0,1,.471.226l5.388,5.22a1.83,1.83,0,0,0,.565.412q.237.09.5-.178a1.32,1.32,0,0,1,.184-.206.975.975,0,0,0,.169-.19,1.235,1.235,0,0,1,.369-.285.26.26,0,0,1,.3.072.411.411,0,0,1,.169.395,2.379,2.379,0,0,1-.2.586c-.142.273-.277.549-.408.831a6.952,6.952,0,0,1-.408.769,3.975,3.975,0,0,1-.548.818.8.8,0,0,1-.485.3.68.68,0,0,1-.477-.248l-.823-.8a1.158,1.158,0,0,0-.2-.168c-.052-.03-.094-.029-.124,0a.781.781,0,0,0,.051.264,4.675,4.675,0,0,1,.207,1.809,3.465,3.465,0,0,1-1.126,2.048" fill="#192bff"/><path d="M128.854,103a.434.434,0,0,1-.278.005.377.377,0,0,1-.221-.25L126.826,98.6a.515.515,0,0,1,.02-.415.528.528,0,0,1,.317-.27l4.224-1.317q.362-.156.5.246l1.511,4.135a.494.494,0,0,1,.01.44.533.533,0,0,1-.334.254Z" fill="#192bff"/></g></svg>