<svg xmlns="http://www.w3.org/2000/svg" width="42.196" height="43.563" viewBox="0 0 42.196 43.563">
  <path id="Icon_awesome-amazon" data-name="Icon awesome-amazon" d="M24.821,14.959c-4.736.175-16.482,1.507-16.482,11.426,0,10.648,13.448,11.085,17.843,4.2a44.845,44.845,0,0,0,4.4,4.551l5.523-5.445s-3.141-2.46-3.141-5.134v-14.3c0-2.46-2.382-8-10.92-8-8.557,0-13.1,5.348-13.1,10.142l7.147.661c1.585-4.813,5.27-4.813,5.27-4.813,3.958-.01,3.452,2.9,3.452,6.719Zm0,8.44c0,7.779-8.188,6.612-8.188,1.673,0-4.59,4.911-5.513,8.188-5.62ZM38.045,39.3c-.749.972-6.807,6.515-16.968,6.515S3.136,38.861.754,35.992c-.661-.749.1-1.1.535-.807C8.416,39.512,19.55,46.64,37.511,38.131,38.24,37.772,38.8,38.326,38.045,39.3Zm3.87.214a8.1,8.1,0,0,1-2.061,3.014c-.535.438-.924.263-.632-.37s1.877-4.522,1.235-5.348c-.632-.807-3.6-.418-4.667-.311-1.05.1-1.264.194-1.361-.029-.224-.554,2.11-1.507,3.646-1.7,1.527-.175,3.987-.078,4.473.554C42.907,35.817,42.548,37.956,41.915,39.512Z" transform="translate(-0.494 -2.25)" fill="#404040"/>
</svg>
