<svg id="Group_35666" data-name="Group 35666" xmlns="http://www.w3.org/2000/svg" xmlns:xlink="http://www.w3.org/1999/xlink" width="65.284" height="99.532" viewBox="0 0 65.284 99.532">
  <defs>
    <clipPath id="clip-path">
      <rect id="Rectangle_2234" data-name="Rectangle 2234" width="65.284" height="99.532" fill="none"/>
    </clipPath>
  </defs>
  <g id="Group_35665" data-name="Group 35665" transform="translate(0 0)" clip-path="url(#clip-path)">
    <path id="Path_16358" data-name="Path 16358" d="M9.558,13.673l-4.6.9A2.918,2.918,0,0,0,2.66,18L9.37,52.121a2.916,2.916,0,0,0,3.424,2.295l4.6-.9a2.914,2.914,0,0,0,2.3-3.424l-6.71-34.121a2.917,2.917,0,0,0-3.424-2.295" transform="translate(-0.239 -1.25)" fill="#e1e640"/>
    <path id="Path_16359" data-name="Path 16359" d="M9.558,13.673l-4.6.9A2.918,2.918,0,0,0,2.66,18L9.37,52.121a2.916,2.916,0,0,0,3.424,2.295l4.6-.9a2.914,2.914,0,0,0,2.3-3.424l-6.71-34.121a2.917,2.917,0,0,0-3.424-2.295" transform="translate(-0.239 -1.25)" fill="#fff3e9"/>
    <path id="Path_16360" data-name="Path 16360" d="M9.558,13.673l-4.6.9A2.918,2.918,0,0,0,2.66,18L9.37,52.121a2.916,2.916,0,0,0,3.424,2.295l4.6-.9a2.914,2.914,0,0,0,2.3-3.424l-6.71-34.121A2.917,2.917,0,0,0,9.558,13.673Z" transform="translate(-0.239 -1.25)" fill="none" stroke="#242ff8" stroke-miterlimit="10" stroke-width="2.777"/>
    <path id="Path_16361" data-name="Path 16361" d="M25.437,20.929H20.749a2.916,2.916,0,0,0-2.916,2.917V75.469a2.916,2.916,0,0,0,2.916,2.917h4.688a2.916,2.916,0,0,0,2.917-2.917V23.846a2.916,2.916,0,0,0-2.917-2.917" transform="translate(-1.638 -1.922)" fill="#e1e640"/>
    <path id="Path_16362" data-name="Path 16362" d="M25.437,20.929H20.749a2.916,2.916,0,0,0-2.916,2.917V75.469a2.916,2.916,0,0,0,2.916,2.917h4.688a2.916,2.916,0,0,0,2.917-2.917V23.846a2.916,2.916,0,0,0-2.917-2.917" transform="translate(-1.638 -1.922)" fill="#fff3e9"/>
    <rect id="Rectangle_2233" data-name="Rectangle 2233" width="10.522" height="57.457" rx="3.212" transform="translate(16.195 19.007)" fill="none" stroke="#242ff8" stroke-miterlimit="10" stroke-width="2.777"/>
    <path id="Path_16363" data-name="Path 16363" d="M40.31,1.959,35.654,1.41a2.911,2.911,0,0,0-3.237,2.548L25.827,59.5a2.912,2.912,0,0,0,2.551,3.237l4.653.553a2.916,2.916,0,0,0,3.239-2.552L42.861,5.2A2.916,2.916,0,0,0,40.31,1.959" transform="translate(-2.37 -0.128)" fill="#e1e640"/>
    <path id="Path_16364" data-name="Path 16364" d="M40.31,1.959,35.654,1.41a2.911,2.911,0,0,0-3.237,2.548L25.827,59.5a2.912,2.912,0,0,0,2.551,3.237l4.653.553a2.916,2.916,0,0,0,3.239-2.552L42.861,5.2A2.916,2.916,0,0,0,40.31,1.959" transform="translate(-2.37 -0.128)" fill="#fff3e9"/>
    <path id="Path_16365" data-name="Path 16365" d="M40.31,1.959,35.654,1.41a2.911,2.911,0,0,0-3.237,2.548L25.827,59.5a2.912,2.912,0,0,0,2.551,3.237l4.653.553a2.916,2.916,0,0,0,3.239-2.552L42.861,5.2A2.916,2.916,0,0,0,40.31,1.959Z" transform="translate(-2.37 -0.128)" fill="none" stroke="#242ff8" stroke-miterlimit="10" stroke-width="2.777"/>
    <path id="Path_16366" data-name="Path 16366" d="M51.6,12.229l-4.655-.553A2.913,2.913,0,0,0,43.7,14.228L37.771,64.191a2.918,2.918,0,0,0,2.551,3.24l4.655.553a2.919,2.919,0,0,0,3.24-2.555l5.926-49.964A2.914,2.914,0,0,0,51.6,12.229" transform="translate(-3.466 -1.07)" fill="#e1e640"/>
    <path id="Path_16367" data-name="Path 16367" d="M51.6,12.229l-4.655-.553A2.913,2.913,0,0,0,43.7,14.228L37.771,64.191a2.918,2.918,0,0,0,2.551,3.24l4.655.553a2.919,2.919,0,0,0,3.24-2.555l5.926-49.964A2.914,2.914,0,0,0,51.6,12.229" transform="translate(-3.466 -1.07)" fill="#fff3e9"/>
    <path id="Path_16368" data-name="Path 16368" d="M51.6,12.229l-4.655-.553A2.913,2.913,0,0,0,43.7,14.228L37.771,64.191a2.918,2.918,0,0,0,2.551,3.24l4.655.553a2.919,2.919,0,0,0,3.24-2.555l5.926-49.964A2.914,2.914,0,0,0,51.6,12.229Z" transform="translate(-3.466 -1.07)" fill="none" stroke="#242ff8" stroke-miterlimit="10" stroke-width="2.777"/>
    <path id="Path_16369" data-name="Path 16369" d="M65.945,18.466l-4.517-1.251a2.916,2.916,0,0,0-3.588,2.031L46.58,59.956a2.91,2.91,0,0,0,2.031,3.585l4.517,1.251a2.916,2.916,0,0,0,3.588-2.034l11.26-40.706a2.916,2.916,0,0,0-2.032-3.585" transform="translate(-4.267 -1.571)" fill="#e1e640"/>
    <path id="Path_16370" data-name="Path 16370" d="M65.945,18.466l-4.517-1.251a2.916,2.916,0,0,0-3.588,2.031L46.58,59.956a2.91,2.91,0,0,0,2.031,3.585l4.517,1.251a2.916,2.916,0,0,0,3.588-2.034l11.26-40.706a2.916,2.916,0,0,0-2.032-3.585" transform="translate(-4.267 -1.571)" fill="#fff3e9"/>
    <path id="Path_16371" data-name="Path 16371" d="M65.945,18.466l-4.517-1.251a2.916,2.916,0,0,0-3.588,2.031L46.58,59.956a2.91,2.91,0,0,0,2.031,3.585l4.517,1.251a2.916,2.916,0,0,0,3.588-2.034l11.26-40.706A2.916,2.916,0,0,0,65.945,18.466Z" transform="translate(-4.267 -1.571)" fill="none" stroke="#242ff8" stroke-miterlimit="10" stroke-width="2.777"/>
    <path id="Path_16372" data-name="Path 16372" d="M63.6,47.216a1.816,1.816,0,0,0-1.62-.207,101.262,101.262,0,0,1-29.222,4.909A101.2,101.2,0,0,1,3.542,47.009a1.83,1.83,0,0,0-1.623.207,1.351,1.351,0,0,0-.6,1.34l9.311,52.887a1.584,1.584,0,0,0,1.617,1.215H53.276a1.585,1.585,0,0,0,1.617-1.215L64.2,48.556a1.353,1.353,0,0,0-.6-1.34" transform="translate(-0.119 -4.307)" fill="#242ff8"/>
    <path id="Path_16373" data-name="Path 16373" d="M63.6,47.216a1.816,1.816,0,0,0-1.62-.207,101.262,101.262,0,0,1-29.222,4.909A101.2,101.2,0,0,1,3.542,47.009a1.83,1.83,0,0,0-1.623.207,1.351,1.351,0,0,0-.6,1.34l9.311,52.887a1.584,1.584,0,0,0,1.617,1.215H53.276a1.585,1.585,0,0,0,1.617-1.215L64.2,48.556A1.353,1.353,0,0,0,63.6,47.216Z" transform="translate(-0.119 -4.307)" fill="none" stroke="#242ff8" stroke-miterlimit="10" stroke-width="2.602"/>
    <line id="Line_552" data-name="Line 552" x2="36.238" transform="translate(14.524 88.02)" fill="none" stroke="#faf1e7" stroke-linecap="round" stroke-linejoin="round" stroke-width="2.777"/>
  </g>
</svg>
