<svg id="Group_35670" data-name="Group 35670" xmlns="http://www.w3.org/2000/svg" xmlns:xlink="http://www.w3.org/1999/xlink" width="83.194" height="88.83" viewBox="0 0 83.194 88.83">
  <defs>
    <clipPath id="clip-path">
      <rect id="Rectangle_2236" data-name="Rectangle 2236" width="83.194" height="88.83" fill="none"/>
    </clipPath>
  </defs>
  <g id="Group_35669" data-name="Group 35669" transform="translate(0 0)" clip-path="url(#clip-path)">
    <path id="Path_16377" data-name="Path 16377" d="M81.484,56.669a.842.842,0,0,1,.843.856c-.553,18.025-18.536,32.5-40.634,32.5s-40.08-14.479-40.63-32.5a.84.84,0,0,1,.839-.856Z" transform="translate(-0.098 -5.204)" fill="#242ff8"/>
    <path id="Path_16378" data-name="Path 16378" d="M81.484,56.669a.842.842,0,0,1,.843.856c-.553,18.025-18.536,32.5-40.634,32.5s-40.08-14.479-40.63-32.5a.84.84,0,0,1,.839-.856Z" transform="translate(-0.098 -5.204)" fill="none" stroke="#242ff8" stroke-miterlimit="10" stroke-width="2.125"/>
    <path id="Path_16379" data-name="Path 16379" d="M61.009,95.344H26.729a1.977,1.977,0,0,1-1.975-1.975V83.41a1.978,1.978,0,0,1,1.975-1.979h34.28a1.979,1.979,0,0,1,1.979,1.979v9.959a1.978,1.978,0,0,1-1.979,1.975" transform="translate(-2.273 -7.478)" fill="#242ff8"/>
    <path id="Path_16380" data-name="Path 16380" d="M61.009,95.344H26.729a1.977,1.977,0,0,1-1.975-1.975V83.41a1.978,1.978,0,0,1,1.975-1.979h34.28a1.979,1.979,0,0,1,1.979,1.979v9.959A1.978,1.978,0,0,1,61.009,95.344Z" transform="translate(-2.273 -7.478)" fill="none" stroke="#242ff8" stroke-miterlimit="10" stroke-width="2.122"/>
    <path id="Path_16381" data-name="Path 16381" d="M79.518,54.155a7.27,7.27,0,0,0-8.636-6.463,10.154,10.154,0,0,0,.059-1.11,10.588,10.588,0,0,0-17.317-8.174A20.086,20.086,0,0,0,16.98,46.123a11.45,11.45,0,0,0-1.32-.083A11.735,11.735,0,0,0,4.506,54.155Z" transform="translate(-0.414 -2.69)" fill="none" stroke="#242ff8" stroke-linecap="round" stroke-linejoin="round" stroke-width="2.777"/>
    <line id="Line_553" data-name="Line 553" x2="11.523" y2="51.281" transform="translate(7.95 5.592)" fill="none" stroke="#242ff8" stroke-linecap="round" stroke-linejoin="round" stroke-width="2.777"/>
    <line id="Line_554" data-name="Line 554" x2="2.897" y2="55.614" transform="translate(20.762 1.261)" fill="none" stroke="#242ff8" stroke-linecap="round" stroke-linejoin="round" stroke-width="2.777"/>
    <path id="Path_16382" data-name="Path 16382" d="M59.85,48.853a7.737,7.737,0,0,0-11.253-3.3,7.74,7.74,0,0,0-11.6-2.288" transform="translate(-3.397 -3.818)" fill="none" stroke="#242ff8" stroke-linecap="round" stroke-linejoin="round" stroke-width="2.777"/>
    <line id="Line_555" data-name="Line 555" x2="20.935" transform="translate(31.127 81.347)" fill="none" stroke="#fdf3e9" stroke-linecap="round" stroke-linejoin="round" stroke-width="2.777"/>
  </g>
</svg>
