<svg xmlns="http://www.w3.org/2000/svg" width="21.937" height="22.852" viewBox="0 0 21.937 22.852">
  <g id="Group_36145" data-name="Group 36145" transform="translate(21.438 0.501) rotate(90)">
    <g id="Group_36146" data-name="Group 36146" transform="translate(0)">
      <path id="Path_20477" data-name="Path 20477" d="M10.908,0a1.2,1.2,0,0,1,1.118.758q.763,1.629,1.529,3.256c.324.689.654,1.376.97,2.069a.429.429,0,0,0,.39.268c1.119.134,2.236.279,3.354.42.812.1,1.624.209,2.438.3a1.168,1.168,0,0,1,1.064.795,1.149,1.149,0,0,1-.36,1.3c-1.416,1.329-2.828,2.661-4.251,3.984a.532.532,0,0,0-.17.559q.555,2.838,1.095,5.679a1.191,1.191,0,0,1-1.8,1.3q-2.009-1.115-4.025-2.219c-.355-.2-.717-.38-1.063-.59a.473.473,0,0,0-.537,0Q8.1,19.3,5.543,20.7a1.18,1.18,0,0,1-1.656-.388,1.306,1.306,0,0,1-.121-.964q.551-2.851,1.1-5.7a.445.445,0,0,0-.145-.455q-2.149-2-4.286-4.018A1.159,1.159,0,0,1,.624,7.23a2.68,2.68,0,0,1,.82-.193c1.391-.183,2.783-.353,4.175-.527.435-.054.868-.118,1.3-.158a.441.441,0,0,0,.4-.287C8.148,4.3,8.981,2.545,9.8.783A1.206,1.206,0,0,1,10.908,0" fill="none" stroke="#faf1e7" stroke-width="1"/>
    </g>
  </g>
</svg>
