<svg xmlns="http://www.w3.org/2000/svg" xmlns:xlink="http://www.w3.org/1999/xlink" width="45" height="45" viewBox="0 0 45 45">
  <defs>
    <clipPath id="clip-FUEGO2">
      <rect width="45" height="45"/>
    </clipPath>
  </defs>
  <g id="FUEGO2" clip-path="url(#clip-FUEGO2)">
    <rect width="45" height="45" fill="rgba(255,255,255,0)"/>
    <path id="Trazado_20495" data-name="Trazado 20495" d="M61.49,33.513a1.5,1.5,0,0,1-1.412-.993,23.268,23.268,0,0,0-2.624-5.04c-1.289-1.834-2.292-2.485-2.759-2.485a.344.344,0,0,0-.118.02l-.008,0c-1.6.549-3.552,3.264-4.974,5.246-.395.55-.768,1.07-1.131,1.548a1.5,1.5,0,0,1-2.1.287,14.537,14.537,0,0,1-3.916-18.611,14.981,14.981,0,0,1,2.162-2.992l0,0A16.863,16.863,0,0,1,46.09,9.141a14.367,14.367,0,0,0,1.227-1.112,5.062,5.062,0,0,0,.508-5.634,4.208,4.208,0,0,0-.224-.374l0,0a1.852,1.852,0,0,1-.385-1.96,1.543,1.543,0,0,1,1.336-.883c.24-.011.486-.016.729-.016A17.372,17.372,0,0,1,58.3,1.738,21.991,21.991,0,0,1,64.6,7.219,23.95,23.95,0,0,1,67.571,12a19.821,19.821,0,0,1,2.188,8.51v.359q0,.015,0,.03A14.678,14.678,0,0,1,62.21,33.329,1.5,1.5,0,0,1,61.49,33.513ZM54.7,21.995c1.706,0,3.46,1.265,5.214,3.76a25.926,25.926,0,0,1,2.279,4.018,11.7,11.7,0,0,0,4.57-8.917v-.34a16.938,16.938,0,0,0-1.9-7.231l-.009-.02a20.942,20.942,0,0,0-2.606-4.187,19,19,0,0,0-5.453-4.75L56.743,4.3a14.4,14.4,0,0,0-5.737-2.032,8.727,8.727,0,0,1,.4,3.374,7.288,7.288,0,0,1-1.9,4.432l0,0a16.8,16.8,0,0,1-1.486,1.358A14.409,14.409,0,0,0,46.8,12.543a11.98,11.98,0,0,0-1.725,2.39A11.539,11.539,0,0,0,47.023,28.7l.135-.188c1.841-2.565,3.928-5.473,6.435-6.334A3.351,3.351,0,0,1,54.7,21.995Z" transform="translate(-32.626 5.843)" fill="#192BFF"/>
  </g>
</svg>
