<svg xmlns="http://www.w3.org/2000/svg" xmlns:xlink="http://www.w3.org/1999/xlink" width="758.094" height="734.762" viewBox="0 0 758.094 734.762">
  <defs>
    <clipPath id="clip-path">
      <rect id="Rectangle_2622" data-name="Rectangle 2622" width="581.661" height="528.271" fill="#ff4438"/>
    </clipPath>
  </defs>
  <g id="Group_36369" data-name="Group 36369" transform="matrix(0.891, -0.454, 0.454, 0.891, 0, 264.069)">
    <g id="Group_36318" data-name="Group 36318" transform="translate(0 0)" clip-path="url(#clip-path)">
      <path id="Path_39521" data-name="Path 39521" d="M176.906,122.906c-10.342-6.785-21.4-9.122-33.412-4.983-2.209.762-4.418,1.824-6.7,2.033-6.943.646-13.258,3.014-19.426,6.092A43.221,43.221,0,0,1,98.9,130.782a37.059,37.059,0,0,0-6.306.985c-6.58,1.323-13.125,1.682-19.675-.154a8.908,8.908,0,0,0-2.5-.3c-.291,0-.565.514-.848.788,4.512,3.356,12.671,5.937,17.556,5.3,13.326-1.734,26.7-3.322,38.883-9.769,2.38-1.254,5.3-1.5,7.967-2.213,3.086-.822,6.361-1.233,9.217-2.556,10.771-5,20.792-2.115,30.736,2.423,1.408.642,2.83,1.246,4.238,1.866.287-.338.574-.681.856-1.015-.693-1.1-1.13-2.59-2.119-3.232M324.231,77.268c12.5-3.506,22.342-10.933,29.962-21.306,2.363-3.219,3.831-7.093,5.762-10.646,3.806-7.008,9.084-12.123,16.944-14.662,5.039-1.627,9.807-4.17,14.593-6.5a7.889,7.889,0,0,0,3.771-4.324c-.916-.064-1.948-.449-2.714-.146-7.149,2.8-14.358,5.462-21.34,8.656a29.045,29.045,0,0,0-14.4,14.02c-2.894,5.933-5.454,12.187-10.651,16.545-5.372,4.5-11.045,8.622-16.631,12.855-1.969,1.5-4.058,2.838-6.1,4.255.27.415.527.835.8,1.25M181.311,322.307c-4.358,7.568-9.4,14.8-13.2,22.633-7.509,15.471-11.721,32.021-14.452,48.985-1.357,8.416-3.125,16.768-4.709,25.146a6.467,6.467,0,0,0-.33,1.237c.047,2.11-.193,4.8,2.56,5.081,2.646.257,2.573-2.243,2.71-4.182a260.119,260.119,0,0,1,7.556-46.789c3.977-15.544,9.546-30.411,18.48-44.045,8.283-12.658,15.471-26.04,23.078-39.148,2.556-4.414,4.97-8.917,7.312-13.45a21.948,21.948,0,0,0,1.229-4.212c-.5-.214-1-.424-1.5-.638-2.59,4.247-5.261,8.442-7.753,12.748-7.025,12.188-13.947,24.448-20.985,36.635m-88.022-4.414a176.391,176.391,0,0,0-13.309,39.2c-.1.424.531,1.01,1.147,2.123.826-1.434,1.729-2.359,1.909-3.412a121.3,121.3,0,0,1,12.753-36.113c4.658-8.827,9.782-17.423,18.009-23.784,3.647-2.821,6.4-6.824,9.414-10.42.612-.749.544-2.059.989-3.947-12.1,11.49-23.78,21.755-30.912,36.353m-17.354-64.97c-9.563,6.978-19.152,13.9-28.613,21.01-.942.711-1.087,2.5-1.948,4.67,5.591-.985,7.941-5.235,11.558-7.414,3.8-2.286,7.046-5.462,10.646-8.082,3.536-2.564,7.521-4.632,9.379-8.857-.347-.441-.689-.886-1.023-1.327M581.32,316.836a131.476,131.476,0,0,1-6.276,15.407c-2.684,5.826-7.029,7.616-13.035,5.646-2.243-.719-4.431-1.614-6.627-2.466-12.325-4.97-24.688-9.675-38.343-9.14a40.81,40.81,0,0,1-5.741-.625c-16.169-1.926-30.771-8.823-45.779-14.469-5.959-2.239-11.507-5.779-17.556-7.658a205.651,205.651,0,0,1-35.484-14.782,57.909,57.909,0,0,0-19.884-6.811c-9.315-1.211-14.645,1.164-19.259,9.14-2.6,4.521-2.556,7.209,1.023,10.972a46.867,46.867,0,0,0,8.69,7.573c12.055,7.526,24.957,13.258,38.977,16.036,11.109,2.149,22.26,4.388,33.5,5.642a66.09,66.09,0,0,1,19.8,5.017c7.393,3.318,14.735,6.854,21.909,10.664,7.3,3.943,14.418,8.241,21.635,12.406,3.489,2.016,7.389,3.673,10.347,6.318,7.3,6.584,14.11,13.707,21.271,20.471,8.018,7.616,9.632,16.708,6.635,27.012-1.836,6.224-4.392,12.051-8.784,16.931-3.45,3.81-5.505,3.81-8.913.047-3.626-3.943-7.076-8.018-10.7-11.918-5.646-6.092-11.336-12.183-17.158-18.142-7.436-7.658-14.379-15.856-23.429-21.815-15.321-10.214-30.728-20.2-47.975-26.922-5.154-2.016-10.214-4.525-16.04-3.9-9.045.985-15.719,11.828-11.648,19.529a35.785,35.785,0,0,0,7.8,10.034c9.906,8.737,21.866,13.395,34.765,15.368,12.363,1.832,22.534,9,33.776,13.527,1.657.672,2.911,2.461,4.255,3.853,2.556,2.594,4.884,5.372,7.521,7.838,6.9,6.4,14.157,12.453,20.792,19.127,5.15,5.2,8.459,11.691,10.569,18.814.852,2.868.8,5.689-1.117,7.928a111.984,111.984,0,0,1-11.109,11.421c-2.65,2.286-4.8,1.212-6.592-2.1-2.016-3.763-3.759-7.8-6.447-11.023-6.182-7.389-12.765-14.422-19.259-21.5a31.026,31.026,0,0,0-3.947-3.318c-6.139-4.658-12.269-9.272-18.45-13.84a26.053,26.053,0,0,0-3.857-1.974c-2.282,3.9-.445,6.588,1.477,9.1,2.2,2.864,4.884,5.42,6.948,8.42,6.182,9,12.41,17.962,18.142,27.235,4.255,6.9,8.96,13.754,10.171,21.995.4,2.551.176,5.822-1.126,7.885-2.731,4.3-5.822,8.69-9.76,11.781-9.1,7.123-18.544,13.75-30.244,16.4-6.982,1.567-7.924,1.969-11.062-4.662a215.573,215.573,0,0,1-9.585-23.784c-3.763-11.331-7.526-22.62-14.024-32.881-2.324-3.716-3.271-8.33-4.966-12.453q-4.1-9.677-8.472-19.306c-.8-1.747-1.922-3.493-4.79-2.641a20.449,20.449,0,0,0-1.391,3.134c-1.969,6.674-.942,13.172,1.211,19.576,6.541,19.666,12.765,39.508,22.444,57.967,1.07,2.059,1.43,4.435,2.059,6.717.672,2.333-.223,4.075-2.059,5.6-13.754,11.2-35.03,7.663-41.169-8.241-.313-.8-.758-1.524-1.117-2.329-8.155-17.65-12.32-36.374-14.071-55.681q-2.485-27.483-5.467-54.919a23.847,23.847,0,0,0-9.045-16.485,8.613,8.613,0,0,0-10.12-.985,15.784,15.784,0,0,0-7.3,8.6c-4.392,10.659-3.806,21.772-2.641,32.881,1.074,10.389,2.372,20.783,4.208,31.087,1.211,6.9,2.731,13.93,5.509,20.291,5.42,12.32,7.705,25.355,10.933,38.168,1.16,4.658-.231,8.1-4.8,10.569-4.208,2.286-8.378,4.165-13.258,4.075-5.372-.09-10.749.09-16.032-.312-14.739-1.164-29.61-9.944-35.394-26.473-4.345-12.32-5.287-24.953-5.372-37.855a151.831,151.831,0,0,1,6.408-45.557c2.277-7.568,5.33-14.962,7.166-22.62,3.091-12.9,5.775-25.89,7.971-38.973a91.1,91.1,0,0,0,.629-19.127c-.317-7.076-5.107-10.124-12.051-7.975-9.229,2.868-16.22,8.694-19.666,17.877a185.715,185.715,0,0,0-5.646,19.576c-4.563,18.365-5.775,37.179-6.58,55.993-.36,7.479-.809,14.962-.942,22.44a41.14,41.14,0,0,0,1.07,10.753c3.271,12.808,6.9,25.578,10.308,38.386a24.129,24.129,0,0,1,.848,5.064c.176,4.388-2.329,6.134-6.006,3.853a18,18,0,0,1-4.79-4.927c-5.955-8.647-7.748-18.9-10.749-28.716-.445-1.434-1.117-2.821-2.1-5.287-3.412,6.182-3.45,11.336-1.7,16.575,2.012,5.869,4.345,11.648,6.134,17.56a50.636,50.636,0,0,1,1.969,11.331c.27,4.525-2.911,6.631-7.166,5.107a16.351,16.351,0,0,1-3.4-1.789c-4.529-2.735-9.538-3.54-14.645-4.435-7.526-1.3-15.009-3.228-22.444-5.154a9.5,9.5,0,0,1-4.127-2.821c-4.024-4.345-7.115-9.362-7.791-15.231-.937-8.69-1.61-17.423-1.789-26.16a135.8,135.8,0,0,1,1.3-19.17c1.023-8.245,2.277-16.533,3.985-24.64a137.863,137.863,0,0,1,5.15-17.2c3.138-8.87,6.408-17.65,9.991-26.293,4.431-10.664,10.214-20.83,13.75-31.759,4.653-14.379,7.744-29.3,11.464-44.033a50.206,50.206,0,0,0,.8-6.541c-2.059-.227-3.579-.762-4.923-.492-9.092,1.789-16.22,6.092-20.158,15.051-6.717,15.227-14.645,30.013-18.057,46.494-2.367,11.515-5.458,22.937-6.67,34.585-1.344,12.723-1.074,25.621-1.211,38.433-.043,10.886-3.044,21.1-6.717,31.13-.8,2.2-2.376,3.763-4.842,3.587-5.325-.407-10.792-.36-15.9-1.614-9.315-2.286-18.5-5.24-27.594-8.241a11.486,11.486,0,0,1-5.557-3.9c-5.287-7.389-7.838-15.364-6.229-24.726,2.016-11.691,4.572-23.069,9.726-33.823,4.345-9,7.971-18.408,12.765-27.235,6-11.062,12.808-21.725,19.349-32.474,6.1-10.034,12.316-19.979,18.592-29.923a62.829,62.829,0,0,0,9.722-26.922,43.177,43.177,0,0,0,.09-10.214c-.852-6.318-3.63-8.87-9.906-8.557a48.5,48.5,0,0,0-12.941,2.958c-6.943,2.466-11.109,8.51-16.169,13.395-16.8,15.989-25.313,36.327-30.325,58.279-2.6,11.241-3.72,22.8-5.689,34.178-2.106,12.046-4.345,24.011-6.721,35.967-1.708,8.557-6.314,10.8-14.426,7.393-2.954-1.254-6.186-2.059-8.955-3.583a107.425,107.425,0,0,1-10.488-7.076c-1.52-1.122-2.551-2.915-4.071-4.08-5.021-3.673-8.018-8.78-10.621-14.242-1.43-3.091-2.6-6.408-4.521-9.229-7.346-10.569-5.111-21.635-1.481-32.564,3.72-11.289,10.441-20.741,18.1-29.923a403.16,403.16,0,0,1,48.553-48.472,90.688,90.688,0,0,1,10.848-7.971c11.109-6.764,22.53-13.172,33.6-20.026a66.44,66.44,0,0,0,10.839-8.955c2.911-2.868,2.637-5.287-.715-7.393a16.068,16.068,0,0,0-7.033-2.509c-10.128-.762-19.623,2.372-28.223,7.213-10.574,6-21.147,12.316-30.818,19.662-17.872,13.575-35.073,28-52.543,42.063a23.525,23.525,0,0,0-1.836,1.794c-7.08,7.166-14.114,14.289-21.152,21.455-1.25,1.254-2.509,2.556-4.384,1.211-1.836-1.254-1.344-2.825-.449-4.482,1.836-3.4,3.138-7.123,5.334-10.257,4.208-6.092,7.928-13.035,13.523-17.6,11.563-9.452,24.144-17.607,36.327-26.3,5.107-3.626,8.784-8.467,12.235-13.707-2.688-3-5.873-3.223-9.05-3.181-3.223.047-6.4.27-9.632.312a47.976,47.976,0,0,0-26.023,7.885A67.931,67.931,0,0,0,32.8,251.836c-4.208,6.092-8.6,12.14-13.168,18.009-5.021,6.494-11.109,5.42-14.872-1.657C.455,260.033.237,251.164.014,242.61c-.313-11.378,4.61-21.1,14.512-27.774a52.287,52.287,0,0,0,8.51-6.811C33.7,196.874,47.942,192.7,61.872,187.957c4.439-1.52,9.225-2.239,13.352-4.3,5.908-2.958,11.734-5.557,18.408-6.944,9.366-1.926,18.365-5.646,27.551-8.51,16.661-5.2,33.326-10.261,50.8-12.32,4.572-.539,9.045-2.466,13.527-3.853.355-.133.535-.942,1.3-2.372-2.509.265-4.3.488-6.1.625-6.982.672-14.063,2.2-21.006,1.747-15.141-.942-30.188-3.181-45.334-4.345-13.3-.985-26.066,1.567-37.406,8.913-6.982,4.572-13.485,9.812-20.244,14.739a28.452,28.452,0,0,1-14.876,5.509c-6.4.45-11.687-1.7-15.313-7.389-1.794-2.868-1.888-5.2.355-8.108,7.08-9.14,11.734-19.307,12.543-31.044.133-2.329.265-4.884,1.254-6.9,1.3-2.821,2.864-5.912,5.193-7.838a33.45,33.45,0,0,1,25.672-7.8,162.574,162.574,0,0,0,19.8,1.254c8.557-.176,16.661-1.52,23.917-7.389a51.15,51.15,0,0,1,18.146-9.182c10.437-2.825,21.271-4.795,32.3-3.4a153.945,153.945,0,0,1,15.766,2.329c12.406,2.864,20.068,12.633,28.489,20.916,3.673,3.587,5.689,8.96,8.018,13.707,2.954,6.139,6.669,10.976,14.105,11.468,1.708.137,3.365.762,5.068.985,6.092.9,9.135-2.641,6.759-8.373a55.036,55.036,0,0,0-6.451-11.023c-4.833-6.494-10.745-12.273-11.194-21.053,0-.4-.36-.8-.45-1.207-.937-4.345-2.509-8.69-2.641-13.125-.492-14.067,0-28.223-.715-42.286-.723-13.574,4.521-24.593,12.586-34.717,4.122-5.24,9.85-7.123,16.528-6.584,4.837.355,9.76.09,14.6.133,1.973.047,3.9.137,6.139.223-.672,6.006-3.716,9.452-6.9,12.992a169.229,169.229,0,0,0-11.648,13.617,39.383,39.383,0,0,0-7.753,18.771c-.445,4.028-1.16,8.018-1.571,12.093-.308,3.271-.8,6.631,1.481,10.8a61.11,61.11,0,0,0,3.318-5.2c5.557-12.273,10.659-24.726,19.127-35.432a3.217,3.217,0,0,0,.27-.582c2.376-3.583,4.568-7.256,7.162-10.664,5.248-6.764,11.742-7.479,18.416-2.551,3.087,2.286,6.541,4.075,9.5,6.494a108.236,108.236,0,0,1,12.312,11.109c4.619,5.064,3.63,7.975-2.731,10.484-.4.133-.8.313-1.207.4-9.589,1.926-16.935,7.748-24.366,13.664-10.261,8.151-12.188,19.037-11.378,31.04.133,1.571.98,3.091,1.652,5.107,1.571-.582,2.333-.672,2.731-1.074q20.7-19.623,41.4-39.285c3.271-3.091,6.267-6.541,9.944-9.05a26.342,26.342,0,0,0,8.776-9.944c1.8-3.4,3.45-6.9,5.248-10.3,2.637-4.927,5.419-10.39,10.749-12.363,9-3.266,18.275-6.717,28.035-6.134a92.3,92.3,0,0,0,29.79-3.45c8.2-2.286,14.786,0,19.713,5.732,7.213,8.425,16.126,14.606,24.589,21.5,5.2,4.255,5.467,8.288.274,12.59a15.386,15.386,0,0,1-6.854,3.181,58.041,58.041,0,0,1-12.765.492c-15.505-1.211-30.732-.36-45.471,5.24-4.572,1.747-8.557,3.9-11.331,7.928a89.471,89.471,0,0,1-21.5,21.772c-12,8.643-23.878,17.47-38.253,21.995-5.689,1.789-11.246,4.028-16.892,6.045-13.977,4.974-23.515,15.231-31.627,27.012a23.682,23.682,0,0,0-3.352,8.245,5.891,5.891,0,0,0,1.605,4.927c1.211.895,3.545.492,5.334.355a4.4,4.4,0,0,0,2.153-1.3c9.131-7.838,19.17-14.289,29.61-20.248a65.546,65.546,0,0,1,22.8-8.018c5.822-.942,11.558-2.778,17.333-4.212,3.318-.852,6.588-1.969,9.9-2.641,5.017-1.032,10.124-1.884,15.184-2.6,7.17-1.032,14.379-1.794,21.545-2.778,5.916-.852,11.824-1.524,17.6-2.864,5.424-1.254,10.527-3.72,15.908-4.884a116.044,116.044,0,0,0,21.413-6.494c5.013-2.243,10.522-3.318,15.856-4.795q10.473-2.89,21.006-5.642a37.847,37.847,0,0,1,7.436-1.3c9.366-.492,16.443,4.255,22.222,10.8,6.224,7.033,12.5,14.2,17.6,22.038,5.193,8.018,9.045,16.935,13.438,25.535.539,1.074.36,2.509.719,3.763.98,3.45,1.836,6.943,3.129,10.257,1.708,4.392,2.693,8.6.184,12.945-1.926,3.4-5.287,4.482-8.6,2.419-1.3-.8-2.235-2.059-3.446-2.864-4.259-2.825-8.283-6.271-12.95-8.155-5.287-2.106-11.109-3.044-16.747-4.122-14.294-2.641-28.579-5.642-42.958-7.436-17.474-2.192-35.03-2.6-52.192,2.915a34.647,34.647,0,0,1-3.716.848c-12.765,2.778-25.488,5.509-37.8,9.944a42.727,42.727,0,0,1-14.469,2.243c-10.886-.047-21.815-.852-32.705-1.259a62.843,62.843,0,0,0-9.632.407,34.438,34.438,0,0,0-16.973,7.076c-1.524,1.164-3.313,2.868-1.61,4.795,3.806,4.3,7.611,9.045,13.656,10.124a45.685,45.685,0,0,0,27.016-3c4.212-1.884,8.96-2.688,13.57-3.36,6.717-1.032,13.532-1.747,20.334-2.2a181.321,181.321,0,0,1,19.76-.492c7.256.36,14.649.672,21.635,2.372,16.173,3.99,32.74,2.646,49.045,4.482,7.217.8,14.606-.09,21.777.8,12.543,1.614,24.722-.582,37.046-1.879,5.278-.582,10.612-.539,15.895-1.032,9.9-.942,15.325,4.795,18.014,13.125,4.747,14.829,8.913,29.923,13.035,44.974,1.7,6.271.582,11.961-4.478,16.978-7.573,7.568-8.737,7.8-16.8,1.164-5.248-4.3-10.488-9.315-16.622-11.691-13.129-5.064-26.16-10.664-40.184-13.258-10.253-1.884-20.154-5.869-30.813-5.869a57.2,57.2,0,0,1-9.546-.942c-13.926-2.286-27.86-4.568-41.794-7.123-7.521-1.344-14.957-3.223-22.44-4.927-8.733-1.969-17.423-4.212-26.207-5.869-5.908-1.074-12.051-.762-17.83-2.149-10.475-2.509-18.99.852-26.7,7.393a6.6,6.6,0,0,0-2.2,4.255c.047,6.134,7.3,14.961,13.532,16.126,3.985.762,8.2,1.524,12.089.895,12.008-1.836,23.883-.672,35.843-.312a201.824,201.824,0,0,1,55.411,9.452c6.087,1.926,11.777,5.107,17.911,6.807,13.977,3.943,28.176,7.213,42.2,10.976,9.5,2.6,18.857,5.557,28.262,8.42,3.45,1.074,6.9,2.239,10.308,3.583a124.3,124.3,0,0,1,12.363,5.244c5.283,2.731,10.394,5.912,15.5,8.955,9.945,5.916,18.369,13.395,22.667,24.5.895,2.419,1.391,5.556.676,7.932M211.037,171.249a33.124,33.124,0,0,0-14.645,9.944c-1.794,2.063-2.868,4.345-1.344,6.991,1.259,2.1,4.482,2.731,7.573,1.3a30.827,30.827,0,0,0,5.415-3.36c4.439-3.313,8.784-6.764,13.082-10.214a8.279,8.279,0,0,0,1.3-2.282c-3.4-3.36-7.573-3.63-11.383-2.376m27.556,42.466c-.047-.625,0-1.434-.36-1.836-5.557-9.14-16.58-6.854-19.85.047-1.652,3.446-5.013,5.822-7.295,8.913a15.7,15.7,0,0,0-3.181,11.468c.985,7.209,6.541,10.659,13.476,8.288a25.7,25.7,0,0,0,17.209-26.879m132.235-80.274c7.076-1.567,14.11-3.181,21.139-4.79,6.455-1.477,13.129-2.329,19.259-4.7,7.975-3.048,16.22-3.806,24.465-4.568,13.168-1.122,26.378-1.836,39.6-2.329,5.736-.227,11.507.492,17.247.8,4.251.223,8.51.672,12.761.762,2.333.043,4.8-.313,4.979-3.45-.449-.45-.766-.985-1.079-.985-13.844-.18-27.414-3.72-41.434-2.106-14.426,1.657-29.028,2.059-43.455,3.63-6.049.672-11.914,3.091-17.915,4.568-5.955,1.477-12.055,2.688-18.056,4.122-5.548,1.3-11.152,2.688-16.657,4.3-2.868.895-2.783,1.164-4.572,5.107,1.43-.133,2.6-.133,3.72-.36M453.473,203.1c19.936-1.117,39.063,3.583,58.408,7.123,7.928,1.434,16.126,1.524,24.2,2.239.4.047.942.223,1.254.047.942-.629,1.785-1.344,2.684-2.016-.9-.762-1.742-1.973-2.735-2.106-2.949-.492-6-.27-8.913-.715-13.48-2.2-27.008-4.345-40.445-6.943-12.543-2.423-25.133-.852-37.675-.762-.36,0-.719.4-2.414,1.52,2.551.762,4.118,1.661,5.642,1.614m-107.2,159.426a10.288,10.288,0,0,0,11.914-4.974c.535-.937.989-1.879,1.434-2.864,3.048-6.229,3.677-12.183-1.832-17.607-1.438-1.387-2.419-3.223-3.857-5.193,0-.18-.086-.27-.176-.27-.676,0-10.843,4.388-10.929,5.2-.719,5.017-1.169,10.077-1.794,15.137-.625,5.017,1.477,9.319,5.24,10.574M310.352,476.3c1.477,6,3.36,11.913,5.24,17.782.445,1.477,1.661,2.688,2.821,4.615,3.4-3.271,1.841-5.826.989-8.018a150.32,150.32,0,0,1-9.14-46.319c-.355-7.838.45-15.724.762-23.609.047-.625.313-1.254.313-1.879.668-16.263,5.916-31.314,11.648-46.361,2.239-6.006,2.6-12.77,2.684-19.713-.715.719-1.742,1.391-2.1,2.286-.895,2.372-1.528,4.884-2.29,7.3a110.505,110.505,0,0,1-3.489,10.929,161.294,161.294,0,0,0-12.1,55.993,172.817,172.817,0,0,0,4.662,46.991M294.762,312.983c3.763-2.016,7.71-3.673,11.558-5.557a23.652,23.652,0,0,0,4.431-2.509c8.737-6.854,7.573-14.512,3.181-20.963-2.277-3.228-3.669-6.674-8.283-6.764-2.778-.047-5.064.4-6.986,2.286-6.721,6.537-11.875,14.02-13.707,23.382a15.474,15.474,0,0,0-.454,4.478c.544,7.256,3.947,9.05,10.261,5.646m-35.21-130.488c-2.235-2.376-4.071-4.752-6.361-6.541-.715-.582-3.091-.09-3.848.715-3.63,3.853-7.033,7.975-8.245,13.395-.668,3.138-.578,5.959,2.333,7.975,2.419,1.7,8.378,2.059,10.3.223,3.943-3.9,5.642-8.87,6.229-14.289a3.665,3.665,0,0,0-.407-1.477m-2.016,52.813c-3.579,5.017-7.8,9.542-10.347,15.274-2.235,5.017-2.646,9.632.8,14.469,2.6,3.63,4.217,7.928,6.408,11.828,2.684,4.747,4.7,5.24,9.225,2.192a71.335,71.335,0,0,0,9.722-7.3c9.452-9.05,11.965-25.355,4.932-35.257-1.434-2.012-2.021-4.658-2.958-6.9a6.743,6.743,0,0,0-.625-.4c-7.663-3.36-12.543-.317-17.162,6.092m99.94,62.042c-7.748-14.469-18.947-26.387-28.176-39.782-3.134-4.568-6.408-9.045-9.632-13.57-4.028-5.509-7.885-11.2-12.136-16.528-8.823-10.976-17.834-21.815-26.875-32.611-2.153-2.6-4.756-4.794-7.616-7.663-3.005,4.525-1.079,7.213.98,9.679,7.26,8.69,14.473,17.38,21.948,25.843,9.816,11.113,18.009,23.339,26.61,35.347,5.467,7.616,11.2,15.094,16.67,22.71,3.266,4.525,6.314,9.14,9.362,13.8q10.2,15.52,20.244,31.13a63.143,63.143,0,0,1,3.048,5.646c5.505,10.839,10.972,21.768,16.614,32.564.634,1.212,2.556,2.868,3.587,2.646,2.329-.407,2.466-2.778,1.832-4.662a64.512,64.512,0,0,0-3-6.4c-8.292-17.29-16.888-34.448-28.266-50.081a73.193,73.193,0,0,1-5.2-8.061m168.874,5.462c-.36-.18-.852-.133-1.254-.313-22.71-9.182-46.5-15.634-68.532-26.789-6.764-3.4-14.379-5.372-21.815-7.256a79.487,79.487,0,0,1-23.523-9.854c-6.224-3.943-13.48-3.806-20.381-4.79-.848-.137-1.875.758-2.774,1.164v1.43a59.382,59.382,0,0,0,6.006,1.571c7.748,1.207,14.645,4.388,21.451,8.108a64.609,64.609,0,0,0,16.575,6.627c11.644,2.6,22.265,7.526,32.928,12.453,14.2,6.541,28.532,12.68,43.938,15.95,4.4.895,8.741,2.149,13.082,3.181a15.163,15.163,0,0,0,7.123.265c-.942-.582-1.836-1.207-2.825-1.747m-68.159,164.7c5.36,9.015,9.131,19.024,16.344,26.832.6-.231,1.2-.471,1.794-.7-.12-1.143.111-2.487-.415-3.4q-12.1-21.164-24.384-42.213a68.067,68.067,0,0,0-5.094-7.38c-1.507-1.943-3.335-2.676-5.257-.128,5.689,8.994,11.575,17.86,17.012,26.991" transform="translate(0.003 0.001)" fill="#ff4438"/>
    </g>
  </g>
</svg>
