<svg id="Group_36364" data-name="Group 36364" xmlns="http://www.w3.org/2000/svg" xmlns:xlink="http://www.w3.org/1999/xlink" width="400.536" height="486.305" viewBox="0 0 400.536 486.305">
  <defs>
    <clipPath id="clip-path">
      <rect id="Rectangle_2329" data-name="Rectangle 2329" width="400.536" height="486.305" fill="#ff4438"/>
    </clipPath>
  </defs>
  <g id="Group_35789" data-name="Group 35789" transform="translate(0 0)" clip-path="url(#clip-path)">
    <path id="Path_17778" data-name="Path 17778" d="M21.369,227.025c21.8,10.148,38.3,28.616,53.788,48.249,15.6,19.787,30.1,40.513,31.507,68.28,6.728-2.753,6.373-2.59,2.94-11.174-3.654-9.121-6.383-18.66-9.793-27.9a249.038,249.038,0,0,0-49.927-81.895C37.161,208.648,20.42,199.407,5.491,188.041c-1.851-1.41-3.659-2.9-5.491-4.345q.273-1.69.537-3.381c5.707.364,12.047-1.079,17.015,1.4C44.264,195,68.131,213.286,86.633,239.652c2.743,3.913,3.928,9.145,6.11,13.605,1.947,3.985,4.278,7.745,7.1,12.78.1-8.186.446-13.979.163-19.772-.307-6.378-1.65-12.776-1.712-19.125a218.488,218.488,0,0,1,1.194-23.264c1.338-13.644,3.918-27.134,4.206-40.849.129-6.268-3.932-12.929-6.148-19.389-3.256-9.5-6.56-18.991-10.157-29.4,11.754.163,10.306,13.826,18.123,17.988,2.24-9.452,4.465-18.852,7.337-30.97,4.647,9.184,6.714,16.578,6.254,24.175-1.256,20.583.12,39.7,10.92,58.962,13.859,24.726,21.782,52.651,27.489,80.821,1.957,9.654,1.031,19.878,1.467,29.843.067,1.607.374,3.218.628,5.28,6.637-6.234,12.905-11.687,18.612-17.806,1.333-1.429,1.7-5.5.911-7.716-5.855-16.463-12.967-32.481-18.032-49.184-6.5-21.422-12.617-43.146-16.756-65.125-4.575-24.3-6.776-49.031-9.865-73.584-.283-2.24.484-4.58.762-6.877l2.23-1.252c2.8,4.939,6.8,9.548,8.2,14.876,6.551,25.009,12.445,50.2,18.449,75.354,3.256,13.653,6.2,27.383,9.39,41.055,4.249,18.2,8.6,36.38,13.015,55.011,12.66,1.041,15.806-11.759,21.561-18.065C189.72,189.394,164.3,135.3,150.252,76.907c.762-.676,1.52-1.338,2.283-2.009,2.379,2.321,5.659,4.158,6.982,7.045,8.618,18.77,17.135,37.617,25.048,56.747,7.63,18.439,14.564,37.209,21.628,55.917,1.333,3.544,1.53,7.568,2.767,11.169,2.959,8.6,6.225,17.087,10.258,28.04,4.1-5.644,6.695-9.217,9.222-12.7-33.454-38.739-57.2-154.218-47.227-180.392,2.4,6.239,4.987,11.2,6.21,16.478,5.9,25.422,10.378,51.251,17.413,76.318,6.781,24.165,16.046,47.587,24.3,71.306a66.661,66.661,0,0,0,3.4,7.059c7.942-5.007,10.526-11.9,5.937-19.139-15.859-24.985-21.465-54.095-29.479-82.1-4.235-14.8-5.808-30.51-7.884-45.885-2.676-19.83-4.637-39.732-6.944-59.6-.173-1.487-.614-2.949-.93-4.426Q194.825.372,196.41,0c2.081,4.647,4.676,9.126,6.11,13.979,1.818,6.162,2.657,12.632,3.985,18.957C210.638,52.646,214.173,72.51,219.1,92c6.776,26.788,14.622,53.294,21.988,79.929,1.688,6.1,3.3,12.234,5.16,19.159,8.081-7.246,7.9-14.075,4.479-23.547-7.309-20.247-14.914-40.763-19.034-61.806-4.642-23.7-5.6-48.1-8.1-72.2a18.145,18.145,0,0,1,.494-4.052q1.316-.432,2.642-.858c2.072,5.836,4.791,11.529,6.1,17.533,5.481,25.129,10.32,50.4,15.84,75.522,3.1,14.109,7.059,28.016,10.694,42.249,8.733-5.486,11.668-20.286,7.179-29.455-2.22-4.541-2.9-9.994-4.177-15.063-4.067-16.109-8.5-32.136-11.984-48.369-2.216-10.349-3.122-20.99-4.33-31.526-.24-2.115.825-4.335,1.688-8.392,5.208,6.589,11.3,10.119,10.483,18.794a5.257,5.257,0,0,0,.331,1.76q8.69,31.356,17.4,62.712,1.223.41,2.455.825c.748-3.947,2.6-8.023,2.072-11.821a362.076,362.076,0,0,0-22.074-82.806,16.94,16.94,0,0,1-.743-8.67c12.867,13.121,19.259,30.414,26.726,48.191,3.084-26.592,15.7-44.5,34.361-57.327,1.367-.935,3.932.249,8.584.7-15.245,21.3-28.294,41.741-33.119,68.261,8.594-6.138,15.984-13.183,24.606-17.1,9.332-4.235,16.713-14.795,28.721-11.231,1.88.556,3.625,1.813,5.433,2.748-1.113,1.645-1.928,3.793-3.386,4.848-11.956,8.651-24.491,16.415-35.9,25.853-7.611,6.3-13.831,14.742-20.338,22.578-1.77,2.134-2.335,5.553-2.192,9.889,8.742-4.249,17.648-8.157,26.194-12.833,13.039-7.141,26.875-7.769,41.146-4.551,4.191.95,8.268,3.5,12.123,5.918,1.089.686,1.822,3.669,1.554,5.28-.177,1.06-2.455,2.307-3.769,2.187-28.922-2.6-53.462,11.649-79.008,21.825-2.4.954-3.942,5.011-5.342,7.975-2.988,6.33-5.625,12.886-9.054,20.861,17.048-5.846,32.452-11.231,47.923-16.4,15.49-5.174,31.042-10.133,47.059-14.008-.93,10.574-7.587,15.5-13.658,18.1-20.151,8.642-40.029,18.655-62.444,19.926-5.923.336-11.7,2.081-17.586,2.945-7.539,1.108-10.028,5.227-9.3,17.351,27.767-.019,53.591-10.651,82.542-15.71-3.784,10.248-9.212,15.3-15.634,18.708-16.6,8.8-33.915,15.341-53.1,13.452-6.719-.662-13.38-2.959-20.1-3.928-2.522-.36-6.273-.115-7.534,1.65-6.047,8.459-11.433,17.538-18.382,28.481,27.441-2.882,53.332-3.069,77.037-13.4,23.336-10.172,45.8-22.626,69.249-33-16.195,30.021-43.4,41.986-71.44,53.107,30.711,2.791,61.835,1.4,90.767,17.734.048,1.266.091,2.532.139,3.8-3.443.4-6.92,1.5-10.32,1.074-8.786-1.1-17.523-3.2-26.309-4.273-7.28-.892-14.6-.892-21.9-1.285a2.626,2.626,0,0,0-.8-.019c-16.65,4.532-34.044.024-50.939,2.268-17,2.259-34.2,3.175-51.294,4.844-7.011.681-13.95,2.8-20.947,2.465-10.44-.494-14.406,9.28-21.293,15.452,58.756-19.135,119.9-15.207,181.265-12.507,2.105,2.1,5.4,5.381,10.493,10.459-8.517,1.122-15.456,2.633-22.5,2.858-20.914.676-41.895.5-62.8,1.319-20.468.8-40.931,1.87-61.279,3.813-17.255,1.645-34.567,3.683-51.385,7.611-7.337,1.712-13.495,8.579-19.48,15.039A220.327,220.327,0,0,1,271.936,294.9c33.181,4.613,68.266,11.1,97.586,40.441-17.418,3.649-30.654-6.757-44.993-9.121-21.94-3.611-43.712-9.351-65.657-12.91-10.119-1.64-20.506-.571-30.726-.139-11.888.5-23.748,1.511-35.579,2.647-2.153.206-4.105,2.072-6.153,3.17.24,1.659.484,3.323.724,4.987,10.958.83,21.954,1.079,32.869,2.6,30.519,4.263,58.2,18.621,84.513,36.931,8.858,6.167,17.087,13.691,25.11,21.283,3.132,2.964,4.9,7.807,7.289,11.792q-1.043,1.273-2.086,2.542c-6.239-3.5-12.689-6.56-18.679-10.565-24.654-16.478-51.1-27.762-78.174-36.068-23.345-7.165-47.227-11.773-70.985-16.478-9.284-1.842-19.187-2.4-28.217-.619-5.721,1.132-10.349,7.663-16.833,12.867C178.158,374,232.31,397.116,290.4,401.648c.153,1.1.312,2.192.465,3.285-4.321,2.522-8.436,6.805-13.006,7.2-10.853.95-22.036,1.419-32.884-.393-18.516-3.093-36.874-8.09-57.567-12.8,17.667,15.945,33.675,31.555,46.081,52.829-8.052,2.364-12.047-4.119-16.2-7.534-23.129-18.976-45.338-39.511-68.937-57.639-12.368-9.5-26.822-15.452-40.533-22.458-7.745-3.956-10.258,3.28-13.811,9.251,22.108,6.488,37.415,22.458,47.9,44.22,8.018,16.631,8.718,34.874,8.723,53.044,0,7.006-4.4,9.658-8.368,15.653-4.249-15.615-7.663-29.148-11.625-42.508-7.707-26.011-21.619-46.561-43.424-59.907-3.5-2.139-6.891-4.5-10.881-7.121,8.661-11.668-.436-20.194-5.558-27.853A176.468,176.468,0,0,0,23.935,300.94a9.614,9.614,0,0,1-2.335-2.546,41.467,41.467,0,0,1-2.067-3.841c22.861-5.731,57.663,28.817,68.5,67.479,12.589-4.844,14.943-15.284,8.009-29.944C85.554,309.9,72.1,290.174,56.886,271.946c-10.454-12.526-21.906-24-32.8-36.068-1.774-1.971-2.978-4.6-4.446-6.925.575-.643,1.156-1.285,1.731-1.928" transform="translate(0 0)" fill="#ff4438"/>
  </g>
</svg>
