<svg xmlns="http://www.w3.org/2000/svg" xmlns:xlink="http://www.w3.org/1999/xlink" width="675.907" height="643.567" viewBox="0 0 675.907 643.567">
  <defs>
    <clipPath id="clip-path">
      <rect id="Rectangle_2622" data-name="Rectangle 2622" width="548.755" height="498.385" fill="#ff4438"/>
    </clipPath>
  </defs>
  <g id="Group_36319" data-name="Group 36319" transform="matrix(-0.951, 0.309, -0.309, -0.951, 703.699, 543.435)">
    <g id="Group_36318" data-name="Group 36318" transform="translate(4.974 74.632)" clip-path="url(#clip-path)">
      <path id="Path_39521" data-name="Path 39521" d="M166.9,382.431c-9.757,6.4-20.193,8.606-31.522,4.7-2.084-.719-4.168-1.72-6.325-1.918-6.551-.61-12.508-2.843-18.327-5.747A40.775,40.775,0,0,0,93.307,375a34.962,34.962,0,0,1-5.949-.929c-6.207-1.248-12.382-1.587-18.562.145a8.4,8.4,0,0,1-2.359.283c-.275,0-.533-.485-.8-.743,4.257-3.166,11.954-5.6,16.562-5,12.572,1.636,25.185,3.134,36.683,9.216,2.245,1.183,5,1.414,7.516,2.088,2.912.775,6,1.163,8.7,2.411,10.161,4.717,19.616,2,29-2.286,1.329-.606,2.67-1.175,4-1.761.271.319.541.642.808.957-.654,1.034-1.066,2.443-2,3.049m138.99,43.056c11.8,3.308,21.078,10.315,28.267,20.1,2.229,3.037,3.615,6.692,5.436,10.044,3.59,6.611,8.57,11.437,15.985,13.832,4.753,1.535,9.253,3.934,13.768,6.131a7.442,7.442,0,0,1,3.558,4.079c-.864.061-1.838.424-2.561.137-6.745-2.637-13.546-5.153-20.133-8.166a27.4,27.4,0,0,1-13.582-13.227c-2.73-5.6-5.145-11.5-10.048-15.609-5.069-4.249-10.42-8.134-15.69-12.128-1.858-1.414-3.829-2.678-5.751-4.014.254-.392.5-.788.751-1.179M171.055,194.311c-4.111-7.14-8.865-13.962-12.451-21.352-7.084-14.6-11.058-30.209-13.634-46.214-1.28-7.94-2.948-15.819-4.443-23.723a6.1,6.1,0,0,1-.311-1.167c.044-1.991-.182-4.531,2.415-4.794,2.5-.242,2.427,2.116,2.556,3.946a245.4,245.4,0,0,0,7.128,44.142c3.752,14.664,9.006,28.691,17.435,41.554,7.815,11.942,14.6,24.567,21.772,36.933,2.411,4.164,4.689,8.412,6.9,12.689a20.705,20.705,0,0,1,1.159,3.974c-.468.2-.941.4-1.414.6-2.443-4.006-4.964-7.964-7.314-12.027-6.627-11.5-13.158-23.065-19.8-34.563m-83.043,4.164a166.412,166.412,0,0,1-12.556-36.982c-.093-.4.5-.953,1.082-2,.779,1.353,1.632,2.225,1.8,3.219a114.434,114.434,0,0,0,12.031,34.07c4.394,8.328,9.228,16.437,16.991,22.439,3.441,2.661,6.038,6.438,8.881,9.83.578.707.513,1.943.933,3.724-11.413-10.84-22.435-20.524-29.163-34.3M71.639,259.769c-9.022-6.583-18.069-13.117-26.994-19.822-.888-.67-1.026-2.359-1.838-4.406,5.274.929,7.492,4.939,10.9,6.995,3.586,2.157,6.648,5.153,10.044,7.625,3.336,2.419,7.1,4.37,8.849,8.356-.327.416-.65.836-.965,1.252m476.795-60.3a124.017,124.017,0,0,0-5.921-14.535c-2.532-5.5-6.631-7.185-12.3-5.327-2.116.678-4.18,1.523-6.252,2.326-11.627,4.689-23.291,9.127-36.174,8.623a38.491,38.491,0,0,0-5.416.59c-15.254,1.817-29.03,8.324-43.189,13.651-5.622,2.112-10.856,5.452-16.562,7.225a194.018,194.018,0,0,0-33.476,13.945,54.633,54.633,0,0,1-18.76,6.425c-8.788,1.143-13.816-1.1-18.17-8.623-2.456-4.265-2.411-6.8.965-10.351a44.217,44.217,0,0,1,8.2-7.144c11.373-7.1,23.545-12.508,36.772-15.129,10.48-2.027,21-4.14,31.606-5.323a62.351,62.351,0,0,0,18.683-4.733c6.975-3.13,13.9-6.466,20.67-10.06,6.886-3.72,13.6-7.774,20.411-11.7,3.292-1.9,6.971-3.465,9.761-5.961,6.89-6.211,13.311-12.932,20.068-19.313,7.564-7.185,9.087-15.763,6.26-25.484-1.733-5.872-4.144-11.369-8.287-15.973-3.255-3.594-5.194-3.594-8.408-.044-3.421,3.72-6.676,7.564-10.1,11.244-5.327,5.747-10.694,11.494-16.187,17.116-7.015,7.225-13.566,14.959-22.1,20.581-14.454,9.636-28.989,19.058-45.261,25.4-4.862,1.9-9.636,4.269-15.133,3.675-8.534-.929-14.83-11.159-10.989-18.424a33.759,33.759,0,0,1,7.354-9.467c9.345-8.243,20.629-12.637,32.8-14.5,11.664-1.729,21.259-8.493,31.865-12.762,1.563-.634,2.746-2.322,4.014-3.635,2.411-2.447,4.608-5.068,7.1-7.395,6.51-6.042,13.356-11.748,19.616-18.045a41.388,41.388,0,0,0,9.971-17.75c.8-2.706.759-5.367-1.054-7.48a105.646,105.646,0,0,0-10.48-10.775c-2.5-2.157-4.527-1.143-6.219,1.983-1.9,3.55-3.546,7.354-6.082,10.4C472.192,69.69,465.981,76.326,459.854,83a29.271,29.271,0,0,1-3.724,3.13c-5.791,4.394-11.575,8.748-17.407,13.057a24.582,24.582,0,0,1-3.639,1.862c-2.153-3.679-.42-6.215,1.393-8.582,2.076-2.7,4.608-5.113,6.555-7.944,5.832-8.493,11.708-16.946,17.116-25.694,4.014-6.51,8.453-12.976,9.6-20.751.38-2.407.166-5.493-1.062-7.439-2.577-4.055-5.493-8.2-9.208-11.114-8.582-6.72-17.5-12.972-28.533-15.468-6.587-1.478-7.476-1.858-10.436,4.4a203.379,203.379,0,0,0-9.043,22.439c-3.55,10.69-7.1,21.34-13.231,31.021-2.193,3.506-3.086,7.859-4.685,11.748q-3.871,9.129-7.992,18.214c-.755,1.648-1.813,3.3-4.519,2.492a19.284,19.284,0,0,1-1.313-2.956c-1.858-6.3-.889-12.427,1.143-18.469,6.171-18.554,12.043-37.273,21.175-54.687a31.961,31.961,0,0,0,1.943-6.337c.634-2.2-.21-3.845-1.943-5.283C389.065-3.926,368.993-.59,363.2,14.413c-.295.759-.715,1.438-1.054,2.2-7.694,16.651-11.623,34.316-13.275,52.531q-2.344,25.928-5.157,51.812a22.5,22.5,0,0,1-8.534,15.553,8.125,8.125,0,0,1-9.547.929,14.891,14.891,0,0,1-6.89-8.114c-4.144-10.056-3.59-20.541-2.492-31.021,1.014-9.8,2.237-19.608,3.97-29.329,1.143-6.506,2.577-13.142,5.2-19.143,5.113-11.623,7.27-23.921,10.315-36.009,1.094-4.394-.218-7.645-4.527-9.971C327.237,1.691,323.3-.082,318.7,0c-5.069.085-10.141-.085-15.125.295C289.67,1.4,275.639,9.68,270.183,25.273c-4.1,11.623-4.988,23.541-5.069,35.714a143.239,143.239,0,0,0,6.046,42.979c2.149,7.14,5.028,14.115,6.761,21.34,2.916,12.172,5.448,24.426,7.52,36.768a85.946,85.946,0,0,1,.594,18.045c-.3,6.676-4.818,9.551-11.369,7.524-8.707-2.706-15.3-8.2-18.554-16.865a175.206,175.206,0,0,1-5.327-18.469c-4.305-17.326-5.448-35.076-6.207-52.826-.339-7.056-.763-14.115-.888-21.171a38.812,38.812,0,0,1,1.01-10.145c3.086-12.084,6.51-24.131,9.725-36.215a22.764,22.764,0,0,0,.8-4.778c.166-4.14-2.2-5.787-5.666-3.635a16.976,16.976,0,0,0-4.519,4.648c-5.618,8.158-7.31,17.835-10.141,27.091-.42,1.353-1.054,2.661-1.983,4.988-3.219-5.832-3.255-10.694-1.607-15.638,1.9-5.537,4.1-10.989,5.787-16.567a47.772,47.772,0,0,0,1.858-10.69c.254-4.269-2.746-6.256-6.761-4.818a15.425,15.425,0,0,0-3.211,1.688c-4.273,2.581-9,3.34-13.816,4.184-7.1,1.228-14.159,3.045-21.175,4.863a8.958,8.958,0,0,0-3.893,2.661c-3.8,4.1-6.712,8.833-7.35,14.37-.884,8.2-1.519,16.437-1.688,24.68a128.119,128.119,0,0,0,1.228,18.085c.965,7.778,2.149,15.6,3.76,23.246A130.054,130.054,0,0,0,190.9,122.56c2.96,8.368,6.046,16.651,9.426,24.805,4.18,10.06,9.636,19.652,12.972,29.963,4.39,13.566,7.306,27.64,10.815,41.542a47.362,47.362,0,0,1,.759,6.171c-1.943.214-3.376.719-4.644.464-8.578-1.688-15.3-5.747-19.018-14.2-6.337-14.365-13.816-28.315-17.035-43.864-2.233-10.864-5.149-21.639-6.292-32.628-1.268-12-1.014-24.171-1.143-36.259-.04-10.27-2.871-19.9-6.337-29.369-.759-2.072-2.241-3.55-4.568-3.384-5.024.384-10.181.339-15,1.523-8.788,2.157-17.451,4.943-26.033,7.774a10.836,10.836,0,0,0-5.242,3.679c-4.988,6.971-7.395,14.495-5.876,23.327,1.9,11.03,4.313,21.764,9.176,31.909,4.1,8.493,7.52,17.366,12.043,25.694,5.662,10.436,12.084,20.5,18.255,30.637,5.751,9.467,11.619,18.848,17.54,28.23a59.275,59.275,0,0,1,9.172,25.4,40.737,40.737,0,0,1,.085,9.636c-.8,5.961-3.425,8.368-9.345,8.073a45.753,45.753,0,0,1-12.209-2.791c-6.551-2.326-10.48-8.029-15.254-12.637-15.852-15.084-23.881-34.272-28.61-54.982-2.451-10.605-3.51-21.51-5.367-32.245-1.987-11.365-4.1-22.653-6.341-33.933-1.611-8.073-5.957-10.185-13.61-6.975-2.787,1.183-5.836,1.943-8.449,3.38a101.348,101.348,0,0,0-9.895,6.676c-1.434,1.058-2.407,2.75-3.841,3.849-4.737,3.465-7.564,8.283-10.02,13.437-1.349,2.916-2.451,6.046-4.265,8.707-6.93,9.971-4.822,20.411-1.4,30.722,3.51,10.65,9.85,19.567,17.075,28.23a380.348,380.348,0,0,0,45.806,45.73,85.56,85.56,0,0,0,10.234,7.52c10.48,6.381,21.255,12.427,31.7,18.893a62.683,62.683,0,0,1,10.226,8.449c2.746,2.706,2.488,4.988-.674,6.975a15.159,15.159,0,0,1-6.636,2.367c-9.555.719-18.513-2.237-26.627-6.805-9.975-5.662-19.951-11.619-29.074-18.549-16.861-12.807-33.089-26.417-49.57-39.684a22.2,22.2,0,0,1-1.733-1.692c-6.68-6.761-13.315-13.481-19.955-20.242-1.179-1.183-2.367-2.411-4.136-1.143-1.733,1.183-1.268,2.665-.424,4.228,1.733,3.211,2.96,6.72,5.032,9.677,3.97,5.747,7.48,12.3,12.758,16.607,10.908,8.917,22.778,16.611,34.272,24.809,4.818,3.421,8.287,7.988,11.542,12.932-2.536,2.831-5.541,3.041-8.538,3-3.041-.044-6.042-.254-9.087-.295a45.262,45.262,0,0,1-24.551-7.439,64.088,64.088,0,0,1-18.049-17.665c-3.97-5.747-8.114-11.454-12.423-16.991-4.737-6.127-10.48-5.113-14.03,1.563C.43,253.061.224,261.429.014,269.5-.281,280.233,4.364,289.4,13.7,295.7a49.33,49.33,0,0,1,8.029,6.425c10.056,10.521,23.5,14.454,36.639,18.933,4.188,1.434,8.7,2.112,12.6,4.055,5.573,2.791,11.07,5.242,17.366,6.551,8.837,1.817,17.326,5.327,25.993,8.029,15.718,4.9,31.441,9.681,47.923,11.623,4.313.509,8.534,2.326,12.762,3.635.335.125.5.889,1.228,2.237-2.367-.25-4.059-.46-5.751-.59-6.587-.634-13.267-2.072-19.818-1.648-14.285.889-28.481,3-42.769,4.1-12.548.929-24.591-1.478-35.29-8.408-6.587-4.313-12.722-9.257-19.1-13.905a26.843,26.843,0,0,0-14.034-5.2c-6.038-.424-11.026,1.6-14.446,6.971-1.692,2.706-1.781,4.9.335,7.649,6.68,8.622,11.07,18.214,11.833,29.288.125,2.2.25,4.608,1.183,6.51,1.228,2.661,2.7,5.577,4.9,7.395a31.557,31.557,0,0,0,24.22,7.354,153.377,153.377,0,0,1,18.679-1.183c8.073.166,15.718,1.434,22.564,6.971a48.256,48.256,0,0,0,17.12,8.663c9.846,2.666,20.068,4.523,30.472,3.211a145.238,145.238,0,0,0,14.874-2.2c11.7-2.7,18.933-11.918,26.877-19.733,3.465-3.384,5.367-8.453,7.564-12.932,2.787-5.791,6.292-10.355,13.307-10.82,1.611-.129,3.174-.719,4.782-.929,5.747-.848,8.618,2.492,6.377,7.9a51.924,51.924,0,0,1-6.086,10.4c-4.56,6.127-10.137,11.579-10.561,19.862,0,.38-.339.759-.424,1.139-.884,4.1-2.367,8.2-2.492,12.383-.464,13.271,0,26.627-.674,39.894-.683,12.807,4.265,23.2,11.874,32.753,3.889,4.943,9.293,6.72,15.593,6.211,4.564-.335,9.208-.085,13.776-.125,1.862-.044,3.675-.129,5.791-.21-.634-5.666-3.506-8.917-6.506-12.257a159.659,159.659,0,0,1-10.989-12.847,37.155,37.155,0,0,1-7.314-17.709c-.42-3.8-1.094-7.564-1.482-11.409-.291-3.085-.759-6.256,1.4-10.185a57.645,57.645,0,0,1,3.13,4.9c5.242,11.579,10.056,23.327,18.045,33.428a3.037,3.037,0,0,1,.254.549c2.241,3.38,4.309,6.846,6.757,10.06,4.951,6.381,11.078,7.056,17.374,2.407,2.912-2.157,6.171-3.845,8.962-6.127a102.108,102.108,0,0,0,11.615-10.48c4.358-4.778,3.425-7.524-2.577-9.891-.376-.125-.759-.295-1.139-.38-9.047-1.817-15.977-7.31-22.988-12.891-9.681-7.69-11.5-17.96-10.735-29.284.125-1.482.925-2.916,1.559-4.818,1.482.549,2.2.634,2.577,1.014q19.531,18.513,39.054,37.063c3.086,2.916,5.913,6.171,9.382,8.538a24.851,24.851,0,0,1,8.279,9.382c1.7,3.211,3.255,6.506,4.951,9.721,2.488,4.648,5.113,9.8,10.141,11.664,8.493,3.081,17.241,6.337,26.449,5.787a87.08,87.08,0,0,1,28.1,3.255c7.738,2.157,13.949,0,18.6-5.408,6.805-7.948,15.214-13.78,23.2-20.286,4.907-4.014,5.157-7.819.258-11.878a14.516,14.516,0,0,0-6.466-3,54.758,54.758,0,0,0-12.043-.464c-14.628,1.143-28.993.339-42.9-4.943-4.313-1.648-8.073-3.675-10.69-7.48a84.411,84.411,0,0,0-20.286-20.541C329.564,415.3,318.36,406.974,304.8,402.7c-5.367-1.688-10.609-3.8-15.936-5.7-13.186-4.693-22.184-14.37-29.838-25.484a22.341,22.341,0,0,1-3.162-7.778,5.558,5.558,0,0,1,1.514-4.649c1.143-.844,3.344-.464,5.032-.335a4.152,4.152,0,0,1,2.031,1.224,177.06,177.06,0,0,0,27.935,19.1,61.837,61.837,0,0,0,21.51,7.564c5.493.889,10.9,2.621,16.352,3.974,3.13.8,6.215,1.858,9.341,2.492,4.733.973,9.551,1.777,14.325,2.451,6.765.973,13.566,1.692,20.327,2.621,5.581.8,11.155,1.438,16.607,2.7,5.117,1.183,9.931,3.51,15.008,4.608a109.479,109.479,0,0,1,20.2,6.127c4.729,2.116,9.927,3.13,14.959,4.523q9.881,2.726,19.818,5.323a35.705,35.705,0,0,0,7.015,1.228c8.837.464,15.512-4.014,20.965-10.185,5.872-6.635,11.789-13.4,16.607-20.791,4.9-7.564,8.534-15.977,12.677-24.091.509-1.014.339-2.367.678-3.55.925-3.255,1.733-6.551,2.952-9.677,1.611-4.144,2.54-8.114.174-12.213-1.817-3.211-4.988-4.228-8.118-2.282-1.224.759-2.108,1.943-3.251,2.7-4.018,2.665-7.815,5.917-12.217,7.694-4.988,1.987-10.48,2.871-15.8,3.889-13.485,2.492-26.962,5.323-40.528,7.015-16.486,2.068-33.048,2.451-49.239-2.75a32.685,32.685,0,0,0-3.506-.8c-12.043-2.621-24.046-5.2-35.665-9.382a40.309,40.309,0,0,0-13.651-2.116c-10.27.044-20.581.8-30.855,1.187a59.291,59.291,0,0,1-9.087-.384,32.49,32.49,0,0,1-16.013-6.676c-1.438-1.1-3.126-2.706-1.519-4.523,3.59-4.055,7.181-8.534,12.883-9.551a43.1,43.1,0,0,1,25.488,2.831c3.974,1.777,8.453,2.536,12.8,3.17,6.337.973,12.766,1.648,19.184,2.072a171.059,171.059,0,0,0,18.642.464c6.846-.339,13.82-.634,20.411-2.237,15.258-3.764,30.888-2.5,46.271-4.228,6.809-.759,13.78.085,20.545-.759,11.833-1.523,23.323.549,34.95,1.773,4.98.549,10.012.509,15,.973,9.341.889,14.458-4.523,16.995-12.382,4.479-13.99,8.409-28.23,12.3-42.43,1.607-5.917.549-11.284-4.224-16.017-7.144-7.14-8.243-7.354-15.848-1.1-4.951,4.059-9.895,8.788-15.682,11.03-12.387,4.778-24.68,10.06-37.911,12.508-9.673,1.777-19.014,5.537-29.07,5.537a53.971,53.971,0,0,0-9.006.889c-13.138,2.157-26.284,4.309-39.429,6.72-7.1,1.268-14.111,3.041-21.171,4.648-8.239,1.858-16.437,3.974-24.725,5.537-5.573,1.014-11.369.719-16.821,2.027-9.883,2.367-17.915-.8-25.185-6.975a6.224,6.224,0,0,1-2.072-4.014c.044-5.787,6.89-14.115,12.766-15.214,3.76-.719,7.734-1.438,11.405-.844,11.328,1.733,22.532.634,33.816.295a190.405,190.405,0,0,0,52.276-8.917c5.743-1.817,11.11-4.818,16.9-6.421,13.186-3.72,26.582-6.805,39.813-10.355,8.962-2.451,17.79-5.242,26.663-7.944,3.255-1.014,6.51-2.112,9.725-3.38a117.259,117.259,0,0,0,11.664-4.947c4.984-2.577,9.806-5.577,14.62-8.449,9.382-5.581,17.33-12.637,21.385-23.117a12.736,12.736,0,0,0,.638-7.484M199.1,336.822a31.249,31.249,0,0,1-13.816-9.382c-1.692-1.947-2.706-4.1-1.268-6.6,1.187-1.983,4.228-2.577,7.144-1.224a29.083,29.083,0,0,1,5.109,3.17c4.188,3.126,8.287,6.381,12.342,9.636a7.81,7.81,0,0,1,1.228,2.153c-3.211,3.17-7.144,3.425-10.739,2.241m26-40.063c-.044.59,0,1.353-.339,1.733-5.242,8.622-15.642,6.466-18.727-.044-1.559-3.251-4.729-5.493-6.882-8.408a14.813,14.813,0,0,1-3-10.82c.929-6.8,6.171-10.056,12.714-7.819A24.243,24.243,0,0,1,225.1,296.759M349.85,372.492c6.676,1.478,13.311,3,19.943,4.519,6.09,1.393,12.386,2.2,18.17,4.438,7.524,2.876,15.3,3.59,23.081,4.309,12.423,1.058,24.886,1.733,37.357,2.2,5.412.214,10.856-.464,16.272-.759,4.01-.21,8.029-.634,12.039-.719,2.2-.04,4.527.295,4.7,3.255-.424.424-.723.929-1.018.929-13.061.17-25.864,3.51-39.09,1.987-13.61-1.563-27.386-1.943-41-3.425-5.707-.634-11.24-2.916-16.9-4.309-5.618-1.393-11.373-2.536-17.035-3.889-5.234-1.224-10.521-2.536-15.714-4.055-2.706-.844-2.625-1.1-4.313-4.818,1.349.125,2.451.125,3.51.339m77.97-65.717c18.808,1.054,36.853-3.38,55.1-6.72,7.48-1.353,15.214-1.438,22.826-2.112.38-.044.889-.21,1.183-.044.888.594,1.684,1.268,2.532,1.9-.848.719-1.644,1.862-2.581,1.987-2.783.464-5.662.254-8.408.674-12.718,2.072-25.48,4.1-38.157,6.551-11.833,2.286-23.711.8-35.544.719-.339,0-.678-.38-2.278-1.434,2.407-.719,3.885-1.567,5.323-1.523M326.688,156.367a9.706,9.706,0,0,1,11.24,4.693c.5.884.933,1.773,1.353,2.7,2.875,5.876,3.469,11.494-1.729,16.611a37.855,37.855,0,0,0-3.639,4.9c0,.17-.081.254-.166.254-.638,0-10.23-4.14-10.311-4.9-.678-4.733-1.1-9.507-1.692-14.281-.59-4.733,1.393-8.792,4.943-9.975M292.8,49.024c1.393-5.662,3.17-11.24,4.943-16.777.42-1.393,1.567-2.536,2.661-4.354,3.211,3.086,1.737,5.5.933,7.564a141.815,141.815,0,0,0-8.623,43.7c-.335,7.395.424,14.834.719,22.273.044.59.295,1.183.295,1.773.63,15.343,5.581,29.543,10.989,43.739,2.112,5.666,2.451,12.047,2.532,18.6-.674-.678-1.644-1.313-1.983-2.157-.844-2.237-1.442-4.608-2.161-6.89a104.267,104.267,0,0,0-3.292-10.311A152.17,152.17,0,0,1,288.4,93.357a163.037,163.037,0,0,1,4.4-44.332M278.087,203.107c3.55,1.9,7.274,3.465,10.9,5.242a22.318,22.318,0,0,1,4.18,2.367c8.243,6.466,7.144,13.691,3,19.777-2.149,3.045-3.461,6.3-7.815,6.381-2.621.044-4.778-.38-6.591-2.157-6.341-6.167-11.2-13.227-12.932-22.059a14.6,14.6,0,0,1-.428-4.224c.513-6.846,3.724-8.538,9.681-5.327M244.869,326.213c-2.108,2.241-3.841,4.483-6,6.171-.674.549-2.916.085-3.631-.674-3.425-3.635-6.635-7.524-7.778-12.637-.63-2.96-.545-5.622,2.2-7.524,2.282-1.6,7.9-1.943,9.717-.21,3.72,3.675,5.323,8.368,5.876,13.481a3.458,3.458,0,0,1-.384,1.393m-1.9-49.825c-3.376-4.733-7.354-9-9.761-14.41-2.108-4.733-2.5-9.087.759-13.651,2.456-3.425,3.978-7.48,6.046-11.159,2.532-4.479,4.438-4.943,8.7-2.068a67.3,67.3,0,0,1,9.172,6.886c8.917,8.538,11.288,23.921,4.653,33.262-1.353,1.9-1.906,4.394-2.791,6.506a6.365,6.365,0,0,1-.59.38c-7.229,3.17-11.833.3-16.191-5.747m94.286-58.532c-7.31,13.651-17.875,24.894-26.582,37.531-2.956,4.309-6.046,8.534-9.087,12.8-3.8,5.2-7.439,10.565-11.45,15.593-8.324,10.355-16.825,20.581-25.355,30.766-2.031,2.451-4.487,4.523-7.185,7.229-2.835-4.269-1.018-6.805.925-9.131,6.85-8.2,13.655-16.4,20.706-24.381,9.261-10.484,16.991-22.019,25.1-33.347,5.157-7.185,10.565-14.24,15.726-21.425,3.081-4.269,5.957-8.623,8.832-13.017q9.626-14.642,19.1-29.369a59.562,59.562,0,0,0,2.876-5.327c5.194-10.226,10.351-20.537,15.674-30.722.6-1.143,2.411-2.706,3.384-2.5,2.2.384,2.326,2.621,1.729,4.4A60.848,60.848,0,0,1,368.823,163c-7.823,16.312-15.932,32.5-26.667,47.248a69.063,69.063,0,0,0-4.9,7.6M496.574,212.7c-.339.17-.8.125-1.183.295-21.425,8.663-43.868,14.749-64.655,25.274-6.381,3.211-13.566,5.068-20.581,6.845a74.991,74.991,0,0,0-22.192,9.3c-5.872,3.72-12.718,3.59-19.228,4.519-.8.129-1.769-.715-2.617-1.1v-1.349A56.037,56.037,0,0,1,371.784,255c7.31-1.139,13.816-4.14,20.238-7.649a60.954,60.954,0,0,1,15.638-6.252c10.985-2.451,21.005-7.1,31.065-11.748,13.4-6.171,26.918-11.962,41.453-15.048,4.148-.844,8.247-2.027,12.342-3a14.3,14.3,0,0,1,6.72-.25c-.888.549-1.733,1.139-2.665,1.648M432.27,57.32c5.056-8.505,8.614-17.948,15.42-25.314.565.218,1.131.444,1.692.662-.113,1.078.1,2.346-.392,3.207q-11.413,19.967-23,39.825a64.213,64.213,0,0,1-4.806,6.963c-1.422,1.834-3.146,2.524-4.96.121,5.367-8.485,10.921-16.849,16.05-25.464" transform="translate(0.002 0.001)" fill="#ff4438"/>
    </g>
  </g>
</svg>
