<svg xmlns="http://www.w3.org/2000/svg" xmlns:xlink="http://www.w3.org/1999/xlink" width="377.097" height="457.848" viewBox="0 0 377.097 457.848">
  <defs>
    <clipPath id="clip-path">
      <rect id="Rectangle_2329" data-name="Rectangle 2329" width="377.097" height="457.848" transform="translate(0 0)" fill="#ff4438"/>
    </clipPath>
  </defs>
  <g id="Group_36316" data-name="Group 36316" transform="translate(-36 -152.925)">
    <g id="Group_35789" data-name="Group 35789" transform="translate(36 152.924)" clip-path="url(#clip-path)">
      <path id="Path_17778" data-name="Path 17778" d="M20.119,244.108c20.525-9.554,36.061-26.941,50.64-45.425C85.451,180.054,99.1,160.54,100.423,134.4c6.335,2.592,6,2.438,2.768,10.52-3.44,8.588-6.009,17.568-9.22,26.264a234.465,234.465,0,0,1-47.006,77.1c-11.978,13.125-27.74,21.826-41.8,32.526C3.427,282.138,1.725,283.538,0,284.9q.257,1.592.506,3.183c5.373-.343,11.342,1.016,16.019-1.314,25.149-12.516,47.62-29.727,65.039-54.55,2.583-3.684,3.7-8.61,5.752-12.809,1.833-3.752,4.027-7.292,6.687-12.032.095,7.707.42,13.161.154,18.615-.289,6-1.553,12.028-1.612,18.006a205.7,205.7,0,0,0,1.124,21.9c1.26,12.845,3.689,25.546,3.96,38.459.122,5.9-3.7,12.172-5.788,18.254-3.066,8.949-6.177,17.879-9.563,27.681,11.066-.154,9.7-13.017,17.062-16.936,2.108,8.9,4.2,17.748,6.908,29.158,4.375-8.646,6.321-15.608,5.888-22.76-1.183-19.378.113-37.375,10.281-55.512,13.048-23.279,20.507-49.57,25.88-76.091,1.842-9.089.971-18.715,1.382-28.1.063-1.513.352-3.03.591-4.971,6.249,5.87,12.15,11,17.523,16.764,1.255,1.345,1.6,5.179.858,7.265-5.513,15.5-12.209,30.58-16.976,46.306-6.118,20.169-11.879,40.621-15.775,61.314-4.307,22.878-6.38,46.161-9.287,69.278-.266,2.108.456,4.312.718,6.475l2.1,1.178c2.637-4.65,6.4-8.989,7.716-14.006,6.167-23.546,11.716-47.259,17.369-70.944,3.066-12.854,5.833-25.781,8.84-38.653,4-17.134,8.1-34.251,12.254-51.792,11.92-.98,14.881,11.071,20.3,17.008-17.288,54.257-41.217,105.181-54.446,160.161.718.637,1.431,1.26,2.149,1.892,2.239-2.185,5.328-3.914,6.574-6.633,8.113-17.672,16.132-35.416,23.582-53.426,7.183-17.36,13.712-35.032,20.363-52.645,1.255-3.337,1.44-7.125,2.605-10.515,2.786-8.1,5.86-16.087,9.658-26.4,3.86,5.314,6.3,8.678,8.682,11.956-31.5,36.472-53.85,145.193-44.464,169.836,2.258-5.874,4.7-10.543,5.847-15.514,5.558-23.934,9.77-48.252,16.394-71.852,6.384-22.751,15.107-44.8,22.878-67.134a62.76,62.76,0,0,1,3.2-6.646c7.477,4.714,9.91,11.2,5.59,18.019-14.931,23.523-20.209,50.929-27.754,77.292-3.987,13.938-5.468,28.724-7.423,43.2-2.519,18.67-4.366,37.407-6.538,56.112-.163,1.4-.578,2.777-.876,4.167q1.5.345,2.989.7c1.959-4.375,4.4-8.592,5.752-13.161,1.711-5.8,2.5-11.893,3.752-17.848,3.892-18.557,7.219-37.258,11.856-55.611,6.38-25.221,13.766-50.175,20.7-75.252,1.589-5.748,3.106-11.518,4.858-18.037,7.608,6.822,7.436,13.252,4.217,22.169-6.881,19.062-14.042,38.378-17.92,58.189-4.37,22.313-5.269,45.285-7.621,67.978a17.083,17.083,0,0,0,.465,3.815q1.239.406,2.488.808c1.95-5.495,4.51-10.854,5.743-16.507,5.161-23.659,9.716-47.453,14.913-71.1,2.917-13.283,6.646-26.377,10.068-39.777,8.222,5.165,10.985,19.1,6.759,27.731-2.09,4.276-2.727,9.409-3.933,14.182-3.829,15.166-8,30.255-11.283,45.538-2.086,9.743-2.939,19.762-4.077,29.682-.226,1.991.777,4.082,1.589,7.9,4.9-6.2,10.637-9.527,9.87-17.694a4.95,4.95,0,0,1,.312-1.657q8.181-29.521,16.38-59.043,1.151-.386,2.312-.777c.7,3.716,2.452,7.554,1.95,11.129a340.887,340.887,0,0,1-20.783,77.961,15.949,15.949,0,0,0-.7,8.163c12.114-12.353,18.132-28.634,25.162-45.371,2.9,25.036,14.778,41.895,32.35,53.972,1.287.88,3.7-.235,8.082-.664C293.827,434.51,281.542,415.267,277,390.3c8.091,5.779,15.048,12.412,23.166,16.1,8.786,3.987,15.735,13.929,27.04,10.574a31.46,31.46,0,0,0,5.115-2.587c-1.047-1.549-1.815-3.571-3.188-4.565-11.256-8.145-23.058-15.455-33.8-24.34-7.165-5.928-13.021-13.879-19.148-21.257-1.666-2.009-2.2-5.228-2.063-9.31,8.231,4,16.615,7.68,24.661,12.082,12.276,6.723,25.3,7.314,38.739,4.285,3.946-.894,7.784-3.3,11.414-5.572,1.025-.646,1.716-3.454,1.463-4.971-.167-1-2.312-2.172-3.549-2.059-27.23,2.447-50.333-10.967-74.385-20.548-2.262-.9-3.711-4.718-5.03-7.508-2.813-5.96-5.3-12.132-8.524-19.64,16.051,5.5,30.553,10.574,45.118,15.441,14.583,4.872,29.226,9.54,44.306,13.188-.876-9.956-7.143-14.592-12.859-17.044-18.972-8.136-37.687-17.563-58.79-18.76-5.576-.316-11.017-1.96-16.556-2.772-7.1-1.043-9.441-4.921-8.759-16.335,26.142.018,50.455,10.028,77.712,14.791-3.562-9.649-8.673-14.4-14.719-17.613-15.626-8.285-31.93-14.443-49.99-12.665-6.326.623-12.6,2.786-18.927,3.7-2.375.339-5.906.108-7.093-1.553-5.693-7.964-10.764-16.511-17.306-26.815,25.835,2.714,50.211,2.89,72.529,12.619,21.97,9.576,43.123,21.3,65.2,31.072-15.247-28.264-40.861-39.529-67.26-50,28.914-2.628,58.216-1.318,85.455-16.7.045-1.192.086-2.384.131-3.576-3.242-.379-6.515-1.413-9.716-1.011-8.271,1.034-16.5,3.012-24.769,4.023-6.854.84-13.744.84-20.615,1.21a2.472,2.472,0,0,1-.749.018c-15.676-4.267-32.052-.023-47.958-2.136-16.006-2.127-32.2-2.989-48.292-4.56-6.6-.641-13.134-2.632-19.722-2.321-9.829.465-13.563-8.737-20.047-14.547,55.318,18.015,112.879,14.317,170.658,11.775,1.982-1.973,5.084-5.066,9.879-9.847-8.019-1.057-14.552-2.479-21.18-2.691-19.69-.637-39.443-.474-59.124-1.242-19.27-.75-38.535-1.761-57.693-3.589-16.245-1.549-32.544-3.467-48.378-7.165-6.908-1.612-12.705-8.077-18.34-14.159a207.434,207.434,0,0,0,94.973,8.488c31.239-4.343,64.271-10.452,91.876-38.075-16.4-3.436-28.86,6.362-42.36,8.588-20.656,3.4-41.154,8.8-61.815,12.154-9.527,1.544-19.306.537-28.928.131-11.193-.47-22.358-1.422-33.5-2.492-2.027-.194-3.865-1.95-5.793-2.984.226-1.562.456-3.129.682-4.7,10.317-.781,20.67-1.016,30.946-2.452,28.733-4.014,54.8-17.532,79.568-34.77,8.339-5.806,16.087-12.89,23.641-20.038,2.948-2.79,4.614-7.35,6.863-11.1q-.982-1.2-1.964-2.393c-5.874,3.291-11.947,6.177-17.586,9.947-23.212,15.514-48.107,26.137-73.6,33.957-21.979,6.745-44.464,11.084-66.831,15.514-8.741,1.734-18.064,2.262-26.566.582-5.386-1.066-9.743-7.215-15.848-12.114,52.92-24.232,103.9-45.994,158.594-50.261.144-1.034.293-2.063.438-3.093-4.068-2.375-7.942-6.407-12.245-6.782-10.217-.894-20.746-1.336-30.959.37-17.432,2.912-34.716,7.617-54.2,12.055,16.633-15.012,31.7-29.709,43.385-49.737-7.581-2.226-11.342,3.878-15.256,7.093-21.776,17.866-42.685,37.2-64.9,54.266-11.644,8.94-25.252,14.547-38.161,21.144-7.292,3.725-9.658-3.088-13-8.709,20.814-6.109,35.226-21.144,45.1-41.633,7.549-15.658,8.208-32.833,8.213-49.94,0-6.6-4.145-9.093-7.879-14.737-4,14.7-7.215,27.442-10.944,40.021-7.256,24.489-20.354,43.836-40.883,56.4-3.291,2.014-6.488,4.235-10.245,6.7,8.154,10.985-.411,19.013-5.233,26.223a166.141,166.141,0,0,1-44.1,45.168,9.052,9.052,0,0,0-2.2,2.4,39.04,39.04,0,0,0-1.946,3.616C39.913,185.928,72.678,153.4,82.882,117c11.852,4.56,14.069,14.389,7.54,28.192-9.874,20.886-22.543,39.461-36.865,56.623-9.843,11.793-20.625,22.593-30.883,33.957-1.671,1.856-2.8,4.33-4.185,6.52.542.6,1.088,1.21,1.63,1.815" transform="translate(0 0)" fill="#ff4438"/>
    </g>
  </g>
</svg>
