<svg xmlns="http://www.w3.org/2000/svg" xmlns:xlink="http://www.w3.org/1999/xlink" width="696" height="1028" viewBox="0 0 696 1028">
  <defs>
    <clipPath id="clip-path">
      <rect id="Rectángulo_2871" data-name="Rectángulo 2871" width="710" height="1124" transform="translate(-2201 1045)" fill="#fff" stroke="#707070" stroke-width="1"/>
    </clipPath>
    <clipPath id="clip-path-2">
      <rect id="Rectángulo_2571" data-name="Rectángulo 2571" width="1073.876" height="975.305" fill="#d1ff03"/>
    </clipPath>
    <clipPath id="clip-Mesa_de_trabajo_37">
      <rect width="696" height="1028"/>
    </clipPath>
  </defs>
  <g id="Mesa_de_trabajo_37" data-name="Mesa de trabajo – 37" clip-path="url(#clip-Mesa_de_trabajo_37)">
    <rect width="696" height="1028" fill="rgba(255,255,255,0)"/>
    <g id="Enmascarar_grupo_205" data-name="Enmascarar grupo 205" transform="translate(2187 -1071)" clip-path="url(#clip-path)">
      <g id="Grupo_36833" data-name="Grupo 36833" transform="matrix(-0.883, -0.469, 0.469, -0.883, -1367.913, 2304.798)">
        <g id="Grupo_36080" data-name="Grupo 36080" transform="translate(0 0)" clip-path="url(#clip-path-2)">
          <path id="Trazado_20480" data-name="Trazado 20480" d="M326.609,748.39c-19.095,12.527-39.517,16.842-61.686,9.2-4.078-1.407-8.156-3.367-12.377-3.754-12.819-1.193-24.477-5.564-35.865-11.247a79.8,79.8,0,0,0-34.087-8.741c-3.888-.087-7.793-1.051-11.642-1.818-12.147-2.442-24.232-3.106-36.324.284a16.448,16.448,0,0,1-4.616.553c-.537-.008-1.043-.948-1.565-1.454,8.33-6.2,23.394-10.962,32.412-9.784,24.6,3.2,49.285,6.133,71.786,18.035,4.394,2.316,9.776,2.766,14.708,4.086,5.7,1.517,11.744,2.276,17.016,4.718,19.885,9.231,38.387,3.9,56.746-4.473,2.6-1.185,5.224-2.3,7.824-3.446.53.624,1.059,1.257,1.581,1.873-1.28,2.023-2.086,4.781-3.912,5.967M598.6,832.648c23.086,6.473,41.248,20.185,55.316,39.335,4.363,5.943,7.074,13.1,10.638,19.656,7.026,12.938,16.771,22.382,31.281,27.069,9.3,3,18.107,7.7,26.943,12,2.908,1.407,5.256,3.936,6.963,7.982-1.691.119-3.6.83-5.011.269-13.2-5.161-26.508-10.085-39.4-15.981a53.623,53.623,0,0,1-26.579-25.883c-5.343-10.954-10.069-22.5-19.664-30.547-9.919-8.314-20.391-15.917-30.7-23.734-3.635-2.766-7.492-5.24-11.254-7.856.5-.767.972-1.541,1.47-2.308m-263.861-452.4c-8.046-13.973-17.348-27.322-24.366-41.785-13.862-28.563-21.639-59.117-26.682-90.438-2.505-15.538-5.769-30.957-8.694-46.424a11.94,11.94,0,0,1-.609-2.284c.087-3.9-.356-8.868,4.726-9.381,4.884-.474,4.75,4.141,5,7.722a480.237,480.237,0,0,0,13.949,86.384c7.342,28.7,17.624,56.145,34.119,81.318,15.293,23.37,28.563,48.076,42.607,72.276,4.718,8.148,9.176,16.463,13.5,24.832,1.217,2.355,1.541,5.169,2.268,7.777-.917.4-1.841.782-2.766,1.178-4.782-7.84-9.713-15.585-14.313-23.536-12.969-22.5-25.749-45.136-38.742-67.637M172.233,388.4c-11.373-23.252-18.944-47.381-24.572-72.371-.182-.782.98-1.865,2.118-3.92,1.525,2.648,3.193,4.355,3.525,6.3,4.039,23.584,12.487,45.705,23.544,66.673,8.6,16.3,18.059,32.167,33.249,43.911,6.734,5.208,11.816,12.6,17.379,19.237,1.13,1.383,1,3.8,1.826,7.287-22.335-21.213-43.9-40.165-57.07-67.115M140.193,508.35c-17.656-12.882-35.36-25.67-52.826-38.79-1.739-1.312-2.007-4.616-3.6-8.623,10.322,1.818,14.661,9.666,21.339,13.689,7.018,4.22,13.009,10.085,19.656,14.922,6.528,4.734,13.886,8.551,17.316,16.352-.64.814-1.272,1.636-1.889,2.45m933.054-118c-2.987-9.753-7.366-19.1-11.586-28.444-4.955-10.756-12.977-14.06-24.066-10.425-4.141,1.328-8.18,2.98-12.234,4.552-22.754,9.176-45.579,17.862-70.79,16.874-3.564-.087-7.113.743-10.6,1.154-29.851,3.556-56.809,16.289-84.518,26.713-11,4.133-21.244,10.67-32.412,14.139a379.678,379.678,0,0,0-65.511,27.29c-11.571,6.2-23.568,10.836-36.711,12.574-17.2,2.237-27.037-2.15-35.557-16.874-4.805-8.346-4.718-13.309,1.889-20.256,4.892-5.129,10.1-10.259,16.044-13.981,22.256-13.894,46.076-24.477,71.96-29.606,20.509-3.967,41.1-8.1,61.852-10.417,12.827-1.407,24.99-4.141,36.561-9.263,13.649-6.125,27.2-12.653,40.449-19.687,13.475-7.279,26.618-15.214,39.944-22.9,6.441-3.722,13.641-6.781,19.1-11.665,13.483-12.155,26.049-25.307,39.272-37.794,14.8-14.06,17.783-30.847,12.25-49.87-3.391-11.491-8.109-22.248-16.218-31.258-6.37-7.034-10.164-7.034-16.455-.087-6.694,7.279-13.064,14.8-19.758,22-10.425,11.246-20.928,22.493-31.677,33.494-13.728,14.139-26.547,29.274-43.255,40.275-28.286,18.857-56.73,37.3-88.573,49.7-9.516,3.722-18.857,8.354-29.614,7.192-16.7-1.818-29.021-21.837-21.505-36.055a66.063,66.063,0,0,1,14.392-18.525c18.288-16.131,40.37-24.73,64.183-28.373,22.825-3.383,41.6-16.621,62.358-24.975,3.059-1.241,5.374-4.544,7.856-7.113,4.718-4.789,9.018-9.919,13.886-14.471,12.74-11.823,26.136-22.991,38.387-35.312,9.508-9.595,15.617-21.584,19.513-34.735,1.573-5.3,1.486-10.5-2.063-14.637-6.457-7.358-13.072-14.724-20.509-21.086-4.892-4.22-8.86-2.237-12.171,3.881-3.722,6.947-6.939,14.392-11.9,20.351-11.412,13.641-23.568,26.626-35.557,39.691a57.283,57.283,0,0,1-7.287,6.125c-11.333,8.6-22.651,17.119-34.063,25.552-1.984,1.486-4.473,2.316-7.121,3.643-4.213-7.2-.822-12.163,2.727-16.795,4.062-5.287,9.018-10.006,12.827-15.546,11.412-16.621,22.912-33.162,33.494-50.281,7.856-12.74,16.542-25.393,18.778-40.607.743-4.71.324-10.749-2.079-14.558-5.042-7.935-10.749-16.044-18.02-21.75-16.795-13.151-34.237-25.386-55.837-30.27-12.89-2.893-14.629-3.636-20.422,8.607a398.019,398.019,0,0,0-17.7,43.911c-6.947,20.92-13.894,41.761-25.891,60.706-4.292,6.86-6.038,15.38-9.168,22.991Q762.57,162.021,754.5,179.8c-1.478,3.225-3.549,6.449-8.844,4.876a37.738,37.738,0,0,1-2.569-5.785c-3.636-12.321-1.739-24.319,2.237-36.142C757.4,106.44,768.9,69.808,786.766,35.729c1.976-3.8,2.64-8.188,3.8-12.4,1.241-4.307-.411-7.524-3.8-10.338C761.372-7.684,722.093-1.156,710.759,28.205c-.577,1.486-1.4,2.814-2.063,4.3-15.056,32.586-22.746,67.155-25.978,102.8q-4.588,50.74-10.093,101.392a44.027,44.027,0,0,1-16.7,30.436c-5.785,4.631-11.831,5.3-18.684,1.818-6.789-3.556-10.756-9.176-13.483-15.878-8.109-19.679-7.026-40.2-4.876-60.706,1.984-19.181,4.378-38.371,7.769-57.394,2.237-12.732,5.042-25.717,10.172-37.462,10.006-22.746,14.226-46.812,20.185-70.466,2.142-8.6-.427-14.961-8.86-19.513C640.38,3.31,632.682-.16,623.672.006c-9.919.166-19.845-.166-29.6.577-27.211,2.15-54.667,18.359-65.345,48.874-8.022,22.746-9.761,46.069-9.919,69.889a280.311,280.311,0,0,0,11.831,84.107c4.2,13.973,9.84,27.622,13.23,41.761,5.706,23.821,10.662,47.8,14.716,71.952,1.9,11.491,1.731,23.568,1.162,35.312-.585,13.064-9.429,18.691-22.248,14.724-17.04-5.3-29.946-16.052-36.308-33-4.3-11.744-7.437-23.979-10.424-36.142-8.425-33.905-10.662-68.641-12.147-103.376-.664-13.807-1.494-27.622-1.739-41.429a75.956,75.956,0,0,1,1.976-19.853c6.038-23.647,12.74-47.223,19.031-70.869a44.543,44.543,0,0,0,1.565-9.35c.324-8.1-4.3-11.326-11.088-7.113-3.47,2.15-6.441,5.706-8.844,9.1-10.994,15.965-14.305,34.9-19.845,53.016-.822,2.648-2.063,5.208-3.881,9.761-6.3-11.412-6.37-20.928-3.146-30.6,3.715-10.835,8.022-21.505,11.326-32.42A93.488,93.488,0,0,0,467.613,34c.5-8.354-5.374-12.242-13.23-9.429a30.186,30.186,0,0,0-6.283,3.3c-8.362,5.05-17.609,6.536-27.037,8.188-13.894,2.4-27.709,5.959-41.437,9.516-2.814.743-5.54,2.972-7.619,5.208-7.429,8.022-13.135,17.285-14.384,28.12-1.731,16.044-2.972,32.167-3.3,48.3a250.717,250.717,0,0,0,2.4,35.391c1.889,15.222,4.2,30.523,7.358,45.492a254.51,254.51,0,0,0,9.508,31.756c5.793,16.376,11.831,32.586,18.446,48.542,8.18,19.687,18.857,38.458,25.386,58.635,8.591,26.547,14.3,54.091,21.165,81.294.917,3.643,1,7.611,1.486,12.076-3.8.419-6.607,1.407-9.089.909-16.787-3.3-29.946-11.246-37.217-27.788-12.4-28.112-27.037-55.41-33.336-85.838-4.371-21.26-10.077-42.346-12.313-63.851-2.482-23.489-1.984-47.3-2.237-70.956-.079-20.1-5.619-38.948-12.4-57.473-1.486-4.054-4.386-6.947-8.939-6.623-9.832.751-19.924.664-29.353,2.98-17.2,4.22-34.15,9.674-50.945,15.214a21.205,21.205,0,0,0-10.259,7.2c-9.761,13.641-14.471,28.365-11.5,45.65,3.722,21.584,8.441,42.591,17.956,62.444,8.022,16.621,14.716,33.984,23.568,50.281,11.081,20.422,23.647,40.11,35.723,59.955,11.254,18.525,22.738,36.885,34.324,55.244,9.595,15.3,16.044,31.756,17.949,49.7a79.716,79.716,0,0,1,.166,18.857c-1.573,11.665-6.7,16.376-18.288,15.8-8.022-.5-16.2-2.735-23.892-5.461-12.819-4.552-20.509-15.712-29.851-24.73-31.021-29.519-46.733-67.068-55.987-107.6-4.8-20.754-6.868-42.093-10.5-63.1-3.888-22.24-8.022-44.33-12.408-66.4-3.153-15.8-11.657-19.932-26.634-13.649-5.453,2.316-11.42,3.8-16.534,6.615a198.335,198.335,0,0,0-19.363,13.064c-2.806,2.071-4.71,5.382-7.516,7.532-9.271,6.781-14.8,16.21-19.608,26.294-2.64,5.706-4.8,11.831-8.346,17.04-13.562,19.513-9.437,39.944-2.735,60.121,6.868,20.841,19.276,38.292,33.415,55.244,27.2,32.586,57.386,62.033,89.64,89.49a167.434,167.434,0,0,0,20.027,14.716c20.509,12.487,41.6,24.319,62.026,36.972,7.279,4.544,13.807,10.5,20.011,16.534,5.374,5.3,4.868,9.761-1.32,13.649a29.662,29.662,0,0,1-12.985,4.631c-18.7,1.407-36.229-4.378-52.107-13.317-19.521-11.08-39.043-22.738-56.9-36.3-33-25.062-64.752-51.7-97.006-77.658a43.43,43.43,0,0,1-3.391-3.312c-13.072-13.23-26.057-26.381-39.05-39.612-2.308-2.316-4.631-4.718-8.093-2.237-3.391,2.316-2.482,5.216-.83,8.275,3.391,6.283,5.793,13.151,9.848,18.936,7.769,11.246,14.637,24.066,24.967,32.5,21.347,17.451,44.575,32.507,67.068,48.55,9.429,6.694,16.218,15.633,22.588,25.307-4.963,5.54-10.843,5.951-16.708,5.872-5.951-.087-11.823-.5-17.783-.577a88.574,88.574,0,0,1-48.044-14.558,125.415,125.415,0,0,1-35.32-34.569c-7.769-11.246-15.878-22.414-24.311-33.249-9.271-11.989-20.509-10.006-27.456,3.059C.841,495.222.438,511.6.027,527.389-.55,548.4,8.538,566.344,26.819,578.666A96.537,96.537,0,0,1,42.531,591.24c19.679,20.588,45.982,28.286,71.7,37.051,8.2,2.806,17.032,4.133,24.651,7.935,10.907,5.461,21.663,10.259,33.984,12.819,17.293,3.556,33.905,10.424,50.866,15.712,30.76,9.595,61.528,18.944,93.781,22.746,8.441,1,16.7,4.552,24.975,7.113.656.245.988,1.739,2.4,4.378-4.631-.49-7.943-.9-11.254-1.154-12.89-1.241-25.963-4.054-38.782-3.224-27.954,1.739-55.734,5.872-83.7,8.022-24.556,1.818-48.124-2.893-69.06-16.455-12.89-8.441-24.9-18.115-37.375-27.211A52.529,52.529,0,0,0,77.258,648.8c-11.816-.83-21.576,3.138-28.27,13.641-3.312,5.3-3.485,9.595.656,14.969,13.072,16.874,21.663,35.644,23.157,57.315.245,4.3.49,9.018,2.316,12.74,2.4,5.208,5.287,10.915,9.587,14.471,13.657,11.246,29.448,16.289,47.4,14.392,12.155-1.241,24.39-2.569,36.553-2.316,15.8.324,30.76,2.806,44.156,13.641a94.437,94.437,0,0,0,33.5,16.953c19.268,5.216,39.272,8.852,59.631,6.283,9.674-1.233,19.592-2.063,29.108-4.3,22.9-5.287,37.051-23.323,52.6-38.616,6.781-6.623,10.5-16.542,14.8-25.307,5.453-11.333,12.313-20.264,26.042-21.173,3.153-.253,6.212-1.407,9.358-1.818,11.246-1.66,16.866,4.876,12.479,15.459a101.616,101.616,0,0,1-11.91,20.351c-8.923,11.989-19.837,22.659-20.667,38.869,0,.743-.664,1.486-.83,2.229-1.731,8.022-4.631,16.044-4.876,24.232-.909,25.97,0,52.107-1.32,78.069-1.336,25.062,8.346,45.4,23.236,64.1,7.611,9.674,18.186,13.151,30.515,12.155,8.931-.656,18.02-.166,26.958-.245,3.643-.087,7.192-.253,11.333-.411-1.241-11.088-6.86-17.451-12.732-23.987-7.445-8.109-14.969-16.3-21.505-25.141C461.077,915.1,455.7,903.683,454.216,890.7c-.822-7.437-2.142-14.8-2.9-22.327-.569-6.038-1.486-12.242,2.735-19.932,2.648,4.133,4.718,6.7,6.125,9.595,10.259,22.659,19.679,45.65,35.312,65.416a5.94,5.94,0,0,1,.5,1.075c4.386,6.615,8.433,13.4,13.222,19.687,9.689,12.487,21.679,13.807,34,4.71,5.7-4.22,12.076-7.524,17.537-11.989,7.927-6.449,15.949-12.985,22.73-20.509,8.528-9.35,6.7-14.724-5.042-19.355-.735-.245-1.486-.577-2.229-.743-17.7-3.557-31.266-14.305-44.986-25.227-18.944-15.048-22.5-35.146-21.007-57.307.245-2.9,1.81-5.706,3.051-9.429,2.9,1.075,4.307,1.241,5.042,1.984q38.221,36.229,76.425,72.529c6.038,5.706,11.57,12.076,18.359,16.708a48.631,48.631,0,0,1,16.2,18.359c3.319,6.283,6.37,12.732,9.69,19.023,4.868,9.1,10.006,19.181,19.845,22.825,16.621,6.03,33.739,12.4,51.759,11.326,18.865-1.075,37.217,1.494,55,6.37,15.143,4.22,27.3,0,36.395-10.583,13.317-15.554,29.772-26.966,45.4-39.7,9.6-7.856,10.093-15.3.506-23.244a28.407,28.407,0,0,0-12.653-5.872,107.164,107.164,0,0,0-23.568-.909c-28.626,2.237-56.738.664-83.949-9.674-8.441-3.225-15.8-7.192-20.92-14.637a165.183,165.183,0,0,0-39.7-40.2c-22.161-15.957-44.085-32.254-70.624-40.607-10.5-3.3-20.762-7.437-31.187-11.16-25.8-9.184-43.413-28.12-58.39-49.87a43.72,43.72,0,0,1-6.188-15.222c-.593-2.806.822-7.437,2.964-9.1,2.237-1.652,6.544-.909,9.848-.656,1.4.079,2.814,1.407,3.975,2.395,16.858,14.471,35.391,26.381,54.667,37.383a121.01,121.01,0,0,0,42.093,14.8c10.749,1.739,21.339,5.129,32,7.777,6.125,1.573,12.163,3.636,18.28,4.876,9.263,1.9,18.691,3.478,28.033,4.8,13.238,1.9,26.547,3.312,39.778,5.129,10.922,1.573,21.829,2.814,32.5,5.287,10.014,2.316,19.434,6.868,29.369,9.018,13.554,2.98,26.705,6.449,39.533,11.989,9.255,4.141,19.426,6.125,29.274,8.852q19.336,5.335,38.782,10.417a69.874,69.874,0,0,0,13.728,2.4c17.293.909,30.357-7.856,41.026-19.932,11.491-12.985,23.07-26.215,32.5-40.686,9.587-14.8,16.7-31.266,24.809-47.143,1-1.984.664-4.631,1.328-6.947,1.81-6.37,3.391-12.819,5.777-18.936,3.153-8.109,4.971-15.878.34-23.9-3.557-6.283-9.761-8.275-15.886-4.465-2.395,1.486-4.125,3.8-6.362,5.287-7.864,5.216-15.293,11.578-23.908,15.056-9.761,3.888-20.509,5.619-30.918,7.611-26.389,4.876-52.763,10.417-79.31,13.728-32.261,4.046-64.673,4.8-96.358-5.382a63.968,63.968,0,0,0-6.86-1.565c-23.568-5.129-47.057-10.172-69.794-18.359A78.885,78.885,0,0,0,665.2,677.41c-20.1.087-40.275,1.573-60.382,2.324a116.03,116.03,0,0,1-17.783-.751A63.581,63.581,0,0,1,555.7,665.919c-2.814-2.15-6.117-5.3-2.972-8.852,7.026-7.935,14.052-16.7,25.212-18.691,17.048-2.972,33.573-1.652,49.878,5.54,7.777,3.478,16.542,4.963,25.054,6.2,12.4,1.9,24.982,3.225,37.541,4.054a334.753,334.753,0,0,0,36.482.909c13.4-.664,27.045-1.241,39.944-4.378,29.859-7.366,60.445-4.884,90.549-8.275,13.325-1.486,26.966.166,40.2-1.486,23.157-2.98,45.642,1.075,68.4,3.47,9.745,1.075,19.592,1,29.345,1.9,18.281,1.739,28.294-8.852,33.257-24.232,8.765-27.377,16.455-55.244,24.066-83.033,3.146-11.578,1.075-22.082-8.267-31.345-13.981-13.973-16.131-14.392-31.013-2.15-9.689,7.943-19.363,17.2-30.689,21.584-24.24,9.35-48.3,19.687-74.189,24.477-18.929,3.477-37.209,10.836-56.888,10.836a105.611,105.611,0,0,0-17.624,1.739c-25.71,4.22-51.435,8.433-77.16,13.151-13.886,2.482-27.614,5.951-41.429,9.1-16.123,3.636-32.167,7.777-48.384,10.836-10.907,1.984-22.248,1.407-32.917,3.967-19.34,4.631-35.059-1.573-49.285-13.649-2.063-1.818-4.054-5.208-4.054-7.856.087-11.326,13.483-27.622,24.982-29.772,7.358-1.407,15.135-2.814,22.319-1.652,22.169,3.391,44.093,1.241,66.175.577a372.612,372.612,0,0,0,102.3-17.451c11.239-3.557,21.742-9.429,33.068-12.566,25.8-7.279,52.02-13.317,77.911-20.264,17.538-4.8,34.814-10.259,52.178-15.546,6.37-1.984,12.74-4.133,19.031-6.615,7.69-2.98,15.467-5.872,22.825-9.682,9.753-5.042,19.189-10.915,28.61-16.534,18.36-10.922,33.913-24.73,41.848-45.239,1.652-4.465,2.569-10.259,1.249-14.645M389.622,659.138a61.153,61.153,0,0,1-27.037-18.359c-3.311-3.809-5.3-8.022-2.482-12.906,2.324-3.881,8.275-5.042,13.981-2.395a56.912,56.912,0,0,1,10,6.2c8.2,6.117,16.218,12.487,24.153,18.857,1.083.909,1.486,2.561,2.4,4.213-6.283,6.2-13.981,6.7-21.015,4.386m50.874-78.4c-.087,1.154,0,2.648-.664,3.39-10.259,16.874-30.61,12.653-36.648-.087-3.051-6.362-9.255-10.749-13.467-16.455-4.465-6.283-6.955-13.317-5.872-21.173,1.818-13.309,12.076-19.679,24.88-15.3,20.683,6.947,34.245,28.12,31.771,49.625m244.134,148.2c13.064,2.893,26.049,5.872,39.027,8.844,11.918,2.727,24.24,4.3,35.557,8.686,14.724,5.627,29.946,7.026,45.168,8.433,24.311,2.071,48.7,3.391,73.106,4.3,10.59.419,21.244-.909,31.843-1.486,7.848-.411,15.712-1.241,23.56-1.407,4.307-.079,8.86.577,9.192,6.37-.83.83-1.415,1.818-1.992,1.818-25.559.332-50.613,6.868-76.5,3.888-26.634-3.059-53.593-3.8-80.227-6.7-11.167-1.241-22-5.706-33.076-8.433-10.994-2.727-22.256-4.963-33.336-7.611-10.243-2.395-20.588-4.963-30.752-7.935-5.3-1.652-5.137-2.15-8.441-9.429,2.64.245,4.8.245,6.868.664m152.582-128.6c36.806,2.063,72.118-6.615,107.833-13.151,14.637-2.648,29.772-2.814,44.67-4.133.743-.087,1.739-.411,2.316-.087,1.739,1.162,3.3,2.482,4.955,3.722-1.66,1.407-3.217,3.643-5.05,3.888-5.445.909-11.081.5-16.455,1.32-24.888,4.054-49.862,8.022-74.671,12.819-23.157,4.473-46.4,1.573-69.557,1.407-.664,0-1.328-.743-4.458-2.806,4.71-1.407,7.6-3.067,10.417-2.98M639.305,306c8.109-2.648,17.609,1.241,22,9.184.988,1.731,1.826,3.47,2.648,5.287,5.627,11.5,6.789,22.493-3.383,32.506-2.656,2.561-4.465,5.951-7.121,9.587,0,.332-.158.5-.324.5-1.249,0-20.019-8.1-20.177-9.595-1.328-9.263-2.158-18.6-3.311-27.946-1.154-9.263,2.727-17.206,9.674-19.521M572.98,95.937c2.727-11.08,6.2-22,9.674-32.831.822-2.727,3.067-4.963,5.208-8.52,6.283,6.038,3.4,10.756,1.826,14.8-10.425,27.543-15.467,56.24-16.874,85.514-.656,14.471.83,29.029,1.407,43.587.087,1.154.577,2.316.577,3.47,1.233,30.025,10.922,57.813,21.505,85.593,4.133,11.088,4.8,23.576,4.955,36.395-1.32-1.328-3.217-2.569-3.881-4.22-1.652-4.378-2.822-9.018-4.228-13.483-2.063-6.781-3.715-13.728-6.441-20.177C572.9,252.992,565.859,218.5,564.373,182.692a319.054,319.054,0,0,1,8.607-86.755M544.2,397.466c6.947,3.722,14.234,6.781,21.339,10.259a43.674,43.674,0,0,1,8.18,4.631c16.131,12.653,13.981,26.792,5.872,38.7-4.2,5.959-6.773,12.321-15.293,12.487-5.129.087-9.35-.743-12.9-4.22-12.408-12.068-21.924-25.883-25.307-43.168a28.563,28.563,0,0,1-.838-8.267c1-13.4,7.287-16.708,18.944-10.424m-65.005,240.91c-4.126,4.386-7.516,8.773-11.744,12.076-1.32,1.075-5.706.166-7.105-1.32-6.7-7.113-12.985-14.724-15.222-24.73-1.233-5.793-1.067-11,4.307-14.724,4.465-3.138,15.467-3.8,19.015-.411,7.279,7.192,10.417,16.376,11.5,26.381a6.767,6.767,0,0,1-.751,2.727m-3.722-97.5c-6.607-9.263-14.392-17.617-19.1-28.2-4.126-9.263-4.884-17.783,1.486-26.713,4.805-6.7,7.785-14.637,11.831-21.837,4.955-8.765,8.686-9.674,17.032-4.047,6.2,4.212,12.661,8.354,17.949,13.475,17.451,16.708,22.09,46.812,9.1,65.092-2.648,3.715-3.73,8.6-5.461,12.732a12.435,12.435,0,0,1-1.154.743c-14.147,6.2-23.157.585-31.685-11.246M659.98,426.329c-14.305,26.713-34.98,48.716-52.02,73.446-5.785,8.433-11.831,16.7-17.783,25.054C582.741,535,575.62,545.5,567.772,555.343c-16.289,20.264-32.925,40.276-49.617,60.208-3.975,4.8-8.781,8.852-14.06,14.147-5.548-8.354-1.992-13.317,1.81-17.87,13.4-16.044,26.721-32.088,40.52-47.713,18.122-20.517,33.249-43.089,49.127-65.258,10.093-14.06,20.675-27.867,30.776-41.927,6.03-8.354,11.657-16.874,17.285-25.473q18.838-28.654,37.375-57.473a116.562,116.562,0,0,0,5.627-10.425c10.164-20.011,20.256-40.189,30.673-60.121,1.17-2.237,4.718-5.3,6.623-4.884,4.3.751,4.552,5.129,3.383,8.607-1.407,4.047-3.636,7.856-5.532,11.823-15.309,31.922-31.179,63.6-52.186,92.461a135.161,135.161,0,0,0-9.595,14.882M971.76,416.244c-.664.332-1.573.245-2.316.577-41.927,16.953-85.846,28.863-126.525,49.459-12.487,6.283-26.547,9.919-40.276,13.4-15.467,3.967-30.025,9.595-43.429,18.194-11.491,7.279-24.888,7.026-37.628,8.844-1.565.253-3.462-1.4-5.121-2.15v-2.64c3.715-1,7.366-2.316,11.088-2.9,14.305-2.229,27.037-8.1,39.6-14.969,9.6-5.208,20.019-9.919,30.6-12.234,21.5-4.8,41.105-13.894,60.793-22.991,26.215-12.076,52.676-23.41,81.12-29.448,8.117-1.652,16.139-3.967,24.153-5.872a27.994,27.994,0,0,1,13.151-.49c-1.739,1.075-3.391,2.229-5.216,3.225M845.922,112.17c9.9-16.644,16.858-35.123,30.175-49.538,1.107.427,2.213.869,3.312,1.3-.221,2.11.205,4.592-.767,6.275q-22.335,39.074-45.018,77.935a125.679,125.679,0,0,1-9.4,13.625c-2.782,3.588-6.157,4.94-9.705.237,10.5-16.6,21.371-32.973,31.408-49.831" transform="translate(0.005 0.002)" fill="#d1ff03"/>
        </g>
      </g>
    </g>
  </g>
</svg>
