<svg xmlns="http://www.w3.org/2000/svg" xmlns:xlink="http://www.w3.org/1999/xlink" width="572" height="45" viewBox="0 0 572 45">
  <defs>
    <clipPath id="clip-path">
      <rect id="Rectángulo_2566" data-name="Rectángulo 2566" width="552" height="26" transform="translate(0 -0.291)" fill="#fff" stroke="#707070" stroke-width="1"/>
    </clipPath>
    <clipPath id="clip-path-2">
      <rect id="Rectángulo_2565" data-name="Rectángulo 2565" width="1759.828" height="11.069" fill="none" stroke="#faf1e7" stroke-width="3"/>
    </clipPath>
    <clipPath id="clip-Mesa_de_trabajo_30">
      <rect width="572" height="45"/>
    </clipPath>
  </defs>
  <g id="Mesa_de_trabajo_30" data-name="Mesa de trabajo – 30" clip-path="url(#clip-Mesa_de_trabajo_30)">
    <rect width="572" height="45" fill="rgba(255,255,255,0)"/>
    <g id="Enmascarar_grupo_98" data-name="Enmascarar grupo 98" transform="translate(10 10.291)" clip-path="url(#clip-path)">
      <g id="Grupo_36064" data-name="Grupo 36064" transform="translate(0.698 5.932)">
        <g id="Grupo_36063" data-name="Grupo 36063" transform="translate(0 0)" clip-path="url(#clip-path-2)">
          <path id="Trazado_20479" data-name="Trazado 20479" d="M1732.32,10.887a28.843,28.843,0,0,1-14.4-3.457,28.736,28.736,0,0,0-26.2,0,28.835,28.835,0,0,1-14.4,3.458,28.831,28.831,0,0,1-14.4-3.458,28.733,28.733,0,0,0-26.2,0,28.833,28.833,0,0,1-14.4,3.457,28.831,28.831,0,0,1-14.4-3.457,28.729,28.729,0,0,0-26.2,0,28.824,28.824,0,0,1-14.4,3.458,28.826,28.826,0,0,1-14.4-3.458,28.719,28.719,0,0,0-26.2,0,28.823,28.823,0,0,1-14.4,3.458,28.83,28.83,0,0,1-14.4-3.458,28.725,28.725,0,0,0-26.2,0,28.831,28.831,0,0,1-14.4,3.458,28.826,28.826,0,0,1-14.4-3.457,28.725,28.725,0,0,0-26.2,0,28.825,28.825,0,0,1-14.4,3.458,28.825,28.825,0,0,1-14.4-3.457,28.725,28.725,0,0,0-26.2,0,28.823,28.823,0,0,1-14.4,3.458,28.829,28.829,0,0,1-14.4-3.458,28.724,28.724,0,0,0-26.2,0,28.823,28.823,0,0,1-14.4,3.457,28.827,28.827,0,0,1-14.4-3.458,28.717,28.717,0,0,0-26.195,0,28.823,28.823,0,0,1-14.4,3.458,28.822,28.822,0,0,1-14.4-3.458,28.717,28.717,0,0,0-26.195,0,28.822,28.822,0,0,1-14.4,3.458,28.829,28.829,0,0,1-14.4-3.458,28.722,28.722,0,0,0-26.2,0,28.822,28.822,0,0,1-14.4,3.458,28.814,28.814,0,0,1-14.4-3.458,28.716,28.716,0,0,0-26.194,0,28.822,28.822,0,0,1-14.4,3.458,28.82,28.82,0,0,1-14.4-3.458,28.713,28.713,0,0,0-26.193,0,28.816,28.816,0,0,1-14.4,3.458,28.826,28.826,0,0,1-14.4-3.458,28.713,28.713,0,0,0-26.193,0,28.816,28.816,0,0,1-14.4,3.458,28.824,28.824,0,0,1-14.4-3.457,28.715,28.715,0,0,0-26.194,0,28.813,28.813,0,0,1-14.4,3.458,28.822,28.822,0,0,1-14.4-3.458,28.719,28.719,0,0,0-26.2,0,28.823,28.823,0,0,1-14.4,3.458,28.823,28.823,0,0,1-14.4-3.458,28.717,28.717,0,0,0-26.195,0,28.822,28.822,0,0,1-14.4,3.458,28.825,28.825,0,0,1-14.4-3.458,28.721,28.721,0,0,0-26.2,0,28.818,28.818,0,0,1-14.4,3.458,28.823,28.823,0,0,1-14.4-3.458,28.719,28.719,0,0,0-26.2,0,28.823,28.823,0,0,1-14.4,3.458,28.823,28.823,0,0,1-14.4-3.458,28.716,28.716,0,0,0-26.195,0,28.819,28.819,0,0,1-14.4,3.457A28.825,28.825,0,0,1,618,7.43a28.717,28.717,0,0,0-26.195,0,28.82,28.82,0,0,1-14.4,3.458,28.827,28.827,0,0,1-14.4-3.458,28.717,28.717,0,0,0-26.195,0,28.819,28.819,0,0,1-14.4,3.458,28.822,28.822,0,0,1-14.4-3.458,28.717,28.717,0,0,0-26.195,0,28.82,28.82,0,0,1-14.4,3.458,28.825,28.825,0,0,1-14.4-3.458,28.716,28.716,0,0,0-26.194,0,28.818,28.818,0,0,1-14.4,3.458,28.825,28.825,0,0,1-14.4-3.458,28.717,28.717,0,0,0-26.195,0,28.814,28.814,0,0,1-14.4,3.458,28.823,28.823,0,0,1-14.4-3.458,28.715,28.715,0,0,0-26.194,0,28.82,28.82,0,0,1-14.4,3.458,28.82,28.82,0,0,1-14.4-3.458,28.717,28.717,0,0,0-26.195,0,28.822,28.822,0,0,1-14.4,3.458,28.813,28.813,0,0,1-14.4-3.458,28.716,28.716,0,0,0-26.194,0,28.82,28.82,0,0,1-14.4,3.458,28.82,28.82,0,0,1-14.4-3.458,28.715,28.715,0,0,0-26.194,0,28.815,28.815,0,0,1-14.4,3.458,28.819,28.819,0,0,1-14.4-3.458,25.95,25.95,0,0,0-13.1-3.161,25.949,25.949,0,0,0-13.1,3.161,28.82,28.82,0,0,1-14.4,3.458,28.817,28.817,0,0,1-14.4-3.458,25.945,25.945,0,0,0-13.1-3.161,25.948,25.948,0,0,0-13.1,3.161,28.814,28.814,0,0,1-14.4,3.458A28.822,28.822,0,0,1,13.1,7.43,25.949,25.949,0,0,0,0,4.269v-3A28.82,28.82,0,0,1,14.4,4.726,25.95,25.95,0,0,0,27.5,7.887a25.946,25.946,0,0,0,13.1-3.161,28.819,28.819,0,0,1,14.4-3.458,28.817,28.817,0,0,1,14.4,3.458,25.945,25.945,0,0,0,13.1,3.161,25.949,25.949,0,0,0,13.1-3.161,28.819,28.819,0,0,1,14.4-3.458,28.819,28.819,0,0,1,14.4,3.458,25.95,25.95,0,0,0,13.1,3.161,25.945,25.945,0,0,0,13.1-3.161,31.708,31.708,0,0,1,28.8,0,25.949,25.949,0,0,0,13.1,3.161,25.949,25.949,0,0,0,13.1-3.161,31.708,31.708,0,0,1,28.8,0,25.946,25.946,0,0,0,13.1,3.161,25.952,25.952,0,0,0,13.1-3.161,31.709,31.709,0,0,1,28.8,0,25.949,25.949,0,0,0,13.1,3.161,25.949,25.949,0,0,0,13.1-3.161,31.708,31.708,0,0,1,28.8,0,25.95,25.95,0,0,0,13.1,3.161,25.946,25.946,0,0,0,13.1-3.161,31.71,31.71,0,0,1,28.8,0,25.955,25.955,0,0,0,13.1,3.161,25.949,25.949,0,0,0,13.1-3.161,31.708,31.708,0,0,1,28.8,0,25.953,25.953,0,0,0,13.1,3.161,25.949,25.949,0,0,0,13.1-3.161,31.709,31.709,0,0,1,28.8,0,25.952,25.952,0,0,0,13.1,3.161,25.948,25.948,0,0,0,13.1-3.161,31.71,31.71,0,0,1,28.8,0,25.955,25.955,0,0,0,13.1,3.161,25.949,25.949,0,0,0,13.1-3.161,31.71,31.71,0,0,1,28.8,0,25.953,25.953,0,0,0,13.1,3.161,25.949,25.949,0,0,0,13.1-3.161,31.71,31.71,0,0,1,28.8,0,25.95,25.95,0,0,0,13.1,3.161,25.952,25.952,0,0,0,13.1-3.161,31.711,31.711,0,0,1,28.8,0,25.952,25.952,0,0,0,13.1,3.161,25.95,25.95,0,0,0,13.1-3.161,31.713,31.713,0,0,1,28.8,0,25.956,25.956,0,0,0,13.1,3.161,25.952,25.952,0,0,0,13.1-3.161,31.71,31.71,0,0,1,28.8,0,25.95,25.95,0,0,0,13.1,3.161,25.952,25.952,0,0,0,13.1-3.161,31.711,31.711,0,0,1,28.8,0,25.952,25.952,0,0,0,13.1,3.161,25.943,25.943,0,0,0,13.095-3.161,31.708,31.708,0,0,1,28.8,0,25.952,25.952,0,0,0,13.1,3.161,25.944,25.944,0,0,0,13.1-3.161,31.706,31.706,0,0,1,28.8,0,25.955,25.955,0,0,0,13.1,3.161,25.946,25.946,0,0,0,13.1-3.161,31.705,31.705,0,0,1,28.8,0,25.949,25.949,0,0,0,13.1,3.161,25.951,25.951,0,0,0,13.1-3.161,31.708,31.708,0,0,1,28.8,0,25.946,25.946,0,0,0,13.1,3.161,25.954,25.954,0,0,0,13.1-3.161,31.713,31.713,0,0,1,28.8,0,25.959,25.959,0,0,0,13.1,3.161,25.953,25.953,0,0,0,13.1-3.161,31.709,31.709,0,0,1,28.8,0,25.95,25.95,0,0,0,13.1,3.161,25.952,25.952,0,0,0,13.1-3.161,31.71,31.71,0,0,1,28.8,0,25.956,25.956,0,0,0,13.1,3.161,25.952,25.952,0,0,0,13.1-3.161,31.716,31.716,0,0,1,28.8,0,25.961,25.961,0,0,0,13.1,3.161,25.955,25.955,0,0,0,13.1-3.161,31.717,31.717,0,0,1,28.8,0,25.955,25.955,0,0,0,13.1,3.161,25.955,25.955,0,0,0,13.1-3.161,31.717,31.717,0,0,1,28.8,0,25.956,25.956,0,0,0,13.1,3.161,25.96,25.96,0,0,0,13.1-3.161,31.717,31.717,0,0,1,28.8,0,25.961,25.961,0,0,0,13.1,3.161,25.952,25.952,0,0,0,13.1-3.161,31.711,31.711,0,0,1,28.8,0,25.955,25.955,0,0,0,13.1,3.161,25.957,25.957,0,0,0,13.1-3.161,31.72,31.72,0,0,1,28.8,0,25.962,25.962,0,0,0,13.1,3.161,25.964,25.964,0,0,0,13.1-3.161,31.724,31.724,0,0,1,28.8,0,25.961,25.961,0,0,0,13.1,3.161,25.966,25.966,0,0,0,13.1-3.161,31.729,31.729,0,0,1,28.806,0,25.97,25.97,0,0,0,13.1,3.161,25.972,25.972,0,0,0,13.1-3.161,28.843,28.843,0,0,1,14.4-3.457v3a25.973,25.973,0,0,0-13.1,3.161A28.843,28.843,0,0,1,1732.32,10.887Z" transform="translate(0 -0.543)" fill="#faf1e7"/>
        </g>
      </g>
    </g>
  </g>
</svg>
