<svg xmlns="http://www.w3.org/2000/svg" width="1948" height="76" viewBox="0 0 1948 76">
  <g id="Group_36172" data-name="Group 36172" transform="translate(14 -944)">
    <rect id="Rectangle_2560" data-name="Rectangle 2560" width="1948" height="76" transform="translate(-14 944)" fill="#192bff"/>
    <g id="Group_36048" data-name="Group 36048" transform="translate(1331.243 29.549) rotate(90)">
      <path id="Path_18323" data-name="Path 18323" d="M12.227,0A4.564,4.564,0,0,0,8.485,1.953L.819,12.929a4.574,4.574,0,0,0,0,5.223L8.486,29.127a4.562,4.562,0,0,0,7.481,0l7.667-10.978a4.578,4.578,0,0,0,0-5.221h0L15.967,1.953A4.56,4.56,0,0,0,12.227,0m0,28.854a2.312,2.312,0,0,1-1.92-1L2.64,16.878a2.349,2.349,0,0,1,0-2.678L10.307,3.224a2.406,2.406,0,0,1,3.836,0L21.811,14.2a2.344,2.344,0,0,1,0,2.677l-7.667,10.98a2.306,2.306,0,0,1-1.917,1" transform="translate(942.202 1283.108)" fill="#fff3e9"/>
      <path id="Path_18324" data-name="Path 18324" d="M0,5l.124-.648A13.571,13.571,0,0,1,3.537.2L4.119,0a12.362,12.362,0,0,1,3.9,3.7l-.072.6A15.943,15.943,0,0,1,4.377,8.525l-.418.13C2.916,8.356.788,6.352,0,5" transform="translate(950.155 1294.749)" fill="#fff3e9"/>
      <path id="Path_18327" data-name="Path 18327" d="M12.227,0A4.57,4.57,0,0,0,8.485,1.953L.819,12.929a4.574,4.574,0,0,0,0,5.223L8.486,29.128a4.563,4.563,0,0,0,7.481,0l7.665-10.977a4.577,4.577,0,0,0,0-5.225L15.967,1.953A4.565,4.565,0,0,0,12.227,0m0,28.856a2.3,2.3,0,0,1-1.917-1L2.64,16.878a2.346,2.346,0,0,1,0-2.677L10.307,3.225a2.406,2.406,0,0,1,3.836,0L21.811,14.2a2.344,2.344,0,0,1,0,2.677L14.143,27.854a2.307,2.307,0,0,1-1.917,1" transform="translate(942.202 1247.876)" fill="#fff3e9"/>
      <path id="Path_18330" data-name="Path 18330" d="M12.227,0A4.57,4.57,0,0,0,8.485,1.953L.819,12.929a4.574,4.574,0,0,0,0,5.223L8.486,29.128a4.563,4.563,0,0,0,7.481,0l7.665-10.977a4.577,4.577,0,0,0,0-5.225L15.967,1.953A4.565,4.565,0,0,0,12.227,0m0,28.856a2.3,2.3,0,0,1-1.917-1L2.64,16.878a2.346,2.346,0,0,1,0-2.677L10.307,3.225a2.406,2.406,0,0,1,3.836,0L21.811,14.2a2.344,2.344,0,0,1,0,2.677L14.143,27.854a2.307,2.307,0,0,1-1.917,1" transform="translate(942.202 1212.642)" fill="#fff3e9"/>
      <path id="Path_18328" data-name="Path 18328" d="M4.066,8.654l-.416-.13A15.905,15.905,0,0,1,.072,4.3L0,3.7A12.391,12.391,0,0,1,3.908,0l.579.2A13.6,13.6,0,0,1,7.9,4.355L8.024,5C7.236,6.354,5.11,8.356,4.066,8.654" transform="translate(950.155 1259.515)" fill="#fff3e9"/>
      <path id="Path_18329" data-name="Path 18329" d="M4.066,8.654l-.416-.13A15.905,15.905,0,0,1,.072,4.3L0,3.7A12.391,12.391,0,0,1,3.908,0l.579.2A13.6,13.6,0,0,1,7.9,4.355L8.024,5C7.236,6.354,5.11,8.356,4.066,8.654" transform="translate(950.155 1224.282)" fill="#fff3e9"/>
    </g>
    <g id="Group_36089" data-name="Group 36089" transform="translate(3100.927 29.549) rotate(90)">
      <path id="Path_18323-2" data-name="Path 18323" d="M12.227,0A4.564,4.564,0,0,0,8.485,1.953L.819,12.929a4.574,4.574,0,0,0,0,5.223L8.486,29.127a4.562,4.562,0,0,0,7.481,0l7.667-10.978a4.578,4.578,0,0,0,0-5.221h0L15.967,1.953A4.56,4.56,0,0,0,12.227,0m0,28.854a2.312,2.312,0,0,1-1.92-1L2.64,16.878a2.349,2.349,0,0,1,0-2.678L10.307,3.224a2.406,2.406,0,0,1,3.836,0L21.811,14.2a2.344,2.344,0,0,1,0,2.677l-7.667,10.98a2.306,2.306,0,0,1-1.917,1" transform="translate(942.202 1283.108)" fill="#fff3e9"/>
      <path id="Path_18324-2" data-name="Path 18324" d="M0,5l.124-.648A13.571,13.571,0,0,1,3.537.2L4.119,0a12.362,12.362,0,0,1,3.9,3.7l-.072.6A15.943,15.943,0,0,1,4.377,8.525l-.418.13C2.916,8.356.788,6.352,0,5" transform="translate(950.155 1294.749)" fill="#fff3e9"/>
      <path id="Path_18327-2" data-name="Path 18327" d="M12.227,0A4.57,4.57,0,0,0,8.485,1.953L.819,12.929a4.574,4.574,0,0,0,0,5.223L8.486,29.128a4.563,4.563,0,0,0,7.481,0l7.665-10.977a4.577,4.577,0,0,0,0-5.225L15.967,1.953A4.565,4.565,0,0,0,12.227,0m0,28.856a2.3,2.3,0,0,1-1.917-1L2.64,16.878a2.346,2.346,0,0,1,0-2.677L10.307,3.225a2.406,2.406,0,0,1,3.836,0L21.811,14.2a2.344,2.344,0,0,1,0,2.677L14.143,27.854a2.307,2.307,0,0,1-1.917,1" transform="translate(942.202 1247.876)" fill="#fff3e9"/>
      <path id="Path_18330-2" data-name="Path 18330" d="M12.227,0A4.57,4.57,0,0,0,8.485,1.953L.819,12.929a4.574,4.574,0,0,0,0,5.223L8.486,29.128a4.563,4.563,0,0,0,7.481,0l7.665-10.977a4.577,4.577,0,0,0,0-5.225L15.967,1.953A4.565,4.565,0,0,0,12.227,0m0,28.856a2.3,2.3,0,0,1-1.917-1L2.64,16.878a2.346,2.346,0,0,1,0-2.677L10.307,3.225a2.406,2.406,0,0,1,3.836,0L21.811,14.2a2.344,2.344,0,0,1,0,2.677L14.143,27.854a2.307,2.307,0,0,1-1.917,1" transform="translate(942.202 1212.642)" fill="#fff3e9"/>
      <path id="Path_18328-2" data-name="Path 18328" d="M4.066,8.654l-.416-.13A15.905,15.905,0,0,1,.072,4.3L0,3.7A12.391,12.391,0,0,1,3.908,0l.579.2A13.6,13.6,0,0,1,7.9,4.355L8.024,5C7.236,6.354,5.11,8.356,4.066,8.654" transform="translate(950.155 1259.515)" fill="#fff3e9"/>
      <path id="Path_18329-2" data-name="Path 18329" d="M4.066,8.654l-.416-.13A15.905,15.905,0,0,1,.072,4.3L0,3.7A12.391,12.391,0,0,1,3.908,0l.579.2A13.6,13.6,0,0,1,7.9,4.355L8.024,5C7.236,6.354,5.11,8.356,4.066,8.654" transform="translate(950.155 1224.282)" fill="#fff3e9"/>
    </g>
  </g>
</svg>
