<svg xmlns="http://www.w3.org/2000/svg" xmlns:xlink="http://www.w3.org/1999/xlink" width="154.356" height="159.49" viewBox="0 0 154.356 159.49">
  <defs>
    <clipPath id="clip-path">
      <rect id="Rectangle_2659" data-name="Rectangle 2659" width="154.356" height="159.49" fill="#ff4438"/>
    </clipPath>
  </defs>
  <g id="Group_36365" data-name="Group 36365" clip-path="url(#clip-path)">
    <path id="Path_39711" data-name="Path 39711" d="M18.35,133.909a1.032,1.032,0,0,0,.393-1.14,1.868,1.868,0,0,1,.31-2.081c2.429-3.914,4.917-7.8,7.387-11.712a2.907,2.907,0,0,0-.146-3.795l-1.188-1.592c-.524-.711-1.03-.566-1.262-.393a.8.8,0,0,0-.289.926,1,1,0,0,1-.81,1.188L10.531,118.7c-1.265.351-1.828.345-2.709-.366a1.261,1.261,0,0,0-1.316-.2c-.292.217-.521.613.024,1.348l2.408,3.253c.342.458.816.923,1.339.536.36-.265.31-.685.164-1.1-.467-.985-.167-1.369,1.125-1.774l1.226-.357c.661-.164.863-.024,1.3.563l2.863,3.863a1.224,1.224,0,0,1-.027,1.455l-.753,1.137c-.646.967-1.083.9-1.95.307a.678.678,0,0,0-.81.048c-.628.467-.146,1.119.664,2.208l2.768,3.735c.286.435.854,1.027,1.5.545m-2.384-13.837c-.262-.357-.47-.854.039-1.006l6.188-1.822c.512-.146.7.1.387.524-1.226,1.759-2.4,3.509-3.619,5.286-.247.375-.661.161-.926-.193Zm15.811,10.62-6.584,7.146c-3.006,3.268-6.122,2.988-8.745,1.286-1.274-.89-.333-2.259.929-1.738,1.015.473,2.482.58,4.322-1.417l5.307-5.765c.479-.518.756-.938.369-1.4-.443-.482-.78-.97-.533-1.271.354-.384.839-.223,1.444.015a13.83,13.83,0,0,1,3.328,1.783c.536.5.625.86.164,1.36m2.336-6.048c1.083.994,1.313,2.164.6,2.935-.741.807-1.929.67-3.006-.321-1.134-1.045-1.387-2.235-.643-3.042.708-.768,1.914-.616,3.045.429m6.25,7.277c-.652.881-1.842.875-3.021.009-1.217-.9-1.625-2.072-.973-2.953.619-.842,1.86-.807,3.078.092,1.179.869,1.536,2.009.917,2.851m-2.729,3.307-4.679,6.349c-.884,1.2-1.217,1.7-.524,2.825a.8.8,0,0,1,.009.92c-.342.461-.8.515-2.61-.821l-1.765-1.3c-1.768-1.3-1.958-1.83-1.616-2.295a.727.727,0,0,1,.836-.256c1.274.387,1.711-.167,2.563-1.322l2.991-4.06c.42-.568.667-1.033.193-1.447-.491-.4-.944-.795-.649-1.194.31-.42.813-.31,1.438-.14a13.7,13.7,0,0,1,3.5,1.411c.589.432.717.786.313,1.333m22.406,20.8c-.223-.077-.476.25-1.119.03-.717-.247-.774-1.205-.75-2.8.06-2.244-.113-3.438-1.67-4.774-.155-.11-.1-.283.128-.289,2.649-.08,4.378-1.17,5.06-3.146,1.107-3.212-.673-5.98-5.64-7.688-1.28-.441-5.09-1.586-6.843-2.191-.961-.33-1.268-.164-1.423.283a1.349,1.349,0,0,0,.336,1.277c.881.884,1.009,1.316.464,2.9l-3.131,9.087c-.455,1.333-.771,1.7-2.122,1.923a1.246,1.246,0,0,0-.982.682c-.205.592-.042.842.949,1.185l5.349,1.869c.988.339,1.307.063,1.458-.384a1.149,1.149,0,0,0-.354-1.14c-.932-.9-1.018-1.375-.482-2.932l.688-2c.292-.839.613-.893,1.277-.667l.994.342c1.676.577,2.286,2.253,1.866,4.926-.354,2.143-.536,3.792,2.4,4.807,1.828.628,3.354.354,3.715-.682.1-.3.1-.521-.173-.613m-7.108-10.1-1.036-.354c-.839-.289-.92-.622-.613-1.512l1.566-4.542c.3-.866.6-.952,1.274-.72l.887.3c2.369.818,2.991,2.938,2.253,5.084-.574,1.655-1.985,2.551-4.331,1.741m18.248.286c-4.218-.375-7.376,2.122-7.718,5.971s2.328,6.9,6.542,7.271,7.373-2.125,7.715-6c.345-3.848-2.328-6.864-6.539-7.239m-.691,11.578c-2.211-.2-3.1-4.024-2.866-6.676.19-2.161,1.45-3.334,3.012-3.194,2.211.2,3.125,4.051,2.9,6.628-.2,2.185-1.4,3.387-3.045,3.241M92.453,155c-.357,1.854-1.92,3.777-5.11,4.155a6.3,6.3,0,0,1-7.313-5.786,6.446,6.446,0,0,1,5.572-7.346c2.7-.318,5.533.979,5.8,3.209a1.24,1.24,0,0,1-1.051,1.542,1.815,1.815,0,0,1-1.994-1.262c-.485-1.2-1.208-1.988-2.584-1.825-1.295.155-2.289,1.536-2.018,3.819.363,3.06,1.887,5.271,4.509,4.962a4.233,4.233,0,0,0,3.084-1.917c.185-.235.327-.33.458-.345.518-.062.705.393.649.795m6.432-12.045c-4.012,1.348-5.905,4.9-4.676,8.566s4.893,5.384,8.905,4.039,5.905-4.9,4.667-8.593c-1.229-3.664-4.884-5.358-8.9-4.012m4.012,10.885c-2.107.705-4.459-2.444-5.3-4.968-.691-2.054-.012-3.634,1.476-4.131,2.107-.708,4.491,2.458,5.313,4.911.7,2.081.071,3.664-1.485,4.188m17-9.822c.554,2.176-.283,3.9-2.4,5.078-2.211,1.235-4.232.988-5.759-1.75l-3.078-5.521a.518.518,0,0,0-.795-.244l-.363.2a.7.7,0,0,1-.964-.33,2.191,2.191,0,0,1-.125-1.247l.074-.673a11.291,11.291,0,0,1,.589-2.747,3.669,3.669,0,0,1,1.441-1.762c.458-.253.723-.042,1.042.53l.765,1.366c.521.935.592,1.012.982.8l2.762-1.542c.387-.214.56-.28.851.244a.949.949,0,0,1-.345,1.423l-2.28,1.271a.577.577,0,0,0-.292.875l2.789,5c.735,1.322,1.708,1.673,2.714,1.113a2.806,2.806,0,0,0,1.324-1.964.543.543,0,0,1,1.072-.119m1.125-13.465c-3.247,2.712-3.72,6.712-1.241,9.679s6.515,3.235,9.763.524,3.72-6.712,1.226-9.7c-2.479-2.965-6.5-3.217-9.748-.5m7.694,8.682c-1.706,1.423-5.039-.655-6.748-2.7-1.39-1.664-1.327-3.384-.125-4.387,1.7-1.423,5.075.661,6.736,2.646,1.4,1.682,1.4,3.387.137,4.441m18.263-36.928a16.964,16.964,0,0,0-.446,5.8c.083,2.762.164,5.616-1.164,8-1.36,2.438-3.86,3.878-6.28,5.271a16.616,16.616,0,0,0-4.607,3.348l-2.25-1.833a18.8,18.8,0,0,1,5.408-4.027c2.173-1.253,4.226-2.438,5.2-4.173.938-1.685.869-4.024.795-6.5a19.274,19.274,0,0,1,.607-6.831,18.706,18.706,0,0,1,3.664-5.578c1.622-1.935,3.155-3.762,3.476-5.759s-.56-4.218-1.491-6.566a18.673,18.673,0,0,1-1.729-6.447,19.24,19.24,0,0,1,1.569-6.676c.848-2.328,1.649-4.527,1.286-6.423-.375-1.95-1.953-3.718-3.625-5.59a18.8,18.8,0,0,1-3.866-5.515,19.105,19.105,0,0,1-.81-6.756c0-2.491-.006-4.846-1.009-6.521s-3.087-2.81-5.283-3.994a18.99,18.99,0,0,1-5.554-3.9,18.975,18.975,0,0,1-3.042-6.045c-.854-2.351-1.661-4.572-3.191-5.819-1.512-1.232-3.834-1.569-6.3-1.935a19.231,19.231,0,0,1-6.584-1.777,18.819,18.819,0,0,1-4.875-4.6c-1.619-1.929-3.149-3.753-5.045-4.408-1.8-.616-4.084-.152-6.5.345a19.2,19.2,0,0,1-6.875.589,19.206,19.206,0,0,1-6.34-2.717c-2.137-1.229-4.143-2.4-6.066-2.369-2.009.027-4.03,1.277-6.173,2.6a18.842,18.842,0,0,1-6.072,2.834A19.069,19.069,0,0,1,57,7.956c-2.435-.423-4.762-.833-6.584-.14-1.842.705-3.307,2.56-4.854,4.524a19.007,19.007,0,0,1-4.789,4.786,18.989,18.989,0,0,1-6.492,1.958c-2.461.435-4.783.845-6.268,2.131s-2.226,3.512-3.009,5.872a19.119,19.119,0,0,1-2.89,6.161,18.881,18.881,0,0,1-5.405,4.024c-2.173,1.253-4.226,2.438-5.194,4.173-.941,1.688-.872,4.027-.8,6.5a19.325,19.325,0,0,1-.6,6.828A18.831,18.831,0,0,1,6.45,60.356c-1.625,1.935-3.158,3.762-3.479,5.765s.56,4.215,1.494,6.56a18.829,18.829,0,0,1,1.723,6.45A19.208,19.208,0,0,1,4.62,85.8c-.845,2.328-1.646,4.527-1.283,6.426.375,1.953,1.95,3.72,3.622,5.59a18.929,18.929,0,0,1,3.869,5.521l-2.711,1.033A16.635,16.635,0,0,0,4.8,99.751c-1.86-2.083-3.783-4.238-4.307-6.98-.515-2.682.461-5.366,1.4-7.965A16.966,16.966,0,0,0,3.287,79.17a16.514,16.514,0,0,0-1.518-5.417C.73,71.145-.345,68.449.1,65.66s2.316-5.018,4.119-7.17a16.46,16.46,0,0,0,3.143-4.661,17.023,17.023,0,0,0,.449-5.792c-.08-2.762-.167-5.616,1.164-8,1.36-2.438,3.86-3.878,6.283-5.274a16.5,16.5,0,0,0,4.6-3.345,16.659,16.659,0,0,0,2.384-5.238c.875-2.634,1.78-5.358,3.866-7.155s4.92-2.31,7.658-2.792a16.723,16.723,0,0,0,5.512-1.592,16.653,16.653,0,0,0,4-4.093c1.723-2.185,3.509-4.447,6.1-5.438,2.566-.976,5.4-.479,8.117-.006a17,17,0,0,0,5.762.387,16.549,16.549,0,0,0,5.1-2.45c2.384-1.473,4.846-3,7.658-3.036,2.7-.036,5.17,1.381,7.554,2.759a17.007,17.007,0,0,0,5.352,2.363,16.989,16.989,0,0,0,5.828-.566c2.688-.56,5.456-1.137,8.033-.247,2.658.92,4.521,3.14,6.322,5.289a16.574,16.574,0,0,0,4.066,3.923,16.885,16.885,0,0,0,5.59,1.441c2.735.4,5.575.821,7.709,2.557,2.152,1.753,3.134,4.462,4.087,7.078a16.692,16.692,0,0,0,2.509,5.14,16.717,16.717,0,0,0,4.732,3.241c2.45,1.319,4.98,2.685,6.4,5.057s1.417,5.233,1.42,8.009a16.748,16.748,0,0,0,.619,5.724,16.635,16.635,0,0,0,3.322,4.619c1.86,2.083,3.783,4.235,4.31,6.977.509,2.682-.464,5.366-1.408,7.962a16.951,16.951,0,0,0-1.4,5.643,16.5,16.5,0,0,0,1.521,5.411c1.039,2.61,2.113,5.31,1.664,8.1s-2.316,5.012-4.119,7.164a16.412,16.412,0,0,0-3.146,4.661M112.818,80.089A16.861,16.861,0,0,0,99.121,59.5l-36.2-5.831A16.862,16.862,0,0,0,43.441,68.919L40.783,102a16.8,16.8,0,0,0,14.075,17.989l31.085,5.006a16.8,16.8,0,0,0,19.013-12.662ZM70.595,102.106a9.878,9.878,0,0,1-19.629-1.863l.768-25.582a9.889,9.889,0,0,1,14.09-8.688l3.113,1.473a9.878,9.878,0,0,1,5.545,10.513Zm32.589-19.4-7.468,25.029a10.059,10.059,0,0,1-19.567-4.488l3.959-24.582a10.045,10.045,0,0,1,8.754-8.411l3.462-.411A10.06,10.06,0,0,1,103.183,82.7M63.059,76.119A2.674,2.674,0,1,1,66.124,73.9a2.68,2.68,0,0,1-3.066,2.214M95.091,38.732a2,2,0,0,0-2.128-1.816,12.328,12.328,0,0,0-8.527,4.34,21.384,21.384,0,0,0-4.786,9.7,2.114,2.114,0,0,1-4.107-1,25.871,25.871,0,0,1,5.765-11.534,16.567,16.567,0,0,1,11.349-5.718,6.2,6.2,0,0,1,6.634,5.6,6.056,6.056,0,0,1-5.414,6.733,5.143,5.143,0,0,0-4,2.592,24.34,24.34,0,0,0-1.325,5.143A2.116,2.116,0,0,1,86.138,54.5l-.027-.006a2.115,2.115,0,0,1-1.72-2.441c.205-1.185.952-5.17,1.932-6.7a9.321,9.321,0,0,1,7.108-4.518,1.856,1.856,0,0,0,1.661-2.1M60.954,79.9a2.594,2.594,0,0,1-1.444,1.893,2.545,2.545,0,0,1-1.577.289A2.655,2.655,0,1,1,60.954,79.9m8.152,1.316h0A2.652,2.652,0,1,1,66.9,78.149a2.664,2.664,0,0,1,2.211,3.069m22.63-.723a2.612,2.612,0,0,1-1.158-.527,2.62,2.62,0,0,1-.205-4.09,2.618,2.618,0,0,1,2.226-.744,2.672,2.672,0,0,1,2.063,1.732,2.619,2.619,0,0,1,.185,1.381,2.774,2.774,0,0,1-3.11,2.247M89.62,84.357a2.713,2.713,0,1,1-2.25-3.11,2.721,2.721,0,0,1,2.25,3.11m8.274,1.33a2.694,2.694,0,1,1-2.211-3.1,2.712,2.712,0,0,1,2.211,3.1M50.778,27.922a3.919,3.919,0,0,0,.729-4.3c-.042-.1-.1-.214-.161-.324a1.71,1.71,0,0,1-.176-1.813,1.531,1.531,0,0,1,1.324-.753,14.392,14.392,0,0,1,7.959,2.8,18.1,18.1,0,0,1,4.8,4.932A19.934,19.934,0,0,1,67.389,32.6a16.537,16.537,0,0,1,1.223,7.17l-.021.289a12.292,12.292,0,0,1-7.114,9.852,1.493,1.493,0,0,1-1.211-.015,1.445,1.445,0,0,1-.78-.932c-.973-3.593-3.122-6.471-3.715-6.328-1.283.324-3.024,2.372-4.292,3.869-.363.426-.708.833-1.03,1.2a1.461,1.461,0,0,1-1,.479,1.531,1.531,0,0,1-.31-.015,1.451,1.451,0,0,1-.738-.354A12.114,12.114,0,0,1,46.406,32.1,12.165,12.165,0,0,1,48.4,29.758a14.558,14.558,0,0,1,1.336-1.036,11.253,11.253,0,0,0,1.042-.8" transform="translate(-0.001 -0.002)" fill="#ff4438"/>
  </g>
</svg>
