<svg xmlns="http://www.w3.org/2000/svg" width="94.23" height="142.743" viewBox="0 0 94.23 142.743">
  <path id="Path_39712" data-name="Path 39712" d="M123.651,214.75l1.2-2,.6-3.394,1.8-3.194,4.991-2.4,1.6-1.6-2.4-4.392-2.6-3.194-.2-2.995,2.2-2.795,1.6-3.793-.2-3.793-.8-4.192,2.2-3.793,1.4-2.995-3.394-5.79-1.6-2.6-2.4-2.2-3.993-1.4a1.668,1.668,0,0,1-.6-1.4c0-1,.2-2.995.2-2.995a13.3,13.3,0,0,0,.2-3.194c-.2-.6-1.8-1.4-1.8-1.4s-3.394-.2-4.192.6-2.2,2.4-2.2,2.4-.8,1-1.4.2-2.795-2.995-2.795-2.995l-2.4-2.4-3.394-.6-.2-.8-.4-2.4-2.4-4.392s-2.795-4.791-3.194-5.79c-.4-1.2-1.2-3.394-1.4-4.392s1.8-3.194,1.8-3.194l2.6-1.2,1.6-2.2.6-3.793,2.4-6.987,3.993-1.8,4.592-.8,4.392-2.2,2.2.6,3.793,2,.8-1.8-2.4-2.2-3.194-.8,2.995-6.987,1-2.4-1.4-.8-2.4-1s-4.592-.6-5.191-1c-.6-.2-3.394-.6-3.394-.6l-2.6.8a24.506,24.506,0,0,0-3.394.2,9.077,9.077,0,0,1-1.2.2l-2.4-1-.2-2.2v-2.4l-.6-1.6s-2.795-2-3.594-2.6-2-1.6-2-1.6-.8-2.4-1-2.795a18.612,18.612,0,0,0-2-2L89.912,76l-.6-.4,1.4,2.995.2,4.392s-2.2,4.192-2.6,4.791-4.991,4.991-4.991,4.991l-4.991,2.6-6.388,1-5.39,1.2-2.2,5.989-3.194,5.39-1.4,1.4-1.6-1.4-1.6-2-2.795-.2-2.2-.2-1.8-1.4.2-1.4,1.2-2.6-.2-2-.2-.6a38.1,38.1,0,0,0-6.389,3.194c-.8.8-3.594,1.6-3.594,4.392s.8,4.991,1.2,5.191a3.967,3.967,0,0,1,1.8,1.2,10.946,10.946,0,0,1,1.6,2.995c.2.8.4,2.4,0,2.4-.4.2-1.8.2-2.4.8-.4.8-1.2.4-.8,1.6.2,1.2,4.991,3.594,4.991,3.594l3.394,1.6,3.993,4.192s2,4.791,2.6,5.79a7.989,7.989,0,0,0,2.4,2.2,27.262,27.262,0,0,1,2.995,4.192c.2.4,4.791,15.372,4.791,15.372s.6,4.791,1,5.191,2.4,2.795,2.795,3.194a21.636,21.636,0,0,1,1.6,3.793c0,.6-.8,2.2.2,2.795a50.482,50.482,0,0,1,4.392,3.793s1.8,3.194,1.6,3.793a2.071,2.071,0,0,1-1.2,1.6c-.6.2-1.4,2.4-1.4,2.4s2,2.795,2.2,3.194,6.987,7.387,6.987,7.387l6.588,4.192,8.385,3.194,7.387,5.989,4.791,5.39,5.59,4.592v.6l2.2-.6Z" transform="translate(-40.8 -75.6)" fill="#15e031"/>
</svg>
